<svg xmlns="http://www.w3.org/2000/svg" viewBox="0 0 64 64"><path fill="#80d6fb" d="M48.676 41.948 38 38.983H26l-10.676 2.966A10 10 0 0 0 8 51.584V62h48V51.584c0-4.492-2.995-8.433-7.324-9.636z"/><path fill="#46bee8" d="M16 56h2v6h-2zM38 38.983H26l-1.973.548C24.302 43.694 27.768 47 32 47s7.698-3.306 7.973-7.469L38 38.983z"/><path fill="#fcb98b" d="M38 31.983H26v7l.001.001L26 39a6 6 0 1 0 12 0l-.001-.017H38v-7z"/><path fill="#ffd3b3" d="M44 13.983V24c0 6.627-5.373 12-12 12s-12-5.373-12-12V13.983h24zM44 17h.693a2 2 0 0 1 1.98 2.284l-.427 2.983a2 2 0 0 1-1.98 1.716H44V17zm-24 0h-.693a2 2 0 0 0-1.98 2.284l.427 2.983a2 2 0 0 0 1.98 1.716H20V17z"/><path fill="#6e83b7" d="m44 23.983-2-8H22l-2 8V12c0-5.523 4.477-10 10-10h5a4 4 0 0 1 4 4 5 5 0 0 1 5 5v12.983z"/><path fill="#ffb0aa" d="M53 10h-2V3h-7V1h9zM13 10h-2V1h9v2h-7zM53 39h-9v-2h7v-7h2zM20 39h-9v-9h2v7h7zM11 19h42v2H11z"/><circle cx="52" cy="52" r="10" fill="#98ca69"/><circle cx="52" cy="52" r="8" fill="#edeff1"/><path fill="#98ca69" d="m51 55.914-3.707-3.707 1.414-1.414L51 53.086l5.043-5.043 1.414 1.414z"/></svg>