<svg xmlns="http://www.w3.org/2000/svg" enable-background="new 0 0 5000 4000" viewBox="0 0 5000 4000"><path fill="#303c72" d="M1801.18,3015.941H556.592c-62.804,0-113.716-50.913-113.716-113.716V590.248
				c0-62.804,50.913-113.716,113.716-113.716H1801.18c62.804,0,113.716,50.913,113.716,113.716v2311.977
				C1914.897,2965.029,1863.984,3015.941,1801.18,3015.941z"/><path fill="#8ccbff" d="M1758.144,2949.402H599.629c-52.132,0-94.393-42.261-94.393-94.393V637.464
						c0-52.132,42.261-94.393,94.393-94.393h1158.514c52.132,0,94.393,42.261,94.393,94.393v2217.544
						C1852.537,2907.14,1810.276,2949.402,1758.144,2949.402z"/><path fill="#6eb8f5" d="M1758.145,543.071H599.631c-52.132,0-94.395,42.261-94.395,94.393v115.987h1347.302V637.464
						C1852.538,585.332,1810.277,543.071,1758.145,543.071z"/><path fill="#fff" d="M1758.144,2953.437H599.629c-54.274,0-98.429-44.155-98.429-98.429V637.464
								c0-54.273,44.155-98.428,98.429-98.428h1158.514c54.274,0,98.428,44.155,98.428,98.428v2217.544
								C1856.572,2909.282,1812.417,2953.437,1758.144,2953.437z M599.629,547.106c-49.824,0-90.358,40.534-90.358,90.357v2217.544
								c0,49.823,40.534,90.358,90.358,90.358h1158.514c49.823,0,90.358-40.535,90.358-90.358V637.464
								c0-49.824-40.534-90.357-90.358-90.357H599.629z"/><path fill="#303c72" d="M1440.073,590.208H917.7c-32.031,0-57.997-25.966-57.997-57.997v-12.114h638.368v12.114
							C1498.07,564.241,1472.104,590.208,1440.073,590.208z"/><path fill="#c9e6ff" d="M664.678,1331.328h1011.505c27.721,0,50.194-22.473,50.194-50.194v-264.71
								c0-27.721-22.473-50.194-50.194-50.194H664.678c-27.721,0-50.194,22.473-50.194,50.194v264.71
								C614.484,1308.855,636.957,1331.328,664.678,1331.328z"/><path fill="#b5ddff" d="M1621.906,1076.221H716.489c-8.227,0-14.896-6.669-14.896-14.896v-6.339
									c0-8.227,6.669-14.896,14.896-14.896h905.417c8.227,0,14.896,6.669,14.896,14.896v6.339
									C1636.801,1069.552,1630.132,1076.221,1621.906,1076.221z"/><path fill="#b5ddff" d="M1621.906,1168.587H716.489c-8.227,0-14.896-6.669-14.896-14.896v-6.339
									c0-8.227,6.669-14.896,14.896-14.896h905.417c8.227,0,14.896,6.669,14.896,14.896v6.339
									C1636.801,1161.918,1630.132,1168.587,1621.906,1168.587z"/><path fill="#b5ddff" d="M1621.906,1260.953H716.489c-8.227,0-14.896-6.669-14.896-14.896v-6.339
									c0-8.227,6.669-14.895,14.896-14.895h905.417c8.227,0,14.896,6.669,14.896,14.895v6.339
									C1636.801,1254.284,1630.132,1260.953,1621.906,1260.953z"/><path fill="#c9e6ff" d="M664.678,2230.592h1011.505c27.721,0,50.194-22.473,50.194-50.194v-264.709
								c0-27.721-22.473-50.194-50.194-50.194H664.678c-27.721,0-50.194,22.473-50.194,50.194v264.709
								C614.484,2208.119,636.957,2230.592,664.678,2230.592z"/><path fill="#b5ddff" d="M1623.509,1973.742H718.092c-8.227,0-14.896-6.669-14.896-14.895v-6.339
									c0-8.227,6.669-14.896,14.896-14.896h905.417c8.227,0,14.896,6.669,14.896,14.896v6.339
									C1638.405,1967.073,1631.736,1973.742,1623.509,1973.742z"/><path fill="#b5ddff" d="M1623.509,2066.108H718.092c-8.227,0-14.896-6.669-14.896-14.896v-6.338
									c0-8.227,6.669-14.896,14.896-14.896h905.417c8.227,0,14.896,6.669,14.896,14.896v6.338
									C1638.405,2059.439,1631.736,2066.108,1623.509,2066.108z"/><path fill="#b5ddff" d="M1623.509,2158.474H718.092c-8.227,0-14.896-6.669-14.896-14.896v-6.338
									c0-8.227,6.669-14.896,14.896-14.896h905.417c8.227,0,14.896,6.669,14.896,14.896v6.338
									C1638.405,2151.805,1631.736,2158.474,1623.509,2158.474z"/><g><path fill="#c9e6ff" d="M415.861,1774.642h1011.505c27.721,0,50.194-22.473,50.194-50.194v-264.71
								c0-27.721-22.473-50.194-50.194-50.194H415.861c-27.721,0-50.194,22.473-50.194,50.194v264.71
								C365.667,1752.169,388.139,1774.642,415.861,1774.642z"/><path fill="#b5ddff" d="M1363.188,1520.628H457.772c-8.227,0-14.895-6.669-14.895-14.896v-6.339
									c0-8.227,6.669-14.896,14.895-14.896h905.417c8.227,0,14.896,6.669,14.896,14.896v6.339
									C1378.084,1513.959,1371.415,1520.628,1363.188,1520.628z"/><path fill="#b5ddff" d="M1363.188,1612.994H457.772c-8.227,0-14.895-6.669-14.895-14.896v-6.339
									c0-8.227,6.669-14.896,14.895-14.896h905.417c8.227,0,14.896,6.669,14.896,14.896v6.339
									C1378.084,1606.325,1371.415,1612.994,1363.188,1612.994z"/><path fill="#b5ddff" d="M1363.188,1705.36H457.772c-8.227,0-14.895-6.669-14.895-14.896v-6.339
									c0-8.227,6.669-14.895,14.895-14.895h905.417c8.227,0,14.896,6.669,14.896,14.895v6.339
									C1378.084,1698.691,1371.415,1705.36,1363.188,1705.36z"/></g><g><path fill="#996553" d="M838.43,3301.415h30.852c0,0,54.508-131.807,90.283-159.447l-30.989-27.195l-34.773,41.978
							l-44.509,82.76L838.43,3301.415z"/><path fill="#ad7760" d="M881.286,3095.55l-72.328,187.773l29.472,18.091c0,0,52.592-123.8,85.247-180.728
							L881.286,3095.55z"/><path fill="#996553" d="M2220.586,3472.862l-34.425-18.778c0,0-34.275-156.852-60.702-209.706
							c-11.822-22.255-38.2-28.912-63.262-31.147l-9.761-32.14l88.323-13.909c0,0,39.26,89.38,56.332,138.396
							C2220.586,3373.038,2220.586,3472.862,2220.586,3472.862z"/><path fill="#ad7760" d="M2220.586,3186.614l35.464,280.412l-35.464,5.836c0,0-42.621-181.431-48.879-198.003
							c-6.259-16.572-24.005-66.768-79.288-66.707v-21.539l127.622-25.373L2220.586,3186.614z"/><path fill="#ad7760" d="M1456.921,3314.95c0,0-44.715,9.488-54.043,93.556c-9.549,86.063-14.437,201.307-14.437,201.307
						l-41.373,6.809l-17.213-87.627l-61.026-220.634L1456.921,3314.95z"/><path fill="#ad7760" d="M869.283,3001.191l12.003,94.359l395.999,234.813c12.4,7.353,26.983,10.129,41.217,7.848
						l902.085-151.598l-1.545-71.895L869.283,3001.191z"/><path fill="#b5aba9" d="M1689.892,2255.886c0,0,353.111,91.309,465.776,132.385
							c112.664,41.075,171.343,69.242,168.996,191.294c-2.347,122.053-4.694,491.732-105.622,535.154
							c-100.928,43.423-600.875-197.162-600.875-197.162L1689.892,2255.886z"/><path fill="#d6d4d4" d="M2171.2,3119.336c-27.342-128.947-56.45-506.872-16.706-621.922
							c22.298-64.546,124.636-47.699,124.637-47.698c31.24,27.76,46.762,65.923,45.532,129.849
							c-2.347,122.053-4.694,491.732-105.622,535.154C2207.707,3119.596,2191.326,3120.88,2171.2,3119.336z"/><path fill="#c1b9b7" d="M1652.2,2579.565c0,0,422.49,112.664,497.6,146.698
								c75.109,34.033,90.366,99.755,90.366,150.219c0,50.464-30.514,96.234-62.201,109.144
								c-31.686,12.909-707.671,126.747-768.697,129.094c-61.026,2.348-159.607-72.762-172.517-106.796
								c-12.909-34.034-315.138-324.562-315.138-324.562L1652.2,2579.565z"/><path fill="#cec9c8" d="M1154.564,2914.071c159.572,18.813,876.704-93.922,944.772-115.046
								c68.068-21.125,83.487-53.122,83.487-53.122c46.78,36.071,57.344,88.602,57.344,130.579
								c0,50.464-30.514,96.234-62.201,109.144c-31.686,12.909-707.671,126.747-768.697,129.094
								c-61.026,2.348-159.607-72.762-172.517-106.796C1232.611,2997.007,1198.709,2959.708,1154.564,2914.071L1154.564,2914.071z"/><path fill="#c1b9b7" d="M1665.11,2600.689c0,0,56.332-17.604,56.332-77.456s-43.422-362.638-56.332-413.102
								c-12.91-50.464-65.721-95.06-131.442-100.928c-65.721-5.868-587.966,3.521-685.373,88.019
								c-97.407,84.498,41.306,523.667,57.679,560.916c17.696,40.259,128.962,33.598,261.145,18.053
								C1385.573,2650.498,1665.11,2600.689,1665.11,2600.689z"/><path fill="#b5aba9" d="M848.295,2097.221c97.408-84.498,619.652-93.886,685.373-88.019
								c15.65,1.398,30.555,5.012,44.376,10.358c-4.046,0.24-427.801,25.399-567.795,68.272
								c-187.743,57.496,25.371,616.298,25.441,616.48c-66.451,0.225-114.142-9.237-125.195-34.383
								C894.122,2632.682,750.888,2181.719,848.295,2097.221z"/><path fill="#d6d4d4" d="M2177.966,2985.625c0,0,41.076,4.694,51.638,49.291c10.562,44.596,1.174,89.192-25.819,98.581
							c-26.993,9.389-808.384,141.401-822.467,140.87c-14.083-0.531-20.025-157.404-20.683-169.675
							C1359.978,3092.42,2177.966,2985.625,2177.966,2985.625z"/><path fill="#fff" d="M1357.709,2097.559c0,0,46.268-18.159,65.835-23.722c19.567-5.563,42.039,17.581,33.883,46.553
							c-8.156,28.973,3.899,85.549,26.573,127.625c22.674,42.076,39.956,102.422,55.989,150.014
							c16.034,47.593,57.502,96.62,53.925,113.529s-82.937-1.936-108.113,2.962c-25.176,4.899-176.042,19.341-222.661,31.553
							c-46.62,12.212-143.516,5.472-176.986,21.996c-33.469,16.523-46.516-19.69-49.33-49.172
							c-2.814-29.482-55.025-221.593-60.089-261.585c-5.065-39.991-17.956-64.211-22.728-90.458
							c-4.772-26.247,2.198-58.512,20.211-64.258c18.013-5.747,119.101,18.822,147.256,20.578
							c28.155,1.757,51.755,18.73,65.319,15.609c13.565-3.122,56.992-10.588,86.066-16.601
							C1301.933,2116.169,1320.599,2091.591,1357.709,2097.559z"/><path fill="#efe8e6" d="M954.007,2166.855c-4.772-26.247,2.198-58.512,20.211-64.258
							c0.847-0.27,1.878-0.474,3.075-0.615c12.004,5.852,27.172,15.303,37.391,29.039c19.282,25.917,72.189,191.324,83.544,295.088
							c6.917,56.977-16.781,75.22-11.678,98.674c2.498,11.479,6.069,26.293,6.817,40.379c-2.644,0.881-5.061,1.845-7.212,2.907
							c-33.469,16.523-46.516-19.69-49.33-49.172c-2.814-29.482-55.025-221.593-60.089-261.585
							C971.671,2217.321,958.78,2193.102,954.007,2166.855z"/><g><path fill="#f2b4a7" d="M1218.43,2622.794c0,0,24.58-140.392,263.879-98.645
									c182.382,31.817,529.224,110.12,593.392,183.031c15.668,18.109,59.086,88.636-44.353,108.582
									c-103.438,19.946-261.437,13.383-354.784,11.846C1583.219,2826.07,1173.361,2822.374,1218.43,2622.794z"/><path fill="#adcaed" d="M1202.078,2654.898c0,0-9.146,149.618,350.198,181.954s527.542,15.764,540.169-106.251
										c0.494-37.559,21.679-80.658-207.757-137.721c-229.437-57.064-375.331-102.754-489.666-105.057
										C1280.687,2485.521,1202.374,2570.884,1202.078,2654.898z"/><path fill="#8fb1db" d="M1972.478,2736.036c-73.355-38.384-372.318-120.695-374.877-134.342
										c-2.559-13.647,7.677-59.707,7.677-59.707c-22.177,15.354-39.237,75.914-57.149,64.825
										c-17.912-11.089-146.71-27.295-146.71-27.295s-142.875,29.975-160.239,153.006
										c42.161,41.772,129.649,88.001,311.096,104.329c228.346,20.548,357.357,12.942,451.386-16.371
										C2006.693,2782.715,1999.892,2750.38,1972.478,2736.036z"/><path fill="#f2b4a7" d="M2013.914,2697.505c43.765,13.5,69.103,59.117,58.417,103.618
										c-15.948,66.413-39.512,143.57-110.68,349.7c-98.407,285.028-99.493,295.592-140.765,285.67
										c-34.103-8.198-27.728-51.539-16.807-166.534c6.713-70.686,27.419-271.343,54.37-371.392
										c26.951-100.049,63.284-214.863,133.605-205.76C1999.966,2693.831,2007.238,2695.445,2013.914,2697.505z"/><path fill="#adcaed" d="M2103.863,2741.092c0,0-70.172,317.929-196.487,579.066c0,0-43.829,4.194-111.718-17.625
											c0,0,9.134-215.756,37.402-367.158c28.268-151.402,91.216-229.977,110.347-266.717
											C1975.055,2607.881,2105.458,2633.906,2103.863,2741.092z"/><path fill="#8fb1db" d="M1956.272,2997.042c15.353-55.443,89.561-222.624,16.206-261.007
											c-12.153-6.359-31.521-14.312-55.383-23.215c-26.901,45.201-64.095,115.757-84.034,222.555
											c-28.268,151.402-37.402,367.158-37.402,367.158c22.317,7.172,42.012,11.522,58.427,14.146
											C1880.302,3236.585,1944.135,3040.868,1956.272,2997.042z"/><path fill="#f2b4a7" d="M1884.664,3364.767c6.126-25.503-84.053-43.218-83.439-16.989
										c0.2,8.543,0.143,27.909-1.587,34.102c-8.806,31.529-16.397,36.792-29.509,64.152
										c-13.111,27.36-12.773,62.981,23.032,75.957c35.806,12.976,102.096,21.875,154.203,36.503
										c52.106,14.628,107.797-1.92,104.907-26.045c-2.502-20.885-37.066-26.655-77.075-47.817
										c-40.009-21.162-75.073-44.56-90.311-64.212C1871.563,3403.236,1879.616,3385.785,1884.664,3364.767z"/><path fill="#bd687e" d="M2079.422,3560.276c0,0-0.238,6.882-3.819,9.915c-3.581,3.033-60.646,9.294-97.367,4.546
												s-92.644-18.835-135.994-20.129c-42.362-1.265-72.363,0.942-95.929-6.985c-0.979-0.329-1.614-1.275-1.57-2.308
												c0.369-8.581,1.164-15.729,1.164-15.729l207.975,12.535L2079.422,3560.276z"/><path fill="#dadce3" d="M2079.422,3560.276c0,0,4.127-35.159-22.115-49.638
											c-26.242-14.479-128.155-59.364-132.72-59.464c-4.566-0.099-26.738,11.734-42.968,32.618
											c-3.268,4.796-82.541-12.707-111.932-36.46c-3.597-0.125-27.11,29.287-23.779,82.254c0,0,27.515,11.428,86.424,11.668
											c58.909,0.239,96.968,20.426,173.178,21.009C2057.382,3564.225,2079.422,3560.276,2079.422,3560.276z"/><g><path fill="#f9c4b9" d="M1532.457,2250.399c25.454,25.948,21.686,59.924,24.466,96.15
								c2.772,36.136,43.239,126.422,44.098,162.48c1.177,49.397-17.072,81.552-71.219,168.584
								c-54.147,87.032-101.244,174.071-254.268,141.139c-153.024-32.93-122.028-198.07-111.696-248.396
								c9.786-47.665,12.72-81.518,66.868-148.557c9.887-10.702,14.596-52.81,14.679-76.998
								c0.138-40.448,6.875-74.754,38.49-100.018c26.696-21.332,66.871-38.714,126.917-38.714
								C1478.783,2206.071,1505.875,2223.301,1532.457,2250.399z"/><path fill="#adcaed" d="M1245.472,2366.586c-2.999-0.278-5.699,1.814-6.153,4.789
									c-1.817,11.896-7.827,41.217-24.822,60.926c-21.759,25.236-48.442,69.325-60.987,166.481
									c-12.545,97.156,8.464,175.124,68.49,205.111c60.026,29.988,155.638,43.482,212.503,0
									c56.865-43.482,101.884-130.588,116.891-154.132c15.006-23.544,56.275-75.925,56.275-139.697
									c0-19.695-22.51-75.768-30.764-104.256c-5.68-19.605-9.938-34.594-12.042-42.036c-0.739-2.615-3.588-3.984-6.108-2.961
									C1541.598,2367.778,1470.646,2387.431,1245.472,2366.586z"/><path fill="#8fb1db" d="M1604.128,2542.828c-21.62,16.594-38.398,74.879-55.999,63.983
										c-17.912-11.089-146.71-27.295-146.71-27.295s-203.388,42.674-154.317,235.16c59.174,21.749,137.941,27.036,187.4-10.783
										c56.865-43.482,101.885-130.588,116.891-154.133C1563.738,2630.395,1593.831,2591.508,1604.128,2542.828z"/><path fill="#8fb1db" d="M1570.222,2382.607c-2.364-8.261-4.194-14.711-5.36-18.834
										c-0.739-2.615-3.588-3.984-6.108-2.961c-17.156,6.966-88.107,26.62-313.283,5.774c-2.999-0.278-5.699,1.814-6.153,4.789
										c-0.528,3.459-1.415,8.396-2.819,14.135C1275.185,2392.302,1407.441,2410.894,1570.222,2382.607z"/></g><g><path fill="#f9c4b9" d="M1216.36,2793.287c-58.602-52.746-62.129-131.781-2.087-182.885
									c32.791-27.911,75.735-44.653,150.627-29.62c150.528,30.215,235.749,64.357,355.364,103.465
									c120.672,39.454,101.588,29.279,157.711,63.111c56.123,33.832,76.019,84.223,61.739,114.561
									c-14.28,30.337-9.209,78.695-102.415,69.349c-93.207-9.346-247.035-21.601-339.81-38.932
									C1434.666,2880.6,1291.421,2860.848,1216.36,2793.287z"/><path fill="#adcaed" d="M1155.608,2684.775c0,0-39.242,165.346,365.058,219.182
										c385.594,51.346,410.653,44.717,447.898-50.018c44.032-111.998-89.576-137.621-166.574-157.384
										c-76.999-19.762-317.411-98.72-415.169-125.85C1289.062,2543.575,1177.011,2567.15,1155.608,2684.775z"/><path fill="#8fb1db" d="M1520.666,2903.958c139.339,18.554,231.59,29.535,294.358,31.527
										c-9.933-60.251-54.08-118.844-54.08-118.844s-24.31,24.95-47.98,77.406c-8.87,19.658-129.686,13.986-216.89,6.412
										C1504.089,2901.67,1512.273,2902.839,1520.666,2903.958z"/><path fill="#f9c4b9" d="M1968.282,2825.256c0,0-51.916,188.462-80.867,280.33
										c-28.95,91.868-79.802,260.575-91.472,314.592c-11.67,54.016-47.141,31.92-58.688,25.777
										c-11.547-6.143-19.02-18.713-20.084-69.77c-1.063-51.057-7.158-94.781-5.587-177.894
										c1.572-83.113,23.693-307.71,76.227-394.293C1846.78,2706.808,1983.575,2731.598,1968.282,2825.256z"/><path fill="#adcaed" d="M1878.652,2734.756c0,0-99.796,2.559-129.224,106.194
										c-29.427,103.635-44.781,273.801-42.222,458.041c0,0,76.212,24.05,120.993,21.491c0,0,122.102-361.823,145.132-480.812
										C1977.169,2792.331,1970.772,2733.476,1878.652,2734.756z"/><path fill="#f9c4b9" d="M1801.615,3397.414c5.06-25.736-85.778-39.684-84.074-13.504
										c0.555,8.527,1.304,27.879-0.167,34.139c-7.486,31.868-14.853,37.443-26.814,65.324
										c-11.962,27.881-10.142,63.458,26.172,74.932c36.314,11.475,102.918,17.609,155.588,30.057
										c52.669,12.448,107.624-6.403,103.733-30.386c-3.369-20.762-38.143-25.09-78.998-44.569
										c-40.855-19.48-76.862-41.399-92.903-60.399C1790.125,3436.394,1797.445,3418.623,1801.615,3397.414z"/><path fill="#c7778c" d="M2003.322,3588.578c0,0-0.113,6.885-3.639,9.982c-3.525,3.098-60.467,10.393-97.268,6.311
												c-36.801-4.082-92.971-17.151-136.337-17.659c-42.378-0.497-72.334,2.255-96.04-5.243
												c-0.985-0.312-1.637-1.246-1.611-2.279c0.214-8.586,0.879-15.748,0.879-15.748l208.168,8.76L2003.322,3588.578z"/><path fill="#f5f8ff" d="M2003.322,3588.578c0,0,3.489-35.228-23.011-49.228c-26.5-14-129.21-57.03-133.777-57.046
											c-4.567-0.016-26.52,12.217-42.369,33.392c-3.18,4.854-82.758-11.208-112.575-34.424
											c-3.598-0.06-26.574,29.774-22.283,82.672c0,0,27.718,10.928,86.621,10.099c58.903-0.829,97.323,18.664,173.531,17.864
											C1981.357,3592.927,2003.322,3588.578,2003.322,3588.578z"/></g><g><path fill="#f9c4b9" d="M1514.067,1792.922c13.15-6.125,46.234,15.546,56.759,25.524
									c13.483,12.782,36.113,39.661,55.729,89.146c30.245,76.3,52.877,171.852,65.453,212.778
									c12.576,40.925,39.363,135.246,7.402,154.311c-31.961,19.066-75.112-18.478-100.211-66.14
									c-25.099-47.663-56.228-146.266-74.662-205.267C1508.551,1952.109,1466.295,1815.173,1514.067,1792.922z"/><path fill="#534054" d="M1523.286,1787.782c0,0,38.002,10.182,63.62,42.397
										c25.617,32.215,68.087,113.478,102.731,262.27c0,0-62.315,51.337-136.071,70.325c0,0-85.037-225.688-91.894-293.663
										C1454.815,1801.137,1498.736,1780.139,1523.286,1787.782z"/><path fill="#49374a" d="M1625.595,2134.019c1.305-7.312,3.219-16.107,5.742-20.433
										c4.478-7.677,23.67-40.943,21.75-56.296c-1.919-15.353-17.272-70.37-35.185-113.87
										c-17.912-43.501-62.693-127.945-62.693-127.945s-28.791-21.516-59.313-25.538c-20.174,8.61-38.875,33.081-34.226,79.173
										c6.857,67.974,91.895,293.663,91.895,293.663C1579.785,2156.023,1604.554,2145.185,1625.595,2134.019z"/><path fill="#f9c4b9" d="M1642.126,2192.163c0,0,54.374-56.815,125.472-108.644
										c54.537-39.757,132.153-103.956,178.071-135.039c21.856-14.794,37.312-17.41,46.337-9.819
										c26.849,22.584-28.002,75.192-59.477,113.36c-27.464,33.307-127.659,140.718-161.093,172.876
										c-33.434,32.157-65.333,60.185-98.967,54.05C1638.835,2272.813,1607.273,2229.386,1642.126,2192.163z"/><path fill="#f2b4a7" d="M1709.853,2129.237c-4.379,3.733-8.595,7.389-12.639,10.943
										c0.008,0.585,0.016,0.914,0.016,0.914s7.677,29.427-6.397,74.208C1690.832,2215.301,1721.961,2169.188,1709.853,2129.237z"/><path fill="#f9c4b9" d="M1910.359,2069.948c-22.917,26.305-65.38-25.05-49.996-49.605
										c0.245-0.39,48.974-36.419,57.528-70.33c5.571-22.083,3.845-32.427,26.744-51.416
										c19.48-16.154,32.486-27.122,42.098-25.394c10.175,1.83,1.093,15.303-9.45,24.273c-11.42,9.716-28.939,38.712-12.89,38.206
										c12.777-0.402,53.902-8.15,66.379-13.448c20.349-8.64,71.739-56.592,83.136-30.573c0,0,13.115-1.926,11.939,13.182
										c0,0,15.711,5.374,0.987,23.768c0,0,9.058,8.533-0.342,19.098c-6.371,7.161-34.128,31.503-52.495,45.158
										c-18.367,13.655-91.75,21.403-117.95,36.553C1947.693,2034.253,1915.596,2063.937,1910.359,2069.948z"/><path fill="#edad9a" d="M1957.963,1930.71c0.881,15.572,5.862,28.289,0.417,43.807
											C1971.362,1962.428,1960.507,1943.903,1957.963,1930.71z"/><path fill="#edad9a" d="M2126.834,1928.613c-7.536-1.358-13.493,4.695-19.035,8.757
											c-17.271,12.506-33.585,26.946-51.629,37.965c21.293-4.687,35.859-23.913,52.785-36.542
											C2113.867,1933.995,2120.537,1928.649,2126.834,1928.613z"/><path fill="#edad9a" d="M2125.847,1904.845c-15.993,1.143-27.812,13.568-40.39,22.142
											c-12.737,8.395-24.16,20.953-36.918,27.741c7.896-0.786,14.726-5.855,20.762-10.708
											C2087.68,1930.983,2104.204,1910.258,2125.847,1904.845z"/><path fill="#edad9a" d="M2113.908,1891.662c-29.086,3.729-48.618,30.128-72.901,43.632
											C2068.813,1928.7,2085.884,1896.607,2113.908,1891.662z"/><path fill="#f2b4a7" d="M2044.951,1980.481c-30.329-10.369-71.226-17.69-98.231,3.724
											C1976.274,1967.604,2013.102,1975.211,2044.951,1980.481z"/><path fill="#f2b4a7" d="M2039.082,1934.433c5.432,4.907,7.067,12.362,8.662,19.222
											c5.439,5.306,6.381,13.8,7.63,21.001c2.772,2.125,2.761,6.2,2.739,9.37c-0.714-3.246-1.834-6.763-4.657-8.443
											c-2.177-6.398-3.496-14.807-8.376-19.585c-2.932-6.111-2.635-14.682-7.612-20.036c-1.535-3.358-2.415-7.31-5.15-10.079
											C2035.473,1927.817,2037.526,1931.121,2039.082,1934.433z"/><g><path fill="#f9c4b9" d="M1247.679,2333.572c0.451,2.967,1.057,6.253,1.86,9.783
										c51.676,8.14,186.718,25.263,304.779,4.516c1.333-23.375,2.263-52.211,3.507-79.737
										c2.482-54.957,20.562-127.666,28.093-146.02c7.531-18.354,60.727-25.618,30.544-141.572
										c-15.465-59.415-50.872-165.115-97.333-190.87c-50.291-27.878-110.015-31.591-167.121-24.77
										c-17.751,2.12-37.337,5.668-58.005,11.359c-100.973,27.805-93.839,88.571-94.499,133.322
										c-0.66,44.752,20.649,146.14,34.022,204.411C1246.898,2172.265,1237.804,2268.628,1247.679,2333.572z"/><path fill="#f9c4b9" d="M1495.659,1724.567c0,0-7.331,33.348-3.192,59.855c4.139,26.506,3.05,55.199-35.621,63.593
											c-38.672,8.394-85.721-11.548-108.097-17.613c-22.817-6.184-13.763-46.011-9.596-57.575
											c4.167-11.564,21.964-48.832,29.677-138.87c0.189-27.907,34.599-48.432,67.236-30.159
											C1458.819,1616.537,1510.955,1635.916,1495.659,1724.567z"/><path fill="#f2b4a7" d="M1436.067,1603.798c-32.638-18.273-67.048,2.252-67.237,30.159
											c-0.746,8.702,12.391,18.964,11.479,26.705c26.198,54.667,24.115,80.604,110.912,102.036l4.439-38.131
											C1510.956,1635.916,1458.819,1616.537,1436.067,1603.798z"/><path fill="#534054" d="M1236.371,2154.741c2.81,20.349,0.853,183.813,2.559,197.034
										c1.706,13.221,6.542,14.811,6.542,14.811c233.567,34.235,313.283-5.774,313.283-5.774
										c11.478-15.274,5.581-106.274,11.978-133.143c6.398-26.868,23.715-107.26,23.715-107.26
										c22.177-20.898,40.942-37.957,35.825-75.914c-8.53-65.678-47.171-179.762-61.245-207.483
										c-14.074-27.721-29.427-45.633-37.104-47.766c-7.676-2.132-40.323-12.2-40.323-12.2
										c5.971,23.883-21.517,35.656-50.944,30.965c-29.427-4.691-98.445-43.102-98.445-43.102s-43.148,7.063-69.056,14.74
										c-25.908,7.677-60.454,31.026-70.05,56.295c-9.596,25.269-15.033,55.656-2.239,137.22
										C1213.661,2054.731,1230.614,2113.052,1236.371,2154.741z"/><path fill="#49374a" d="M1457.924,1830.544c-26.097,0-52.717-9.823-54.311-10.42
											c-1.861-0.698-2.803-2.771-2.105-4.631c0.696-1.861,2.772-2.805,4.631-2.108c0.53,0.199,53.369,19.681,80.16,3.595
											c8.472-5.087,13.315-13.057,14.807-24.365c0.26-1.971,2.066-3.361,4.038-3.098c1.97,0.26,3.357,2.068,3.097,4.038
											c-1.772,13.44-7.911,23.398-18.247,29.6C1480.874,1828.627,1469.449,1830.544,1457.924,1830.544z"/><path fill="#49374a" d="M1269.468,2305.502c-3.412-10.236,4.265-120.268,7.677-135.621
											c3.412-15.354,21.324-31.56,46.06-35.824c85.296,25.589,145.857-8.53,145.857-8.53
											c-57.149,17.912-150.121-0.853-151.827-30.707c-1.706-29.854,14.5-145.004,15.353-185.093
											c0.853-40.089-22.177-83.591-22.177-83.591c-12.271-16.517-55.099-16.826-109.69,16.517
											c-8.012,24.207-11.541,56.004,0.146,130.513c12.794,81.565,29.747,139.886,35.505,181.575
											c2.81,20.349,0.853,183.813,2.559,197.034c1.706,13.221,6.542,14.811,6.542,14.811
											c54.947,8.054,101.375,11.997,140.258,13.32C1319.168,2365.47,1272.563,2314.786,1269.468,2305.502z"/><path fill="#49374a" d="M1533.183,2115.817c19.984,6.955,40.768,2.283,61.208,4.249
											C1582.861,2132.912,1544.306,2124.976,1533.183,2115.817z"/><g><path fill="#f9c4b9" d="M1529.111,1734.697c-61.696,9.246-151.954-35.57-198.711-114.542
										c-46.79-79.004-48.436-227.405,83.381-254.189c0,0,138.364-28.232,162.22,125.564c4.837,31.26,8.325,59.459,10.3,84.664
										c0.889,11.353,1.481,22.113,1.711,32.214C1589.952,1686.425,1572.644,1728.214,1529.111,1734.697z"/><path fill="#ad4242" d="M1636.306,1585.698c-30.009-19.276-22.954-43.174-48.148-107.334
											c-25.194-64.16-53.665-101.983-79.885-114.434c-25.583-12.146-73.71-11.983-76.045-11.966
											c-6.764,1.74-13.67,2.404-19.685,1.522c0.025,0.011-75.55,5.599-114.174,47.494
											c-38.621,41.897-40.028,112.142-44.992,134.485c-4.964,22.343-21.561,30.08-32.297,24.556
											c-0.258,0.771-0.087,1.667,0.429,2.646c0.342,2.358,1.989,10.777,8.408,15.345c7.513,5.346,13.001,2.17,12.295,4.624
											c-5.443,18.925-24.351,27.311-23.467,30.104c1.982,6.268,18.023,11.628,18.023,11.628s-18.648,7.015-17.736,13.434
											c0.502,1.84,1.393,3.555,2.557,5.16c1.251,3.224,3.291,7.424,6.208,10.197c5.298,5.037,10.804,4.624,14.197,5.649
											c3.397,1.027,5.815,4.833,6.331,9.101c0.516,4.264-0.146,13.765,10.724,14.188c7.342,9.766,15.201,15.248,22.198,18.245
											c1.884,2.549,5.397,5.929,11.793,8.435c11.681,4.571,17.848-0.884,17.848-0.884s25.147,6.759,28.82-11.932
											c23.587,4.308,37.05-0.836,44.537-10.552c10.259-6.295,16.234-9.688,15.135-21.023
											c-0.993-10.313-3.88-15.066-6.728-22.441c-0.778-13.899-2.884-26.865-2.146-33.962
											c1.324-12.706,7.935-23.654,19.729-36.322c4.575-1.724,8.826-4.171,12.088-8.661c2.586-3.566,4.444-6.411,5.862-8.795
											c5.131-4.675,10.768-9.668,16.928-15.097c4.277-3.769,7.928-8.061,11.052-12.677c4.273-2.446,8.281-5.357,10.983-9.435
											c8.259-12.464,8.375-25.825,5.968-42.532c1.706-15.963,0.709-27.92,0.709-27.92c30.184,19.489,73.75-8.211,82.449,6.924
											c36.41,67.759,31.573,181.933,31.573,181.933c39.733-4.553,37.533-33.502,37.533-33.502
											C1635.444,1595.711,1637.997,1590.794,1636.306,1585.698L1636.306,1585.698z"/><path fill="#993a3a" d="M1339.708,1695.96c10.326-3.825,15.712-16.995,12.501-27.241
												C1347.93,1677.927,1344.583,1686.944,1339.708,1695.96z"/><path fill="#993a3a" d="M1259.509,1661.516c14.51,6.16,32.206-3.146,38.86-16.677
												C1286.396,1652.707,1274.111,1659.961,1259.509,1661.516z"/><path fill="#993a3a" d="M1236.769,1624.365c9.031,2.557,20.368-0.602,25.424-8.826
												C1253.166,1617.508,1244.782,1619.651,1236.769,1624.365z"/><path fill="#993a3a" d="M1415.423,1424c-33.749,6.367-73.591,22.866-84.372,58.591
												c-4.487,16.613-7.229,33.663-9.064,50.741c-1.678,11.733-1.324,24.432-7.327,34.978
												c9.51-13.246,9.29-30.971,12.855-46.347c2.872-14.578,5.514-29.37,10.456-43.406
												C1351.535,1448.117,1385.637,1434.031,1415.423,1424z"/><path fill="#993a3a" d="M1332.128,1551.277c-2.901,12.695-13.283,21.755-24.662,27.009
												c-11.849,5.943-23.432,13.213-32.222,23.272c12.057-7.19,24.308-13.416,36.775-19.71
												C1323.248,1576.193,1333.336,1564.481,1332.128,1551.277z"/><path fill="#993a3a" d="M1333.913,1615.051c-1.896,14.757,0.563,30.146-3.363,44.618
												C1341.46,1648.097,1339.376,1628.797,1333.913,1615.051z"/><path fill="#993a3a" d="M1388.232,1543.307c-27,23.369-36.194,63.589-27.853,97.573
												C1359.722,1606.442,1367.358,1571.27,1388.232,1543.307z"/><path fill="#993a3a" d="M1417.969,1380.468c-41.154-3.609-91.818,1.029-118.326,36.815
												c-23.618,30.37-25.807,69.845-24.21,106.77c-0.098,11.1-0.676,22.941-7.081,32.404
												c17.175-22.391,5.437-69.074,17.102-99.056c4.774-15.838,12.801-30.879,23.491-43.51
												C1336.605,1385.201,1380.059,1380.866,1417.969,1380.468z"/><path fill="#993a3a" d="M1438.658,1413.423c2.936,44.325-10.565,92.529-49.194,118.067
												C1433.244,1512.057,1449.488,1457.498,1438.658,1413.423z"/><path fill="#993a3a" d="M1473.826,1446.541c-3.609-27.729-16.61-76.137-41.71-91.123
												C1452.051,1376.001,1462.938,1420.624,1473.826,1446.541z"/><path fill="#f9c4b9" d="M1417.928,1613.441c0,0-17.283-46.605-45.261-36.757
											c-27.978,9.848,3.154,56.211,13.697,67.673C1398.902,1657.991,1436.031,1662.586,1417.928,1613.441z"/><path fill="#edad9a" d="M1384.75,1594.977c-1.15-0.246-2.291,0.478-2.542,1.628
											c-0.252,1.152,0.478,2.289,1.63,2.541c7.508,1.642,12.067,7.388,14.836,13.621c-4.128-2.386-10.375-4.81-16.836-2.853
											c-1.129,0.342-1.766,1.534-1.424,2.662c0.342,1.129,1.534,1.766,2.664,1.424c8.63-2.616,17.516,5.287,17.604,5.367
											c0.108,0.097,0.237,0.148,0.357,0.219c1.744,6.586,1.897,12.21,1.899,12.337c0.022,1.156,0.962,2.082,2.113,2.094
											c1.241-0.022,2.178-0.993,2.157-2.17C1407.186,1630.536,1406.384,1599.708,1384.75,1594.977z"/></g></g><g><path fill="#f9c4b9" d="M1211.249,1811.567c21.146-19.8,54.513-17.934,72.762,4.559
								c13.782,16.988,25.044,47.677,15.756,102.636c-18.811,111.306-64.641,248.043-82.588,295.259
								c-17.947,47.216-47.366,123.479-87.457,118.892c-40.091-4.588-51.32-39.277-47.906-76.03
								c3.414-36.754,52.006-208.073,64.591-286.232C1155.583,1913.661,1177.788,1842.9,1211.249,1811.567z"/><path fill="#534054" d="M1274.586,1794.577c0,0,58.54,5.595,49.472,102.356
								c-9.068,96.761-65.678,256.742-65.678,256.742s-83.391,15.305-154.386-46.06c0,0,47.64-198.255,74.475-257.055
								C1205.302,1791.761,1250.716,1784.007,1274.586,1794.577z"/></g></g><g><path fill="#efe8e6" d="M1516.679,2534.089c-33.337-11.421-140.974-31.278-191.669-38.878
						c-29.689-4.449-59.355-6.759-86.901-7.769c36.529,15.462,105.031,45.818,120.068,62.128
						c20.729,22.487,76.891,39.56,93.309,42.336c16.418,2.776,26.273,44.333,51.012,48.17c16.21,2.518,29.396-54.917,36.56-94.817
						C1529.473,2539.76,1521.669,2535.797,1516.679,2534.089z"/><path fill="#fff" d="M1103.993,2491.602c0,0,110.509-12.958,221.019,3.61c50.694,7.6,158.327,27.456,191.667,38.876
							s190.316,121.838,190.252,139.045c-0.064,17.207,38.37,31.929,0,39.689c-38.37,7.76-46.716-3.728-75.81,0
							c-29.094,3.728-110.109,85.674-196.618,91.073c-86.51,5.398-217.514,20.894-271.995-24.844
							C1108.025,2733.312,996.754,2527.892,1103.993,2491.602z"/><path fill="#efe8e6" d="M1594.134,2673.131c-40.154-2.086-75.773,14.185-119.127,26.281
							c-43.346,12.095-97.782,4.033-127.934-11.097c-30.16-15.13-39.406-64.51-73.583-108.751
							c-34.177-44.241-102.686-84.792-102.686-84.792s-55.106,13.46-110.845,53.283c-9.362,75.457,62.155,197.087,102.548,230.994
							c54.482,45.737,185.485,30.245,272,24.846c86.508-5.398,167.525-87.348,196.613-91.073c29.096-3.729,37.439,7.758,75.812,0
							c32.89-6.651,9.37-18.419,2.013-32.481c-0.679-0.158-1.373-0.301-2.013-0.482
							C1687.844,2674.423,1634.288,2675.217,1594.134,2673.131z"/><path fill="#dbd6d5" d="M1210.895,2762.92c39.224-16.063,79.387-29.924,120.866-39.146
							c9.082-2.039,18.385-3.648,27.652-4.732c4.586-0.579,11.499-0.973,16.119-1.115c27.737-0.702,55.594,0.045,83.239-0.437
							c23.577-0.244,47.221-1.235,70.557-4.715c44.427-6.673,85.064-29.348,129.964-34.013c15.816-1.953,31.951-1.332,47.638,1.097
							c0,0-7.918-0.428-7.918-0.428l-3.95-0.205l-3.957,0.046c-4.371-0.089-11.288,0.237-15.765,0.625
							c-50.714,3.623-95.098,31.981-144.812,40.282c-52.506,8.49-105.934,4.351-158.798,5.097
							c-18.125,0.612-36.475,3.916-54.176,7.79C1281.471,2741.016,1246.093,2751.634,1210.895,2762.92L1210.895,2762.92z"/></g><g><path fill="#f9c4b9" d="M1159.436,2230.441c0,0,46.606,37.625,108.504,100.155
						c47.48,47.964,113.99,115.331,151.603,156.073c17.903,19.393,22.804,34.282,16.651,44.343
						c-18.306,29.929-78.539-16.42-120.992-41.82c-37.046-22.164-138.109-89.939-173.678-119.719
						c-36.677-30.707-61.159-63.491-60.134-97.664C1082.416,2237.636,1117.411,2201.559,1159.436,2230.441z"/><path fill="#f9c4b9" d="M1412.934,2479.293c0,0,93.399,23.883,105.341,27.295
							c11.942,3.411,28.574,20.898,32.412,34.971c3.839,14.074,7.677,72.928,8.103,84.87c0.427,11.941-10.662,9.809-10.662,9.809
							s-0.853,13.221-8.53,16.206c-7.677,2.986-12.368-8.53-12.368-8.53s-4.691,7.25-8.956,7.677
							c-4.265,0.426-15.78-11.515-15.78-11.515s-6.824,6.397-16.206-8.103c-9.383-14.5-23.457-50.325-25.589-52.457
							c-2.132-2.132-42.222-9.809-58.428-23.03c-16.207-13.221-32.413-34.119-42.222-44.781
							C1350.242,2501.044,1380.522,2458.396,1412.934,2479.293z"/><path fill="#edad9a" d="M1548.129,2636.239c-2.413-10.887-13.155-60.486-15.731-70.225
								c-3.073-13.509-5.197-28.688-15.719-38.37c9.677,2.697,15.235,14.073,18.218,23.045
								C1540.644,2578.415,1546.074,2609.623,1548.129,2636.239z"/><path fill="#edad9a" d="M1527.231,2643.915c-4.959-15.599-12.048-38.321-16.778-54.254
								c-6.389-16.872-6.947-37.891-22.155-49.762c19.138,3.989,22.567,31.611,26.588,48.509
								C1517.995,2604.278,1525.925,2629.554,1527.231,2643.915z"/><path fill="#edad9a" d="M1502.495,2640.077c-5.245-17.889-10.981-39.163-16.813-56.679
								c-2.135-11.542-9.322-19.993-18.83-26.874c18.315,1.899,24.499,20.226,26.859,36.956
								C1496.408,2608.484,1501.931,2626.346,1502.495,2640.077z"/></g></g><g><path fill="#c1b9b7" d="M822.868,2322.55l5.467,33.508c0,0,178.394,54.511,247.636,79.156
						c69.242,24.645,165.476,71.589,192.468,168.996s126.747,587.966,139.657,644.297c12.909,56.332-159.608,21.125-337.992-93.886
						c-178.385-115.011-231.196-166.649-272.271-272.272c-41.076-105.622-122.053-415.448-122.053-471.781
						S766.926,2326.07,822.868,2322.55z"/><path fill="#cec9c8" d="M822.868,2322.55l5.467,33.508c0,0,178.394,54.511,247.636,79.156
							c69.242,24.645,165.476,71.589,192.468,168.996c1.435,5.18,3.079,11.482,4.902,18.762l-206.769-0.03
							c0,0-302.774-124.354-390.793-212.373C675.778,2354.236,766.926,2326.07,822.868,2322.55z"/><path fill="#d6d4d4" d="M1092.401,2563.134c84.498-59.853,140.213-28.215,140.214-28.215
							c15.819,19.695,28.426,42.594,35.823,69.291c26.992,97.407,126.747,587.966,139.657,644.297
							c8.227,35.9-58.861,34.618-154.78-0.802C1125.374,3015.15,1011.095,2620.726,1092.401,2563.134z"/><path fill="#996553" d="M701.851,2549.568l4.173,17.342c0,0,297.476,135.881,336.254,153.093
					c22.844,9.389,33.376,37.064,38.355,60.193c4.978,23.128,82.058,306.708,172.682,467.509
					c90.624,160.801,93.754,368.916,93.754,368.916l-34.425-18.777c0,0,5.891-115.794-39.303-215.94
					c-45.195-100.146-176.716-390.176-208.219-489.776c-31.502-99.599-46.135-137.018-61.782-146.226
					c-15.648-9.208-325.474-140.65-340.078-154.211C648.655,2578.13,660.116,2550.216,701.851,2549.568z"/></g></g><g><path fill="#303c72" d="M4426.872,3015.941H3182.284c-62.804,0-113.716-50.913-113.716-113.716V590.248
				c0-62.804,50.913-113.716,113.716-113.716h1244.588c62.804,0,113.716,50.913,113.716,113.716v2311.977
				C4540.588,2965.029,4489.676,3015.941,4426.872,3015.941z"/><path fill="#8ccbff" d="M4383.835,2949.402H3225.321c-52.132,0-94.393-42.261-94.393-94.393V637.464
						c0-52.132,42.261-94.393,94.393-94.393h1158.514c52.132,0,94.394,42.261,94.394,94.393v2217.544
						C4478.229,2907.14,4435.967,2949.402,4383.835,2949.402z"/><path fill="#6eb8f5" d="M4383.835,543.071H3225.322c-52.132,0-94.395,42.261-94.395,94.393v115.987h1347.302V637.464
							C4478.229,585.332,4435.968,543.071,4383.835,543.071z"/><path fill="#fff" d="M4388.842,643.607h-129.599c-7.935,0-14.367-6.432-14.367-14.367v-2.279
							c0-7.935,6.432-14.367,14.367-14.367h129.599c7.935,0,14.368,6.432,14.368,14.367v2.279
							C4403.21,637.175,4396.777,643.607,4388.842,643.607z"/><path fill="#fff" d="M4388.842,710.719h-82.099c-7.935,0-14.367-6.432-14.367-14.367v-2.279
							c0-7.935,6.432-14.367,14.367-14.367h82.099c7.935,0,14.368,6.432,14.368,14.367v2.279
							C4403.21,704.287,4396.777,710.719,4388.842,710.719z"/><path fill="#fff" d="M4383.835,2953.437H3225.321c-54.274,0-98.429-44.155-98.429-98.429V637.464
							c0-54.273,44.155-98.428,98.429-98.428h1158.515c54.273,0,98.428,44.155,98.428,98.428v2217.544
							C4482.263,2909.282,4438.108,2953.437,4383.835,2953.437z M3225.321,547.106c-49.823,0-90.358,40.534-90.358,90.357v2217.544
							c0,49.823,40.535,90.358,90.358,90.358h1158.515c49.823,0,90.357-40.535,90.357-90.358V637.464
							c0-49.824-40.534-90.357-90.357-90.357H3225.321z"/><path fill="#303c72" d="M4065.765,590.208h-522.374c-32.031,0-57.997-25.966-57.997-57.997v-12.114h638.368v12.114
							C4123.762,564.241,4097.795,590.208,4065.765,590.208z"/><path fill="#c9e6ff" d="M4327.944,1331.328H3316.439c-27.721,0-50.194-22.473-50.194-50.194v-264.71
								c0-27.721,22.473-50.194,50.194-50.194h1011.505c27.721,0,50.194,22.473,50.194,50.194v264.71
								C4378.138,1308.855,4355.666,1331.328,4327.944,1331.328z"/><path fill="#b5ddff" d="M4266.16,1074.478h-905.417c-8.227,0-14.896-6.669-14.896-14.895v-6.339
								c0-8.227,6.669-14.896,14.896-14.896h905.417c8.227,0,14.896,6.669,14.896,14.896v6.339
								C4281.056,1067.809,4274.387,1074.478,4266.16,1074.478z"/><path fill="#b5ddff" d="M4266.16,1166.844h-905.417c-8.227,0-14.896-6.669-14.896-14.896v-6.339
								c0-8.227,6.669-14.896,14.896-14.896h905.417c8.227,0,14.896,6.669,14.896,14.896v6.339
								C4281.056,1160.175,4274.387,1166.844,4266.16,1166.844z"/><path fill="#b5ddff" d="M4266.16,1259.21h-905.417c-8.227,0-14.896-6.669-14.896-14.896v-6.339
								c0-8.227,6.669-14.896,14.896-14.896h905.417c8.227,0,14.896,6.669,14.896,14.896v6.339
								C4281.056,1252.541,4274.387,1259.21,4266.16,1259.21z"/><path fill="#c9e6ff" d="M4327.944,2230.592H3316.439c-27.721,0-50.194-22.473-50.194-50.194v-264.709
								c0-27.721,22.473-50.194,50.194-50.194h1011.505c27.721,0,50.194,22.473,50.194,50.194v264.709
								C4378.138,2208.119,4355.666,2230.592,4327.944,2230.592z"/><path fill="#b5ddff" d="M4257.286,1973.714h-905.417c-8.227,0-14.896-6.669-14.896-14.896v-6.339
								c0-8.227,6.669-14.895,14.896-14.895h905.417c8.227,0,14.896,6.669,14.896,14.895v6.339
								C4272.182,1967.046,4265.513,1973.714,4257.286,1973.714z"/><path fill="#b5ddff" d="M4257.286,2066.081h-905.417c-8.227,0-14.896-6.669-14.896-14.896v-6.339
								c0-8.226,6.669-14.895,14.896-14.895h905.417c8.227,0,14.896,6.669,14.896,14.895v6.339
								C4272.182,2059.412,4265.513,2066.081,4257.286,2066.081z"/><path fill="#b5ddff" d="M4257.286,2158.447h-905.417c-8.227,0-14.896-6.669-14.896-14.896v-6.339
								c0-8.227,6.669-14.896,14.896-14.896h905.417c8.227,0,14.896,6.669,14.896,14.896v6.339
								C4272.182,2151.778,4265.513,2158.447,4257.286,2158.447z"/><g><path fill="#c9e6ff" d="M4584.139,1774.642H3572.634c-27.721,0-50.194-22.473-50.194-50.194v-264.71
								c0-27.721,22.472-50.194,50.194-50.194h1011.505c27.722,0,50.194,22.473,50.194,50.194v264.71
								C4634.333,1752.169,4611.861,1774.642,4584.139,1774.642z"/><path fill="#b5ddff" d="M4531.095,1517.792h-905.417c-8.227,0-14.896-6.669-14.896-14.896v-6.339
								c0-8.227,6.669-14.896,14.896-14.896h905.417c8.227,0,14.896,6.669,14.896,14.896v6.339
								C4545.991,1511.123,4539.322,1517.792,4531.095,1517.792z"/><path fill="#b5ddff" d="M4531.095,1610.158h-905.417c-8.227,0-14.896-6.669-14.896-14.896v-6.339
								c0-8.227,6.669-14.896,14.896-14.896h905.417c8.227,0,14.896,6.669,14.896,14.896v6.339
								C4545.991,1603.489,4539.322,1610.158,4531.095,1610.158z"/><path fill="#b5ddff" d="M4531.095,1702.524h-905.417c-8.227,0-14.896-6.669-14.896-14.896v-6.339
								c0-8.227,6.669-14.896,14.896-14.896h905.417c8.227,0,14.896,6.669,14.896,14.896v6.339
								C4545.991,1695.855,4539.322,1702.524,4531.095,1702.524z"/></g><g><path fill="#fff" d="M1797.654,1392.691c0,0-82.808,54.176-103.272,12.924
						c-20.464-41.252,65.06-124.933,105.998-87.29C1841.318,1355.969,1797.654,1392.691,1797.654,1392.691z"/><path fill="#fff" d="M1718.043,1531.892c0,0-60.423,27.818-69.943-1.636c-9.52-29.454,55.63-76.621,79.121-47.538
						S1718.043,1531.892,1718.043,1531.892z"/><path fill="#80b1e0" d="M2976.832,703.121c0,0-63.165-543.171-603.968-213.762c0,0-289.6-196.748-516.698,44.349
						s-111.937,486.256-20.32,557.165c0,0-74.97,433.876,347.086,331.76c0,0,128.681,198.452,333.184,43.487
						c0,0,331.199,112.223,392.083-200.35c0,0,256.127-18.535,297.441-258.117S2976.832,703.121,2976.832,703.121z"/><path fill="#5066ad" d="M2312.735,1192.882c-90.857-54.767-157.928-149.491-175.427-254.423
						c-4.101-24.592-4.911-45.862-2.476-65.026c4.29-33.766,18.75-63.762,37.751-89.948c-19.106-30.679-29.967-63.145-35.866-86.086
						c-7.85-30.526-15.694-86.378,19.966-117.471c27.735-24.182,69-21.098,97.627-16.675c19.573,3.025,38.657,7.181,56.943,12.371
						c37.352-9.245,78.688,0.305,109.179,17.752c8.525,4.878,16.599,10.356,24.284,16.308c34.585-5.725,67.394-3.964,98.282,5.328
						c41.946,12.618,82.85,40.761,121.572,83.649c2.758,3.054,5.476,6.148,8.154,9.279c6.689,1.968,13.359,4.05,19.998,6.244
						c29.281,9.675,66.682,24.239,96.249,51.183c35.464,32.324,57.528,80.549,62.128,135.791
						c3.659,43.931-3.443,92.309-21.711,147.9c-21.581,65.673-50.314,112.528-87.839,143.243
						c-49.21,40.278-120.107,56.344-189.646,42.976c-1.678-0.322-3.354-0.661-5.032-1.017c-14.94,8.063-32.725,12.603-52.81,13.362
						c-23.932,0.906-50.151-3.563-75.509-12.724c-9.921-1.959-20.27-4.653-31.145-8.102
						C2361.234,1218.5,2336.183,1207.016,2312.735,1192.882z M2176.455,802.066c-14.184,21.924-24.628,46.321-28.03,73.095
						c-2.264,17.82-1.479,37.787,2.399,61.045c18.148,108.823,91.708,206.252,189.597,256.443
						c-73.398-52.166-128.982-130.443-153.633-219.201c-14.851-53.471-18.543-111.886-10.679-168.928
						C2176.222,803.701,2176.338,802.884,2176.455,802.066z M2189.766,807.528c-7.379,54.666-4.187,110.353,10.227,162.252
						c29.855,107.496,106.64,199.043,205.389,244.891c5.554,2.578,11.242,4.921,17.003,7.014
						c12.492,2.397,24.208,3.535,35.366,3.452c8.216-0.061,16.443-0.854,24.602-2.327c-28.99-8.999-56.847-22.911-83.232-41.566
						c-1.466,1.548-2.959,3.086-4.466,4.598c-2.671,2.68-7.009,2.689-9.69,0.016c-2.68-2.671-2.687-7.01-0.016-9.69
						c1.031-1.035,2.051-2.077,3.062-3.13c-2.031-1.565-4.051-3.157-6.064-4.78c-13.796-11.122-26.945-23.511-39.252-36.934
						c-2.233-1.427-4.405-2.955-6.518-4.585c-16.062-12.394-26.298-29.119-32.785-46.206c-4.405-6.781-8.608-13.709-12.591-20.764
						c-23.013-40.763-34.585-77.68-35.378-112.861c-0.625-27.724,5.418-55.377,18.002-82.538
						c-8.688-2.705-17.22-5.967-25.499-10.005c-4.314-2.104-8.487-4.381-12.5-6.8
						C2217.351,836.673,2202.292,822.769,2189.766,807.528z M2510.175,1229.866c-4.343,1.474-8.722,2.771-13.121,3.886
						c6.048-0.385,12.613-1.216,19.336-2.75C2514.309,1230.651,2512.241,1230.273,2510.175,1229.866z M2408.465,1170.808
						c13.354,9.31,27.219,17.46,41.439,24.326c-0.046-0.027-0.093-0.056-0.138-0.083c-13.258-7.992-26.29-16.995-39.026-26.97
						C2409.989,1168.995,2409.23,1169.903,2408.465,1170.808z M2375.049,1144.112c7.232,6.572,14.678,12.777,22.316,18.6
						c0.918-1.076,1.832-2.163,2.731-3.254c-5.347-4.477-10.64-9.131-15.864-13.952
						C2381.104,1145.165,2378.044,1144.701,2375.049,1144.112z M2351.699,1120.792c4.962,2.951,10.128,5.356,15.471,7.154
						c-8.81-10.944-17.543-26.488-13.953-43.439c1.212-5.722,3.611-10.713,6.734-15.054c-8.942-9.622-17.27-19.98-24.661-31.144
						c-11.844-17.89-20.609-37.518-25.848-57.7c-3.408,18.419-4.214,37.672-2.073,56.942c1.237,11.139,3.673,24.082,8.321,36.762
						C2326.597,1090.964,2338.671,1106.51,2351.699,1120.792z M2419.164,1157.272c31.479,24.665,64.795,43.148,98.651,54.744
						c16.745-7.217,32.708-17.209,47.166-29.457c-11.373,1.677-22.813,1.484-33.883-0.774c-13.754-2.806-26.503-8.53-38.464-15.609
						c-5.427,6.102-11.504,8.114-16.687,8.413c-13.394,0.775-22.866-9.913-29.619-19.313c-3.345-4.655-6.635-9.354-9.867-14.094
						c-2.476,0.601-4.932,1.149-7.364,1.643C2425.946,1147.749,2422.635,1152.568,2419.164,1157.272z M2405.383,1145.978
						c1.045,0.895,2.087,1.779,3.137,2.66c0.745-1.015,1.484-2.037,2.214-3.062
						C2408.933,1145.743,2407.15,1145.877,2405.383,1145.978z M2369.745,1079.478c-1.433,2.398-2.518,5.017-3.121,7.869
						c-2.687,12.686,4.712,27.105,22.618,44.081c0.338,0.32,0.677,0.64,1.015,0.959c9.931,0.664,20.143-0.064,30.353-1.794
						c1.428-2.345,2.822-4.715,4.176-7.105c-0.081-0.127-0.166-0.26-0.247-0.387
						C2405.944,1110.697,2386.998,1096.304,2369.745,1079.478z M2566.891,1198.858c-1.322,1.033-2.654,2.048-3.998,3.046
						c-8.197,6.087-16.666,11.454-25.336,16.075c2.349,0.614,4.697,1.195,7.048,1.741c7.672-4.744,14.877-10.981,21.025-19.138
						C2566.057,1200.015,2566.477,1199.441,2566.891,1198.858z M2593.013,1174.668c-3.65,13.058-9.137,24.472-16.44,34.162
						c-3.215,4.267-6.759,8.198-10.615,11.787c74.429-2.652,144.693-40.443,179.029-100.362
						c33.402-58.289,30.898-128.284,22.916-176.738c-13.419-81.459-49.79-160.237-102.966-223.568
						c-46.303-13.288-93.784-21.049-141.818-23.191c0.914,1.262,1.825,2.523,2.734,3.783c0.821,1.139,1.64,2.279,2.461,3.423
						c8.251,1.351,16.278,3.43,24.068,6.237c67.613,24.358,99.709,97.689,112.822,139.23
						c15.544,49.242,22.514,100.374,20.719,151.977c-1.861,53.514-13.693,95.006-36.173,126.848
						c-14.894,21.098-34.906,37.041-56.622,46.289C2593.089,1174.585,2593.051,1174.626,2593.013,1174.668z M2452.889,1140.846
						c1.51,2.154,3.032,4.298,4.567,6.434c4.707,6.551,10.973,14.019,17.699,13.63c2.111-0.123,3.974-0.972,5.614-2.314
						c-4.191-2.86-8.283-5.827-12.295-8.833c-2.362-1.274-4.604-2.528-6.716-3.744
						C2458.85,1144.345,2455.889,1142.621,2452.889,1140.846z M2284.707,873.245c-10.703,24.222-16.133,49.066-15.586,73.356
						c0.627,27.79,8.583,56.972,24.247,88.744c-2.477-26.639,0.18-53.509,7.733-78.849c-11.571-27.962-17.085-55.626-16.417-82.492
						C2284.692,873.751,2284.699,873.498,2284.707,873.245z M2467.087,1131.449c2.3,1.792,4.61,3.57,6.931,5.331
						c0.581,0.441,1.164,0.882,1.749,1.322c3.734,1.979,8.141,4.191,13.051,6.435c0.843-2.632,1.482-5.207,1.951-7.4
						c1.27-5.942,2.492-11.898,3.666-17.86C2485.123,1123.929,2475.997,1127.989,2467.087,1131.449z M2509.952,1111.12
						c-1.803,9.653-3.73,19.28-5.783,28.882c-0.781,3.653-1.68,6.933-2.677,9.88c25.343,9.773,58.083,16.789,82.053,2.034
						c1.049-8.656,1.405-17.971,1.06-27.923c-0.703-20.301-4.153-40.371-9.985-59.752c-1.885,1.853-3.8,3.67-5.752,5.458
						c-0.034,0.772-0.199,1.551-0.51,2.307c-1.167,2.836-4.017,4.471-6.919,4.222
						C2545.247,1089.89,2527.369,1101.485,2509.952,1111.12z M2445.286,1113.733c3.089,2.616,6.201,5.206,9.334,7.766
						c11.902-4.233,23.319-9.298,33.75-14.511c3.063-1.53,6.162-3.125,9.288-4.787c2.678-14.817,5.059-29.686,7.141-44.6
						c-13.277-3.225-25.968-5.336-38.099-6.335C2461.993,1072.841,2454.814,1093.863,2445.286,1113.733z M2688.284,727.151
						c47.744,62.23,80.435,137.022,93.139,214.139c8.344,50.649,10.859,123.994-24.547,185.779
						c-22.973,40.09-60.052,71.127-107.227,89.756c-7.724,3.05-15.607,5.707-23.604,7.969
						c40.193-4.426,77.633-19.203,106.823-43.095c35.445-29.012,62.758-73.797,83.499-136.916
						c17.683-53.812,24.577-100.42,21.073-142.485c-4.25-51.033-25.282-97.25-57.703-126.8
						c-27.653-25.202-63.327-39.052-91.317-48.3C2688.375,727.181,2688.33,727.167,2688.284,727.151z M2422.575,1093.63
						c3.952,3.655,7.946,7.264,11.982,10.826c7.972-17.215,14.108-35.314,18.319-53.85c-17.874-0.214-34.489,2.16-49.971,7.106
						C2409.115,1069.88,2415.673,1081.858,2422.575,1093.63z M2359.22,1047.74c3.289,4.053,6.709,7.986,10.233,11.801
						C2365.977,1055.569,2362.545,1051.653,2359.22,1047.74z M2320.041,964.922c13.821,28.383,34.212,57.435,61.09,86.977
						c0.962-0.512,1.916-0.996,2.86-1.456c-20.898-43.16-37.5-88.444-49.359-134.803c-6.613,10.391-12.183,21.694-16.591,33.625
						C2318.438,954.458,2319.106,959.687,2320.041,964.922z M2345.133,901.003c11.826,49.694,29.219,98.243,51.598,144.31
						c18.221-6.098,37.789-8.892,58.885-8.367c7.518-43.133,4.704-88.04-9.519-129.378c-16.718-8.877-34.429-15.81-52.855-20.443
						c-9.433-2.372-19.16-4.232-28.919-5.846C2357.379,887.16,2350.966,893.776,2345.133,901.003z M2518.138,1061.158
						c-1.527,10.82-3.207,21.605-5.044,32.377c11.382-6.751,22.777-14.366,33.506-22.852
						C2536.829,1066.999,2527.35,1063.826,2518.138,1061.158z M2585.379,1052.821c7.687,23.093,12.098,46.93,12.921,70.698
						c0.175,5.052,0.18,9.964,0.015,14.73c6.878-9.367,11.589-21.971,14.669-39.089c5.437-30.215,4.512-60.12-0.827-88.99
						C2605.831,1025.802,2596.526,1040.003,2585.379,1052.821z M2540.173,720.661c36.951,52.652,72.4,109.78,93.621,172.821
						c26.437,78.537,26.076,156.633-1.015,219.903c-4.549,10.625-10.041,20.952-16.341,30.81
						c8.64-7.197,16.139-15.377,22.116-23.843c20.893-29.595,31.908-68.658,33.673-119.422
						c1.741-50.041-5.019-99.625-20.092-147.375c-12.35-39.126-42.337-108.098-104.4-130.463
						C2545.25,722.197,2542.73,721.387,2540.173,720.661z M2463.613,917.804c10.786,38.838,12.43,80.075,5.705,119.931
						c11.952,1.066,24.375,3.136,37.303,6.212c3.547-27.887,6.052-55.914,7.506-83.987
						C2499.081,943.867,2482.089,929.626,2463.613,917.804z M2298.53,870.759c-0.067,1.196-0.115,2.392-0.144,3.586
						c-0.402,16.154,1.634,32.628,6.087,49.373c1.624-17.273,6.253-33.605,13.777-48.309c0.168-0.328,0.338-0.657,0.509-0.983
						C2312.006,873.341,2305.251,872.15,2298.53,870.759z M2526.995,974.761c-1.559,24.288-3.897,48.536-7.005,72.675
						c12.39,3.51,25.233,7.9,38.544,13.167c3.886-3.513,7.631-7.15,11.21-10.925
						C2559.777,1022.669,2545.176,997.261,2526.995,974.761z M2327.926,886.933c-3.697,8.306-6.387,17.137-8.093,26.321
						c3.23-5.466,6.711-10.696,10.431-15.673C2329.458,894.038,2328.677,890.485,2327.926,886.933z M2619.817,982.313
						c8.829,32.408,12.801,66.469,9.208,101.207c16.535-55.349,13.805-120.24-8.219-185.667
						c-22.253-66.108-60.863-125.999-100.137-181.026c-7.285-0.836-14.784-1.07-22.442-0.713
						c14.173,29.326,21.836,60.766,26.016,91.831c1.48,1.802,2.93,3.594,4.347,5.367c4.854,6.068,9.754,12.413,14.648,19.02
						c14.271,9.767,27.438,21.596,38.926,35.204c27.497,32.569,41.238,70.01,38.69,105.426
						C2620.628,976.126,2620.28,979.244,2619.817,982.313z M2192.695,788.909c15.366,21.253,35.347,40.515,61.236,53.14
						c8.335,4.064,16.913,7.283,25.71,9.924c2.834-5.25,5.916-10.48,9.242-15.685c1.375-2.152,2.792-4.297,4.247-6.43
						c6.558-18.318,16.693-35.604,29.603-50.226c3.441-15.571,9.582-30.636,19.663-44.061
						c23.142-30.817,62.313-47.927,119.432-52.07c-15.906-20.245-34.853-36.82-55.097-50.37
						c-42.995,13.96-88.758,39.132-137.029,75.44c-23.688,17.818-51.542,40.711-74.695,68.444
						C2194.18,780.97,2193.409,784.936,2192.695,788.909z M2528.1,954.813c3.302,3.676,6.513,7.444,9.636,11.31
						c17.802,22.036,32.015,46.359,42.199,71.828c12.792-16.159,22.223-34.443,25.872-54.904
						c-14.936-52.898-43.304-101.378-72.217-140.713c-2.06-1.373-4.14-2.696-6.245-3.975c0.975,13.421,1.469,26.609,1.739,39.358
						C2529.627,903.412,2529.298,929.134,2528.1,954.813z M2339.992,877.603c0.445,2.21,0.904,4.431,1.371,6.638
						c1.791-1.934,3.62-3.814,5.493-5.645c-2.238-0.326-4.47-0.648-6.692-0.967C2340.107,877.619,2340.049,877.611,2339.992,877.603
						z M2305.26,836.602c-2.28,6.727-4.027,13.594-5.194,20.505c7.526,1.582,15.189,2.907,22.976,4.128
						c-2.161-13.242-3.866-27.9-4.011-42.956C2314.099,824.286,2309.506,830.399,2305.26,836.602z M2288.658,583.9
						c-13.3-3.143-25.638-5.434-36.442-7.104c-25.923-4.005-63.097-6.968-86.528,13.461c-30.117,26.259-22.764,76.26-15.7,103.728
						c5.36,20.843,14.996,49.961,31.531,77.85c0.173-0.213,0.348-0.429,0.521-0.642c9.76-44.718,26.532-88.065,49.253-126.951
						c9.376-16.046,22.545-36.277,41.319-50.414C2277.744,589.965,2283.114,586.668,2288.658,583.9z M2512.96,830.518
						c-20.983-10.181-43.508-15.813-65.814-16.019c-41.513-0.384-81.506,18.914-105.404,49.511c0.125,0.018,0.251,0.036,0.376,0.054
						c6.05,0.872,12.171,1.753,18.312,2.711c3.025-2.336,6.131-4.553,9.317-6.646c17.027-11.187,32.578-15.077,46.22-11.561
						c16.067,4.139,28.627,17.875,38.393,41.992c1.003,2.478,1.964,4.966,2.886,7.472c20.745,11.553,40.203,26.06,57.698,43.086
						c0.737-21.032,0.884-42.076,0.438-63.112C2515.057,862.692,2514.405,846.724,2512.96,830.518z M2333.259,802.23
						c-1.288,16.433-0.083,33.011,2.001,48.139c26.825-30.822,68.705-49.973,112.012-49.573c21.629,0.2,43.425,5.064,64.02,13.917
						c-0.045-0.361-0.089-0.719-0.134-1.081c-22.549-26.973-52.215-55.663-89.051-61.632c-9.084-1.472-18.3-1.396-27.421,0.159
						c-5.244,3.303-10.479,6.825-15.699,10.566C2361.968,774.92,2346.663,788.193,2333.259,802.23z M2419.676,864.857
						c-2.287-1.379-4.659-2.382-7.127-3.018c-9.184-2.367-20.255,0.409-32.936,8.251c5.694,1.104,11.365,2.335,16.97,3.744
						c14.302,3.596,28.345,8.549,41.944,14.74C2432.979,876.966,2426.747,869.12,2419.676,864.857z M2311.098,589.816
						c-10.692,3.07-20.927,7.946-30.242,14.961c-16.727,12.595-28.459,30.513-37.73,46.379
						c-17.904,30.643-31.729,63.707-41.297,97.904c19.699-20.205,40.917-37.359,59.635-51.438
						c45.506-34.228,89.011-58.858,130.317-73.832C2365.151,608.25,2337.06,597.397,2311.098,589.816z M2576.349,882.121
						c10.067,17.073,19.417,35.18,27.412,54.099C2599.006,917.747,2589.727,899.333,2576.349,882.121z M2471.37,696.656
						c-57.632,2.751-96.288,18.21-118.016,47.144c-3.918,5.217-7.164,10.753-9.828,16.517c14.407-10.849,30.108-18.004,46.18-21.188
						c22.549-13.907,45.741-24.29,68.022-30.382c6.309-1.725,12.537-3.114,18.679-4.17
						C2474.779,701.885,2473.097,699.241,2471.37,696.656z M2483.604,717.491c-20.481,2.867-41.902,9.725-63.507,20.395
						c1.403,0.164,2.803,0.36,4.202,0.586c33.423,5.414,60.854,26.76,82.897,50.036
						C2502.5,764.151,2495.15,740.026,2483.604,717.491z M2487.35,696.201c0.733,1.193,1.454,2.393,2.164,3.599
						c0.561,0.955,1.115,1.913,1.66,2.873c6.42-0.549,12.735-0.714,18.943-0.496c-1.445-1.985-2.894-3.965-4.356-5.948
						C2499.631,696.128,2493.495,696.119,2487.35,696.201z M2423.457,628.23c21.861,15.9,40.21,34.102,54.88,54.448
						c0.468-0.013,0.933-0.026,1.402-0.038c5.22-0.13,10.434-0.197,15.645-0.199c-16.305-21.16-33.991-41.491-54.37-58.176
						C2435.215,625.368,2429.368,626.688,2423.457,628.23z M2417.192,607.367c-1.182-0.713-2.368-1.41-3.568-2.096
						c-20.379-11.662-45.994-19.512-71.443-19.6c16.311,6.006,31.746,12.883,46.043,20.547c7.085,3.797,13.901,7.78,20.446,11.949
						c5.99-1.814,11.931-3.418,17.824-4.813C2423.453,611.271,2420.355,609.274,2417.192,607.367z M2458.88,621.544
						c20.181,18.176,37.664,39.452,53.885,61.13c45.824,1.243,91.189,7.477,135.596,18.628
						c-35.195-37.327-71.935-61.924-109.312-73.167C2513.766,620.53,2487.016,618.341,2458.88,621.544z"/><path fill="#5066ad" d="M2441.108,1351.183c-12.46-7.511-24.755-15.704-36.846-24.556
						c-63.423-46.435-120.192-110.11-164.169-184.141c-14.589-24.56-25.315-47.969-32.143-69.979
						c-2.68,4.174-5.585,8.202-8.706,12.056c-22.083,27.261-61.163,49.109-98.693,36.466
						c-32.784-11.043-51.408-44.157-63.969-71.772c-28.29-62.194-68.109-181.894-16.94-284.788
						c21.757-43.749,58.851-80.509,107.272-106.306c44.524-23.721,96.122-37.231,149.213-39.071
						c48.318-1.674,97.134,5.895,141.17,21.89c6.736,2.447,13.325,5.067,19.772,7.863c27.705-17.822,62.506-18.031,90.132-16.112
						c55.557,3.856,158.23,22.03,221.661,100.4c26.174,32.339,41.61,75.406,42.351,118.155
						c0.787,45.461-14.758,85.932-43.772,113.959c-47.021,45.42-116.487,52.113-179.134,53.873
						c-0.609,0.479-1.231,0.949-1.866,1.406c-16.25,11.692-36.703,13.298-59.147,4.644c-17.862-6.887-36.431-20.326-50.942-36.869
						c-29.419-33.535-51.291-74.784-63.253-119.287c-11.962-44.503-13.717-91.159-5.076-134.924
						c6.607-33.462,18.882-58.783,36.548-75.456c-45.159-18.45-96.02-27.644-147.968-25.845
						c-108.895,3.773-204.941,57.856-244.689,137.784c-48.642,97.813-10.137,213.035,17.144,273.012
						c11.415,25.094,28.079,55.101,55.868,64.459c31.125,10.485,65.191-9.293,83.67-32.106c5.575-6.882,10.384-14.38,14.382-22.3
						c-7.833-36.415-4.104-68.474,11.367-94.89c1.409-2.407,4.136-3.719,6.896-3.318c2.76,0.398,5.002,2.431,5.669,5.14
						c7.72,31.305,3.996,65.34-9.518,94.687c6.945,28.754,20.604,56.865,34.485,80.232
						c93.822,157.94,235.288,255.52,378.421,261.023c3.782,0.144,6.729,3.329,6.584,7.11c-0.146,3.781-3.328,6.729-7.11,6.584
						c-39.863-1.533-79.861-9.871-118.884-24.783C2487.261,1376.393,2463.911,1364.93,2441.108,1351.183z M2217.007,986.874
						c-3.822,12.933-4.937,26.468-4.045,40.161C2216.335,1013.943,2217.732,1000.337,2217.007,986.874z M2438.47,664.687
						c-17.954,14.368-30.396,38.588-37.005,72.055c-16.722,84.694,8.256,177.622,65.186,242.52
						c19.969,22.765,59.135,49.111,88.242,32.422c0.365-3.364,3.175-6.02,6.651-6.101c0.497-0.011,0.989-0.023,1.488-0.035
						c7.721-7.453,12.726-17.562,16.331-25.942c34.416-79.988,12.791-183.859-52.589-252.596
						C2502.41,701.393,2472.267,680.353,2438.47,664.687z M2475.452,668.573c22.84,13.769,43.323,30.141,61.251,48.991
						c32.753,34.435,56.481,79.341,66.813,126.447c10.847,49.455,6.848,98.216-11.565,141.011
						c-2.674,6.213-6.045,13.269-10.632,19.936c56.345-2.349,116.276-10.618,156.6-49.568
						c58.144-56.166,47.092-155.81,0.289-213.637c-60.164-74.335-158.623-91.647-211.957-95.35
						c-22.797-1.583-50.783-1.681-73.873,9.543C2460.316,659.875,2468.009,664.086,2475.452,668.573z"/><path fill="#996553" d="M4358.953,3300.76h-30.923c0,0-54.634-132.111-90.491-159.814l31.06-27.257l34.853,42.074
								l44.612,82.95L4358.953,3300.76z"/><path fill="#ad7760" d="M4315.999,3094.422l72.494,188.205l-29.54,18.133c0,0-52.713-124.085-85.443-181.144
								L4315.999,3094.422z"/><path fill="#996553" d="M2973.617,3472.602l34.504-18.821c0,0,34.354-157.212,60.842-210.189
								c11.85-22.306,38.288-28.978,63.407-31.219l9.784-32.214l-88.527-13.941c0,0-39.35,89.585-56.461,138.714
								C2973.617,3372.548,2973.617,3472.602,2973.617,3472.602z"/><path fill="#ad7760" d="M2973.617,3185.695l-35.545,281.057l35.545,5.85c0,0,42.719-181.848,48.992-198.459
								c6.274-16.61,24.061-66.922,79.47-66.86v-21.588l-127.916-25.431L2973.617,3185.695z"/><path fill="#ad7760" d="M3739.039,3314.326c0,0,44.818,9.51,54.167,93.771c9.571,86.261,14.47,201.77,14.47,201.77
							l41.468,6.825l17.252-87.829l61.167-221.142L3739.039,3314.326z"/><path fill="#ad7760" d="M4328.03,2999.845l-12.031,94.576l-396.91,235.354c-12.428,7.37-27.045,10.153-41.312,7.866
							l-904.16-151.947l1.548-72.061L4328.03,2999.845z"/><path fill="#b5aba9" d="M3505.532,2252.825c0,0-353.924,91.519-466.847,132.689
								c-112.923,41.17-171.738,69.401-169.385,191.735c2.352,122.333,4.705,492.863,105.865,536.385
								c101.16,43.523,602.258-197.616,602.258-197.616L3505.532,2252.825z"/><path fill="#d6d4d4" d="M3023.117,3118.262c27.405-129.244,56.58-508.038,16.744-623.353
								c-22.35-64.695-124.923-47.809-124.924-47.808c-31.312,27.824-46.869,66.075-45.637,130.148
								c2.352,122.333,4.705,492.863,105.865,536.385C2986.526,3118.522,3002.944,3119.81,3023.117,3118.262z"/><path fill="#c1b9b7" d="M3543.311,2577.249c0,0-423.463,112.923-498.745,147.036
									c-75.282,34.112-90.574,99.984-90.574,150.564s30.584,96.455,62.344,109.395c31.759,12.939,709.299,127.039,770.466,129.391
									c61.167,2.353,159.975-72.929,172.915-107.041c12.939-34.113,315.863-325.309,315.863-325.309L3543.311,2577.249z"/><path fill="#cec9c8" d="M4042.092,2912.524c-159.939,18.856-878.721-94.138-946.946-115.31
									c-68.225-21.173-83.678-53.245-83.678-53.245c-46.888,36.154-57.476,88.806-57.476,130.879
									c0,50.58,30.584,96.455,62.344,109.395c31.759,12.939,709.299,127.039,770.466,129.391
									c61.167,2.353,159.975-72.929,172.915-107.041C3963.865,2995.652,3997.845,2958.267,4042.092,2912.524L4042.092,2912.524z"/><path fill="#c1b9b7" d="M3530.371,2598.422c0,0-56.461-17.644-56.461-77.635c0-59.99,43.522-363.472,56.461-414.052
									c12.94-50.58,65.872-95.279,131.744-101.16c65.872-5.881,589.319,3.529,686.95,88.221
									c97.631,84.693-41.401,524.872-57.812,562.206c-17.737,40.352-129.259,33.676-261.746,18.095
									C3810.551,2648.345,3530.371,2598.422,3530.371,2598.422z"/><path fill="#b5aba9" d="M4349.066,2093.795c-97.632-84.692-621.078-94.102-686.95-88.221
									c-15.686,1.401-30.625,5.024-44.479,10.382c4.055,0.24,428.785,25.457,569.102,68.429
									c188.174,57.628-25.43,617.716-25.5,617.899c66.604,0.225,114.405-9.258,125.483-34.462
									C4303.133,2630.489,4446.697,2178.488,4349.066,2093.795z"/><path fill="#d6d4d4" d="M3016.336,2984.243c0,0-41.17,4.705-51.757,49.404c-10.587,44.699-1.176,89.398,25.878,98.808
								c27.055,9.411,810.244,141.726,824.36,141.194c14.115-0.532,20.071-157.767,20.73-170.065
								C3836.206,3091.285,3016.336,2984.243,3016.336,2984.243z"/><path fill="#fff" d="M3838.479,2094.134c0,0-46.375-18.201-65.987-23.777
								c-19.611-5.576-42.135,17.621-33.961,46.661c8.175,29.04-3.908,85.746-26.635,127.919
								c-22.727,42.172-40.048,102.658-56.118,150.36c-16.07,47.702-57.635,96.842-54.049,113.791
								c3.585,16.948,83.128-1.941,108.361,2.969c25.235,4.911,176.447,19.385,223.174,31.625
								c46.728,12.24,143.846,5.485,177.393,22.046c33.546,16.561,46.623-19.735,49.444-49.285
								c2.82-29.55,55.152-222.103,60.228-262.187c5.077-40.084,17.997-64.359,22.781-90.666
								c4.783-26.308-2.203-58.646-20.257-64.406c-18.054-5.76-119.375,18.865-147.594,20.625
								c-28.22,1.76-51.874,18.774-65.469,15.645c-13.596-3.129-57.123-10.612-86.264-16.639
								C3894.384,2112.787,3875.675,2088.153,3838.479,2094.134z"/><path fill="#efe8e6" d="M4243.11,2163.59c4.783-26.308-2.203-58.646-20.257-64.406
								c-0.849-0.271-1.882-0.475-3.082-0.616c-12.031,5.865-27.235,15.339-37.478,29.106
								c-19.326,25.977-72.354,191.764-83.736,295.767c-6.932,57.108,16.819,75.394,11.705,98.901
								c-2.504,11.506-6.083,26.354-6.832,40.472c2.65,0.883,5.073,1.849,7.229,2.914c33.546,16.561,46.623-19.735,49.444-49.285
								c2.82-29.55,55.151-222.103,60.228-262.187C4225.406,2214.172,4238.327,2189.896,4243.11,2163.59z"/><g><path fill="#9e5959" d="M3955.483,2600.331c0,0-24.235-138.423-260.178-97.261
									c-179.824,31.371-521.802,108.575-585.07,180.464c-15.448,17.855-35.663,88.26,66.325,107.925
									c101.988,19.666,235.176,12.329,327.213,10.813C3595.811,2800.756,3999.92,2797.112,3955.483,2600.331z"/><path fill="#534054" d="M3971.606,2631.985c0,0,9.018,147.519-345.287,179.402
										c-354.304,31.883-521.979,15.651-534.429-104.653c-0.487-37.032-19.539-79.634,206.679-135.897
										c226.219-56.264,370.066-101.313,482.798-103.583C3894.1,2464.982,3971.314,2549.149,3971.606,2631.985z"/><path fill="#49374a" d="M3212.012,2711.984c72.326-37.845,367.096-119.001,369.619-132.458
										c2.523-13.456-7.569-58.87-7.569-58.87c21.866,15.138,38.686,74.849,56.347,63.916
										c17.661-10.933,144.652-26.912,144.652-26.912s140.871,29.555,157.992,150.861
										c-41.57,41.186-127.83,86.767-306.733,102.865c-225.144,20.26-352.345,12.761-445.055-16.142
										C3178.277,2758.008,3184.982,2726.127,3212.012,2711.984z"/><path fill="#9e5959" d="M3187.262,2675.496c-44.919,4.63-78.203,43.864-76.436,88.953
									c2.637,67.291,10.57,146.438,39.709,359.466c40.291,294.565,39.307,304.99,81.127,303.34
									c34.556-1.363,36.735-44.5,48.311-157.803c7.115-69.646,25.72-267.667,18.918-369.602
									c-6.802-101.936-19.834-219.955-89.586-224.689C3201.458,2674.628,3194.114,2674.79,3187.262,2675.496z"/><path fill="#c2d8f2" d="M3316.723,3478.018l-2.777,80.448c0,0-23.829,9.032-60.582,5.982l-4.201-63.909
												L3316.723,3478.018z"/><polygon fill="#8fb1db" points="3253.365 3564.448 3234.695 3553.17 3229.799 3504.697 3249.164 3500.539"/><path fill="#adcaed" d="M3008.787,3535.427c0,0-0.684,15.104,0.281,21.173
											c0.964,6.069,97.978,13.742,154.352,2.636c16.885-4.569,60.508-48.124,92.128-59.509
											c31.62-11.386,57.267-14.11,62.329-18.944c5.061-4.835,6.828-34.483-5.485-37.508L3008.787,3535.427z"/><path fill="#8fb1db" d="M3320.935,3472.984c-6.406,0.928-22.745,3.465-31.572,6.384
											c-11.135,3.682-18.639,15.357-18.639,15.357c24.35-7.284,42.935-9.918,47.149-13.943
											C3319.178,3479.538,3320.254,3476.638,3320.935,3472.984z"/><path fill="#9e5959" d="M3224.575,3262.079c0,0-46.271,3.102-43.914,56.467
										c2.37,53.656-4.995,87.577-35.385,117.683c-30.39,30.106-97.943,48.934-115.728,56.782
										c-17.784,7.847-31.379,25.136-20.762,42.417s126.38,7.781,152.414,0.119c18.431-5.425,54.885-42.751,80.944-51.514
										c26.058-8.762,61.367-12.918,68.962-32.54c7.594-19.622-7.626-52.399-20.245-78.521
										c-12.618-26.122-12.58-66.277-14.422-82.261C3274.598,3274.724,3258.79,3257.623,3224.575,3262.079z"/><path fill="#adcaed" d="M3221.896,3497.46c0,0,6.139-39.681,18.063-60.001
											c13.733-23.401,41.52-60.463,46.794-74.776c0,0,10.337,16.269,12.41,27.978c0,0-26.514,33.718-35.978,50.824
											c-9.464,17.105-13.051,29.807-13.394,45.056C3249.791,3486.54,3230.192,3495.584,3221.896,3497.46z"/><path fill="#adcaed" d="M3076.344,3473.58c0,0-8.152,50.534-8.295,75.271c0,0,21.402,2.541,30.945,0.281
													c0,0,7.115-77.201,8.584-87.477C3107.578,3461.656,3088.912,3467.523,3076.344,3473.58z"/><path fill="#8fb1db" d="M3102.372,3513.06c2.053-21.619,4.426-45.948,5.205-51.404
													c0,0-18.665,5.867-31.233,11.925c0,0-1.153,7.147-2.599,17.381C3080.8,3495.58,3093.932,3504.614,3102.372,3513.06z"/><path fill="#adcaed" d="M3065.677,3479.643c0,0,48.276,28.179,68.91,64.927c0,0,24.813-2.33,34.466-9.536
												c0,0-38.54-46.735-74.355-68.979C3094.698,3466.056,3076.192,3470.807,3065.677,3479.643z"/><g><path fill="#534054" d="M3091.891,2700.33c0,0,6.655,306.68,78.531,583.516c0,0,41.575,12.493,111.424,4.463
										c0,0,32.701-196.129,34.511-347.977c1.81-151.847-43.935-239.946-55.362-279.157
										C3242.092,2596.31,3110.983,2596.374,3091.891,2700.33z"/><path fill="#49374a" d="M3185.341,2976.245c-4.174-56.569-47.359-219.757,20.22-265.543
										c17.767-12.037,39.894-18.904,64.683-22.919c17.312,48.888,47.391,145.437,46.113,252.549
										c-1.81,151.847-34.511,347.982-34.511,347.982c-22.961,2.64-42.844,3.055-59.222,2.432
										C3212.69,3208.248,3188.64,3020.96,3185.341,2976.245z"/></g><g><path fill="#9e5959" d="M3645.861,2233.159c-25.097,25.583-21.382,59.083-24.123,94.802
								c-2.733,35.629-42.632,124.649-43.479,160.201c-1.16,48.704,16.833,80.408,70.22,166.219
								c53.387,85.811,99.824,171.629,250.702,139.16c150.877-32.469,120.317-195.292,110.129-244.912
								c-9.648-46.997-12.542-80.375-65.93-146.473c-9.749-10.552-14.391-52.069-14.473-75.918
								c-0.136-39.88-6.778-73.706-37.95-98.615c-26.321-21.032-65.933-38.171-125.137-38.171
								C3698.782,2189.453,3672.071,2206.441,3645.861,2233.159z"/><path fill="#534054" d="M3928.821,2347.716c2.957-0.274,5.619,1.789,6.067,4.722
									c1.792,11.729,7.717,40.639,24.474,60.072c21.454,24.882,47.763,68.353,60.132,164.146s-8.346,172.667-67.53,202.234
									c-59.184,29.567-153.455,42.872-209.522,0c-56.067-42.872-100.455-128.756-115.251-151.97
									c-14.796-23.214-55.485-74.86-55.485-137.738c0-19.419,22.194-74.705,30.332-102.794c5.6-19.33,9.799-34.109,11.873-41.446
									c0.729-2.579,3.538-3.928,6.023-2.919C3636.848,2348.892,3706.804,2368.269,3928.821,2347.716z"/><path fill="#49374a" d="M3575.195,2521.487c21.316,16.361,37.859,73.829,55.214,63.085
										c17.661-10.933,144.652-26.912,144.652-26.912s200.535,42.076,152.153,231.862
										c-58.344,21.444-136.007,26.657-184.772-10.632c-56.067-42.873-100.456-128.757-115.251-151.971
										C3615.019,2607.825,3585.348,2569.484,3575.195,2521.487z"/><path fill="#49374a" d="M3608.625,2363.512c2.331-8.146,4.135-14.504,5.285-18.57
										c0.729-2.578,3.538-3.928,6.023-2.919c16.915,6.869,86.872,26.246,308.888,5.693c2.957-0.274,5.619,1.789,6.067,4.722
										c0.521,3.41,1.395,8.278,2.78,13.937C3899.524,2373.072,3769.123,2391.403,3608.625,2363.512z"/></g><g><path fill="#9e5959" d="M3957.524,2768.433c57.78-52.007,61.257-129.932,2.057-180.32
									c-32.331-27.52-74.673-44.026-148.514-29.205c-148.417,29.792-232.443,63.455-350.38,102.014
									c-118.98,38.901-100.163,28.868-155.499,62.226c-55.336,33.357-74.953,83.042-60.873,112.953
									c14.08,29.912,9.08,77.592,100.979,68.377c91.899-9.215,243.57-21.298,335.043-38.386
									C3742.28,2854.521,3883.516,2835.046,3957.524,2768.433z"/><path fill="#534054" d="M4017.424,2661.442c0,0,38.692,163.027-359.938,216.108
										c-380.186,50.625-404.893,44.09-441.615-49.317c-43.414-110.427,88.319-135.69,164.238-155.176
										c75.919-19.485,312.959-97.336,409.346-124.085C3885.842,2522.223,3996.322,2545.467,4017.424,2661.442z"/><path fill="#49374a" d="M3657.487,2877.551c-137.384,18.294-228.342,29.121-290.229,31.084
										c9.793-59.406,53.321-117.177,53.321-117.177s23.969,24.6,47.307,76.321c8.746,19.383,127.867,13.79,213.848,6.322
										C3673.831,2875.295,3665.762,2876.448,3657.487,2877.551z"/><path fill="#9e5959" d="M3216.149,2799.953c0,0,51.188,185.819,79.733,276.398
										c28.544,90.58,85.292,251.022,96.798,304.281c11.506,53.259,39.871,37.37,51.256,31.314
										c11.385-6.056,18.983-26.394,20.032-76.734c1.049-50.341,6.828-85.509,5.279-167.456
										c-1.549-81.948-23.361-303.394-75.158-388.762C3335.947,2683.166,3201.07,2707.609,3216.149,2799.953z"/><path fill="#534054" d="M3304.522,2710.722c0,0,98.396,2.523,127.411,104.704s44.153,269.961,41.63,451.617
										c0,0-68.121,22.707-112.274,20.184c0,0-127.411-355.743-150.118-473.062
										C3207.386,2767.49,3213.693,2709.461,3304.522,2710.722z"/><path fill="#c2d8f2" d="M3520.244,3479.369l-5.097,100.577c0,0-6.742,2.589-24.461,3.536
												c-17.72,0.947-28.633-0.699-28.633-0.699l-3.606-68.59L3520.244,3479.369z"/><polygon fill="#8fb1db" points="3462.052 3582.782 3439.818 3571.742 3437.734 3526.087 3458.447 3514.192"/><path fill="#adcaed" d="M3228.628,3542.152l-1.331,16.112c-0.305,3.686,2.004,7.078,5.543,8.154
											c18.251,5.551,75.143,20.367,134.608,10.308c19.499-4.277,64.81-46.005,90.748-57.157
											c19.769-8.5,46.408-21.183,57.961-26.735c3.615-1.737,5.568-5.345,6.22-9.3c1.209-7.338,2.031-19.527-1.197-29.788
											L3228.628,3542.152z"/><path fill="#9e5959" d="M3419.318,3285.335c0,0-43.747-7.848-40.151,53.702c3.595,61.551-2.724,88.6-32.24,118.347
										c-29.516,29.747-72.314,41.052-96.647,51.314c-16.792,7.082-25.803,21.883-21.653,33.453
										c4.15,11.569,65.939,23.768,110.896,17.232c44.957-6.534,75.32-34.17,96.479-49.286
										c21.16-15.115,77.939-34.977,84.602-53.83c6.663-18.854-13.561-52.156-29.482-68.006
										c-13.601-13.54-25.992-33.008-25.507-63.597C3466.099,3294.075,3453.29,3281.987,3419.318,3285.335z"/><path fill="#adcaed" d="M3420.484,3524.909c0,0,0.583-25.604,6.013-54.257
											c4.763-25.132,19.552-74.938,50.72-99.956c0,0,7.356,5.672,13.905,17.565c0,0-23.247,21.837-35.327,56.838
											c-12.081,35.001-8.888,65.89-8.888,65.89S3438.708,3526.782,3420.484,3524.909z"/><path fill="#adcaed" d="M3318.12,3479.369c0,0-5.715,37.471-5.681,83.417c0,0-23.672,3.808-38.351-3.901
													c0,0-0.003-46.326,4.708-61.637C3278.796,3497.247,3305.41,3481.951,3318.12,3479.369z"/><path fill="#8fb1db" d="M3278.796,3497.247c-0.65,2.111-1.209,4.814-1.692,7.902
													c6.188,2.28,26.419,10.217,36.508,19.973c1.662-27.112,4.508-45.754,4.508-45.754
													C3305.41,3481.951,3278.796,3497.247,3278.796,3497.247z"/><path fill="#adcaed" d="M3273.636,3499.726c0,0,43.326,8.298,75.151,58.757c0,0,23.04-0.797,32.382-11.902
												c0,0-19.804-39.533-70.152-65.089C3311.017,3481.492,3289.408,3484.936,3273.636,3499.726z"/></g><g><path fill="#9e5959" d="M3537.928,1909.76c2.095-31.767,16.365-62.527,48.669-72.121
										c41.469-12.316,85.071,11.317,97.387,52.786c2.56,8.618,3.562,17.329,3.179,25.831c-0.091,2.004-0.259,3.995-0.501,5.971
										c-3.238,38.072-16.858,186.661-42.232,318.031c-1.67,22.358-16.851,42.414-39.62,49.177
										c-29.43,8.741-60.373-8.031-69.114-37.461C3532.276,2240.457,3530.05,1977.335,3537.928,1909.76z"/><path fill="#adcaed" d="M3679.973,2035.82c-2.533,37.249-27.882,171.587-32.823,199.056
											c-4.879,26.91-13.746,41.574-27.251,52.842c-26.67,24.059-84.638-0.319-90.674-22.461
											c-6.094-25.28,1.318-112.521,0.789-158.832c-0.327-25.948-0.338-57.362,0.093-84.341
											c2.117-52.285-2.565-117.464,17.959-156.584c8.102-15.443,20.852-26.405,38.407-31.547
											c14.524-3.87,59.988-11.122,88.997,28.809C3705.569,1909.001,3681.122,2001.631,3679.973,2035.82z"/><path fill="#8fb1db" d="M3679.973,2035.82c-2.522,37.226-27.889,171.604-32.823,199.056
											c-4.879,26.91-13.746,41.574-27.251,52.842c-26.67,24.059-84.638-0.319-90.674-22.461
											c-1.549-80.63,1.486-164.765,0.882-243.173c5.062,10.131,10.295,18.162,12.958,15.195
											c6.264-6.886,30.929-75.011,36.163-88.575c5.205-13.586,12.546-56.458,12.546-56.458s46.503-16.764,88.654-21.123
											C3702.026,1918.56,3681.536,2003.739,3679.973,2035.82z"/><path fill="#534054" d="M3365.27,2148.168c-12.309-11.965-29.829-79.125,57.821-103.691l37.174,30.35
										l-43.179,80.686l-34.551,1.991L3365.27,2148.168z"/><path fill="#9e5959" d="M3420.491,2087.31c19.016,2.521,152.034,87.707,168.129,98.098
											c16.094,10.391,28.03,48.785,12.892,76.148c-15.138,27.363-54.246,29.065-81.619,3.538
											c-41.422-40.684-115.548-115.967-124.336-130.241c-8.788-14.275-3.316-26.796-1.044-30.861
											C3396.785,2099.927,3401.475,2084.788,3420.491,2087.31z"/><path fill="#914d4d" d="M3259.916,2143.158c0,0-5.259,28.446-11.636,30.743
													c-6.377,2.297-9.341-4.335-11.237-13.675s-1.052-54.962,0.746-62.156c1.798-7.194,38.133-26.768,38.133-26.768
													s6.256-11.93,11.267-19.365c5.011-7.435,30.908-6.105,30.908-6.105L3259.916,2143.158z"/><path fill="#9e5959" d="M3463.044,2107.619c-3.318-1.284-14.98-10.544-25.209-18.16
													c-54.104-22.53-95.496-55.942-122.945-45.612c-7.955,2.953-57.404,34.344-61.155,39.534
													c-3.75,5.19-14.544,29.898-16.914,35.156c-2.369,5.257-11.976,22.21-14.461,26.885
													c-2.486,4.674-5.94,16.486,3.261,16.36c9.203-0.126,24.991-20.362,24.991-20.362c0.365,0.085,0.734,0.13,1.102,0.177
													c0.687-33.621,33.961-66.141,69.54-65.486c2.11,1.421,3.358,4.118,4.274,7.311c9.299,2.265,16.849,12.538,16.791,20.467
													c21.365,3.526,81.787,57.065,81.938,57.064c10.027,4.433,31.958,4.129,41.765-9.729
													C3475.833,2137.366,3478.235,2113.501,3463.044,2107.619z"/><path fill="#9e5959" d="M3244.696,2148.297c15.661,9.206,40.69-36.732,42.745-38.144
													c2.104-1.445,17.784-23.126,30.406-26.669c2.615-0.734,5.207-0.666,7.682-0.063c-0.917-3.193-2.413-10.638-4.522-12.059
													C3285.428,2070.708,3245.383,2114.676,3244.696,2148.297z"/><path fill="#723333" d="M3249.87,2124.926c3.438-8.342,6.785-16.723,10.3-25.069
													c4.131-13.802,15.58-22.753,26.761-30.802c3.772-2.465,7.651-5.836,11.719-7.389
													c-5.867,6.793-13.075,12.816-19.443,19.131c-14.491,11.345-19.179,29.263-27.268,45.043
													c-2.389,4.448-4.443,8.644-4.903,12.616C3246.576,2142.428,3246.163,2132.624,3249.87,2124.926z"/><path fill="#5066ad" d="M2970.327,2574.143c-2.171,0-4.335-0.069-6.491-0.207
													c-46.501-2.991-109.749-38.006-146.965-187.846c-37.97-152.866-2.444-342.118,28.9-509.092
													c27.929-148.782,52.051-277.274,17.692-342.689c-71.841-136.783-238.331-124.766-239.993-124.628l-1.08-12.99
													c1.753-0.146,176.698-12.968,252.612,131.557c36.464,69.426,11.957,199.983-16.423,351.155
													c-31.096,165.665-66.346,353.433-29.06,503.544c27.558,110.941,75.554,174.149,135.154,177.98
													c65.502,4.224,138.892-63.77,178.495-165.314c13.659-35.015,24.471-74.497,34.926-112.678
													c25.547-93.304,49.745-181.391,111.036-175.96c37.271,3.324,51.49,26.516,65.237,48.945
													c17.656,28.805,34.326,56.009,100.61,48.603l1.447,12.953c-74.466,8.33-95.042-25.18-113.167-54.745
													c-13.168-21.481-24.54-40.033-55.283-42.774c-50.454-4.493-73.241,78.52-97.312,166.42
													c-10.542,38.506-21.445,78.321-35.348,113.971C3114.933,2503.886,3039.674,2574.143,2970.327,2574.143z"/><path fill="#9e5959" d="M3338.51,2078.779c-1.3-5.824-9.045,0.615-9.035,0.769
													c1.129,19.03-27.983,26.196-40.926,33.92c-17.172,10.248-18.99,21.342-13.337,24.852
													c5.653,3.508,26.744-6.554,44.888-12.543c25.315-7.273,19.265,20.357,65.917-2.67
													c-0.036-0.917,19.012,6.699,18.888,5.813C3405.745,2104.231,3360.125,2080.059,3338.51,2078.779z"/><g><path fill="#adcaed" d="M3615.113,2288.931c-25.15,24.173-53.361,14.963-82.549,0
											c-2.982-1.531-7.073-4.196-12.06-7.785c-43.597-31.273-153.698-131.265-155.201-132.955
											c27.129,9.185,107.118-22.458,57.821-103.687c1.32,0.897,44.864,30.005,89.279,64.551
											c44.731,34.756,105.851,90.465,113.505,107.514C3633.534,2233.643,3640.29,2264.731,3615.113,2288.931z"/><path fill="#8fb1db" d="M3615.113,2288.931c-25.15,24.173-53.361,14.963-82.549,0
											c-2.982-1.531-7.073-4.196-12.06-7.785c18.077-29.663,31.351-83.578-8.102-172.091
											c44.731,34.756,105.851,90.465,113.505,107.514C3633.534,2233.643,3640.29,2264.731,3615.113,2288.931z"/></g><g><path fill="#9e5959" d="M3980.207,1865.3c-11.112-18.899-31.759-42.737-90.81-55.075
										c-72.36-15.119-147.977-19.28-147.977-19.28c-124.129,14.86-180.543,58.739-180.543,58.739
										c5.124,27.027,31.224,52.95,25.079,106.94c-6.145,53.99-31.505,147.022-25.933,181.977
										c5.569,34.956,41.062,59.003,41.062,59.003s9.493,105.318,13.075,159.879c0,0,34.418,83.556,175.748,55.831
										c141.33-27.724,139.057-62.978,139.057-62.978c-0.029-66.23,3.888-167.281,5.489-195.579
										c3.312-58.585,19.135-106.805,36.738-161.754C3988.794,1938.052,3991.316,1884.198,3980.207,1865.3z"/><path fill="#9e5959" d="M3666.464,1805.106l8.036-140.22c0.973-27.784,20.001-52.783,48.292-60.075
											c34.438-8.878,69.552,11.844,78.43,46.282c1.208,4.686,1.864,9.385,2.016,14.029c0.001,0,12.148,150.551,12.148,150.551
											c0.108,1.049,0.371,5.822,0.371,5.822c2.084,35.43-21.175,66.015-56.838,75.208
											c-40.516,10.444-80.471-11.995-90.915-52.511C3664.75,1831.567,3665.571,1818.533,3666.464,1805.106z"/><path fill="#914d4d" d="M3674.5,1664.887c0.973-27.784,20.001-52.783,48.292-60.076
											c34.438-8.878,69.553,11.844,78.43,46.282c1.208,4.687,1.864,9.385,2.016,14.029c0.002,0,0.633,7.819,0.633,7.819
											c-28.824,64.632-72.878,135.87-136.954,124.271L3674.5,1664.887L3674.5,1664.887z"/><path fill="#fff" d="M3815.688,1798.042c0,0-5.76,25.926-81.005,49.078
											c-33.336,10.257-70.349-9.403-68.212-42.312c0,0-32.082,3.419-57.298,15.813s-46.586,25.643-50.432,29.063
											c-3.846,3.419,24.361,57.698,25.644,85.051c1.282,27.353-16.241,110.267-24.789,153.006
											c-8.548,42.739-5.984,82.914,38.038,110.695c0,0,5.983,96.163,7.266,120.952s-1.282,44.876,3.847,54.706
											c5.129,9.83,55.134,58.125,153.006,47.013c97.873-11.112,173.094-46.158,188.48-70.52
											c5.129-10.685-4.701-48.723-10.685-74.366c-5.983-25.644-1.709-134.201,2.137-161.982
											c3.847-27.781,43.167-138.047,46.586-188.907c3.419-50.86-9.403-89.325-9.403-89.325S3903.731,1800.606,3815.688,1798.042
											z"/><path fill="#efe8e6" d="M3597.633,2198.435c11.58,9.983,29.624,10.561,43.381,4.873
												C3627.286,2197.326,3612.385,2197.246,3597.633,2198.435z"/><path fill="#efe8e6" d="M3684.867,2201.169c48.887,23.901,114.928,28.764,159.369-6.952
												C3794.568,2218.688,3737.254,2213.354,3684.867,2201.169z"/><path fill="#adcaed" d="M3666.471,1804.808c0,0-22.395,32.909-32.082,68.24
											c-9.688,35.331-0.07,132.36-17.096,180.644c-34.761,98.585-19.66,144.743-19.66,144.743s8.833,157.85,8.833,188.622
											s-31.051,189.966-151.768,135.422c2.151-23.275,85.937-44.045,100.996-116.608
											c15.255-73.51,23.418-201.738,23.418-201.738s-29.633-35.901-29.633-72.372c0-36.471,26.213-155.001,29.063-176.655
											c2.767-21.027-20.666-81.403-20.591-103.145c0.004-1.14,0.454-2.207,1.302-2.967
											C3567.242,1841.841,3612.667,1803.514,3666.471,1804.808z"/><path fill="#adcaed" d="M3815.688,1798.042c0,0,9.602,55.061-8.063,109.197
												c-11.991,36.748-32.482,121.949-33.906,194.606c-1.245,63.524,17.95,115.396,28.208,158.99
												c10.257,43.594,23.079,112.831,24.789,190.617c1.71,77.785,7.693,249.169,11.112,270.539
												c5.983,9.403,179.505,5.556,216.26,0.427c0,0,5.983-58.125-7.693-166.683c-8.177-64.905-76.93-227.373-83.769-278.66
												c-6.838-51.287-12.822-154.716-5.129-191.472c7.546-36.052,49.356-157.354,21.917-245.874
												c-1.265-4.08-3.915-7.612-7.507-9.924C3945.224,1812.628,3859.447,1794.786,3815.688,1798.042z"/><path fill="#8fb1db" d="M3958.148,2384.069c27.497-7.734,48.09,57.009,68.436,94.418
												c-19.384-61.972-43.953-122.261-60.671-184.922c-9.85-60.604-18.379-148.403-6.632-215.68
												c17.79-65.946,42.722-163.509,20.743-236.002c-44.873,18.502-112.468,78.501-112.468,78.501
												s34.793,239.795,19.78,256.959c-13.607,15.555-60.111,16.183-101.161,22.777c5.357,21.921,11.368,42.08,15.753,60.714
												c11.371,48.586,19.081,98.171,22.755,148.025C3863.226,2402.672,3933.76,2390.928,3958.148,2384.069z"/></g><g><path fill="#9e5959" d="M3942.586,1820.838c34.935,8.265,51.879,34.04,58.237,70.432l54.344,371.337
										c1.365,7.387,1.273,15.17-0.568,22.952c-7.069,29.875-37.017,48.364-66.893,41.296
										c-25.171-5.955-42.257-28.153-42.787-52.864c-0.002,0-54.355-256.769-68.7-358.03c-0.669-3.509-2.548-26.511-1.607-34.035
										C3879.929,1839.385,3900.489,1810.878,3942.586,1820.838z"/><path fill="#adcaed" d="M3978.867,1836.007c0,0,16.308,7.691,26.862,49.196
											c10.554,41.506,29.24,164.096,40.957,229.623c11.717,65.526,21.661,167.275,10.985,192.491
											c-10.676,25.216-44.978,43.546-89.942,20.93c-44.964-22.616-55.397-181.918-67.597-235.93s-40.675-160.081-33.007-217.8
											C3874.794,1816.799,3930.686,1800.001,3978.867,1836.007z"/><path fill="#99b9e0" d="M3984.906,2206.521l-62.511,19.276c-2.698-13.321-5.089-26.982-7.26-40.39
											C3961.019,2188.93,3984.906,2206.521,3984.906,2206.521z"/><path fill="#534054" d="M3659.114,2371.717c0,0-30.808-39.371-18.696-117.242l47.982,0.857l15.973,90.108
										L3659.114,2371.717z"/><path fill="#9e5959" d="M3812.062,2248.193c87.572-19.052,123.375-22.557,159.349-24.503
											c4.767-0.804,9.532-0.974,14.194-0.55c21.543,1.969,40.857,16.466,47.899,38.337c9.408,29.223-6.654,60.54-35.877,69.948
											c-5.74,1.848-11.559,2.7-17.278,2.676c0,0.01-326.942,14.166-326.942,14.166c-1.157,0.094-2.311,0.127-3.455,0.091
											c-12.738-0.419-24.379-8.675-28.493-21.455c-5.239-16.272,5.617-38.026,21.889-43.265
											C3646.272,2282.698,3736.599,2264.611,3812.062,2248.193z"/><path fill="#9e5959" d="M3606.708,2277.72c0,0-19.09-10.568-28.834-17.846
														c-9.745-7.278-15.093-9.997-22.858-6.378c-7.765,3.619-28.058,22.782-31.832,27.207
														c-3.773,4.425,3.929,8.353,11.099,6.115c7.17-2.237,11.846-9.17,19.192-9.752s14.195,19.175,28.902,22.454
														C3597.083,2302.798,3606.708,2277.72,3606.708,2277.72z"/><path fill="#5066ad" d="M3472.698,2532.323c-29.703,0-58.943-12.436-83.715-35.907
															c-28.636-27.131-47.907-65.875-54.263-109.092c-6.355-43.218,0.945-85.869,20.558-120.096
															c19.919-34.763,50.12-56.735,85.038-61.87c34.924-5.131,70.167,7.213,99.25,34.768
															c28.636,27.131,47.907,65.874,54.263,109.092c6.355,43.218-0.945,85.868-20.558,120.095
															c-19.919,34.763-50.12,56.736-85.038,61.871C3483.056,2531.945,3477.868,2532.323,3472.698,2532.323z
															 M3455.701,2217.936c-4.445,0-8.91,0.321-13.392,0.98c-30.671,4.51-57.357,24.088-75.143,55.126
															c-18.092,31.573-24.801,71.096-18.89,111.289c11.263,76.584,65.578,133.273,124.57,133.276
															c4.446,0.001,8.91-0.321,13.392-0.98c63.962-9.407,106.144-84.06,94.032-166.414
															C3569.008,2274.628,3514.692,2217.936,3455.701,2217.936z"/><path fill="#5066ad" d="M3472.49,2498.62c-22.494,0-44.719-10.211-63.569-29.438
															c-21.306-21.733-35.812-52.546-40.844-86.764c-5.033-34.218-0.013-67.902,14.135-94.849
															c14.523-27.664,36.9-45.014,63.009-48.854c26.114-3.837,52.534,6.332,74.406,28.644
															c21.306,21.733,35.812,52.546,40.844,86.764c5.032,34.219,0.012,67.904-14.135,94.849
															c-14.524,27.664-36.901,45.014-63.01,48.853C3479.717,2498.356,3476.099,2498.62,3472.49,2498.62z M3455.981,2251.633
															c-2.915,0-5.836,0.21-8.767,0.642c-21.66,3.185-40.436,17.983-52.87,41.665c-12.81,24.4-17.324,55.114-12.71,86.486
															c4.614,31.372,17.779,59.486,37.071,79.164c18.727,19.101,40.973,27.869,62.627,24.679
															c45.565-6.701,74.981-64.194,65.581-128.15C3538.111,2296.271,3498.383,2251.633,3455.981,2251.633z"/><path fill="#5066ad" d="M3471.803,2470.572c-16.821,0-33.488-8.319-47.617-23.945
															c-15.525-17.17-26.239-41.328-30.165-68.024c-3.926-26.696-0.622-52.915,9.304-73.829
															c10.363-21.835,26.693-35.424,45.984-38.26c19.287-2.84,38.842,5.474,55.053,23.4
															c15.525,17.17,26.239,41.329,30.164,68.024c3.926,26.696,0.622,52.915-9.302,73.828
															c-10.363,21.835-26.695,35.424-45.985,38.261C3476.763,2470.392,3474.28,2470.572,3471.803,2470.572z
															 M3456.662,2279.681c-1.792,0-3.58,0.129-5.358,0.391c-14.618,2.149-27.261,13.008-35.598,30.577
															c-8.775,18.49-11.661,41.916-8.125,65.959c3.536,24.043,13.044,45.646,26.771,60.827
															c13.043,14.425,28.284,21.188,42.894,19.034c14.619-2.149,27.261-13.01,35.598-30.577
															c8.776-18.492,11.662-41.916,8.125-65.959c-3.535-24.043-13.044-45.646-26.771-60.827
															C3482.742,2286.438,3469.595,2279.681,3456.662,2279.681z"/><path fill="#914d4d" d="M3491.207,2344.934c0,0,6.368-9.96,16.655-15.348
													c10.287-5.388,12.453,15.348,12.453,15.348S3500.188,2351.138,3491.207,2344.934z"/><path fill="#9e5959" d="M3666.214,2273.66c-12.681,0.558-28.628,2.558-43.208,3.51
													c-22.478,0.828-26.112,1.368-31.872-3.1c-12.04-9.34-21.945,22.311-26.232,34.744
													c-3.622,10.503-19.104,22.387-23.712,24.344c-4.113,1.747-3.027,1.608-23.859,7.04
													c-13.246,3.455-21.063-0.326-26.125,4.735c-5.334,9.362,3.38,17.643,3.38,17.643
													c-8.323,14.773,7.325,19.547,7.325,19.547s-2.005,11.281,6.979,12.844c3.524,0.613,15.898,1.008,15.898,1.008
													s2.858,6.729,7.04,7.192c4.182,0.464,51.099,6.773,67.122-3.938c5.197-3.474,22.681-29.374,34.858-46.467
													c16.382-1.759,52.03-4.916,52.03-4.916C3740.629,2336.921,3712.15,2271.638,3666.214,2273.66z"/><path fill="#723333" d="M3494.585,2362.349c15.468-1.144,34.329-1.891,49.853-2.896
														c2.786-0.214,5.68-0.126,8.453-0.335c6.738-1.092,12.432-4.993,18.16-8.646c0,0,0.327,0.318,0.327,0.318
														c-4.323,6.005-10.233,11.198-17.742,12.908c-2.984,0.477-6.01,0.291-9.008,0.273
														c-6.777-0.239-23.047-0.479-30.036-0.598c-6.671-0.192-13.338-0.318-20.002-0.567L3494.585,2362.349L3494.585,2362.349
														z"/><path fill="#723333" d="M3501.913,2381.895c11.61-0.602,28.508-1.196,40.306-1.616
														c3.51-0.159,11.665-0.634,15.06-0.582c8.104,0.051,15.48-4.023,22.437-7.992c0,0,0.305,0.34,0.305,0.34
														c-4.503,5.283-10.446,9.573-17.194,11.521c-6.724,1.742-13.76,0.576-20.598,0.506
														c-11.844-0.417-28.642-1.004-40.317-1.72C3501.911,2382.352,3501.913,2381.895,3501.913,2381.895L3501.913,2381.895z"/><path fill="#723333" d="M3524.789,2395.748c13.651-0.925,29.464-1.575,43.117-2.568
														c6.017-0.553,11.567-2.674,17.817-4.036c0,0,0.211,0.405,0.211,0.405c-5.091,4.161-11.105,7.632-17.778,8.374
														c-2.94,0.209-9.236-0.194-12.248-0.277c-10.385-0.265-20.753-0.775-31.119-1.441V2395.748L3524.789,2395.748z"/><path fill="#adcaed" d="M4049.881,2237.304c0,0,27.449,70.538-16.472,94.645
										c-41.87,22.982-374.295,39.767-374.295,39.767s25.54-68.088-18.696-117.242c0,0,270.914-44.954,305.252-48.229
										C4005.15,2200.573,4037.417,2216.738,4049.881,2237.304z"/></g><g><path fill="#9e5959" d="M3787.649,1389.269c0,0-141.619-38.628-176.757,119.303s-31.172,241.688,32.226,255.43
									c63.398,13.742,160.037-26.639,213.887-105.43C3910.854,1579.78,3922.584,1425.942,3787.649,1389.269z"/><path fill="#142147" d="M3700.43,1467.526c0,0-0.871,30.499,27.209,44.507
										c28.08,14.007,38.875,11.345,41.676,35.084c2.801,23.739-15.991,33.167,4.589,47.588
										c20.58,14.421-3.927,44.757,1.762,63.899c5.689,19.142,13.224,19.057,21.282,37.264s16.456,63.216,35.777,64.6
										c19.321,1.384,51.086-9.778,62.266-48.47c11.18-38.692-3.786-45.672,13.841-66.06
										c17.626-20.388,34.082-35.008,30.836-67.862s-33.897-61.176-32.444-93.98s5.519-39.533-18.403-63.789
										s-47.447-17.911-63.627-39.195c-16.18-21.284-56.406-25.683-81.669-14.774c-25.262,10.909-34.581,12.514-65.134,18.295
										c-30.553,5.782-53.632,26.272-55.765,47.264c-2.133,20.992-5.595,34.824-20.901,57.112
										c-15.306,22.288-22.441,61.764-3.227,81.486c0,0,14.312-58.259,31.167-81.599
										C3646.52,1465.558,3688.403,1485.374,3700.43,1467.526z"/><path fill="#111b3b" d="M3907.223,1484.097c1.455-32.804,5.52-39.534-18.404-63.79
										c-19.985-20.262-39.671-19.22-55.051-30.719c-0.03,0.037,44.885,62.238,48.061,81.304
										c3.172,19.066-42.303,87.707-48.873,118.349c-6.57,30.642,4.59,70.679,5.931,92.66c1.342,21.981-20.178,40.35-36.802,28.09
										c-3.372,65.491,16.318,55.562,31.65,56.66c19.321,1.384,50.073-15.961,61.255-54.653
										c11.177-38.693-3.787-45.672,13.838-66.06c17.629-20.388,34.086-35.008,30.837-67.862
										C3936.421,1545.222,3905.772,1516.901,3907.223,1484.097z"/><path fill="#142147" d="M3833.737,1389.625c0,0,16.275-15.151,41.956-12.839
										c25.681,2.312,8.384,18.452,44.074,26.015s59.918,65.94,55.484,94.978c-4.434,29.038-5.953,77.343,17.229,110.834
										c23.182,33.492,17.681,72.802-4.2,96.439s-45.434,24.101-43.007,52.513c2.427,28.412,28.586,32.365,22.722,65.063
										c-5.865,32.698-54.626,30.253-71.477,59.186c-16.851,28.933-69.157,87.778-39.594,133.213
										c29.563,45.435,11.621,75.002-15.508,95.168c0,0,18.164-31.524-9.359-54.863s-82.018-26.53-67.147-75.895
										c14.871-49.365,38.654-61.284,14.758-96.261s-39.6-59.087-7.7-90.371c31.9-31.284,91.717-66.15,89.07-91.799
										s-34.58-86.473-4.898-129.621c29.682-43.148,45.802-88.886,37.793-116.569S3833.737,1389.625,3833.737,1389.625z"/><path fill="#adcaed" d="M3833.737,1389.625c0,0,4.632-8.159,8.919-9.464c10.445-3.18,22.611,4.457,33.511,17.088
											c10.9,12.631,14.725,31.617,7.473,38.891C3883.64,1436.14,3854.875,1401.792,3833.737,1389.625z"/><path fill="#99b8de" d="M3883.638,1436.14c7.256-7.272,3.426-26.26-7.47-38.891
											c-3.255-3.771-6.628-7.021-10.025-9.747c3.483,5.587,13.382,22.072,13.021,28.602
											c-0.436,7.902-34.411-24.921-45.426-26.479C3854.875,1401.791,3883.638,1436.14,3883.638,1436.14z"/><g><path fill="#9e5959" d="M3762.861,1632.32c0,0,22.836-39.695,50.005-26.217
									c27.169,13.478-4.474,54.302-16.594,64.634C3781.857,1683.025,3738.393,1679.984,3762.861,1632.32z"/><path fill="#723333" d="M3805.138,1636.318c-6.313-2.79-12.954-1.105-17.438,0.806
									c3.583-5.986,8.921-11.256,16.745-11.99c1.201-0.113,2.083-1.177,1.97-2.378c-0.113-1.199-1.18-2.076-2.377-1.969
									c-22.541,2.117-27.178,33.326-27.365,34.654c-0.167,1.193,0.663,2.296,1.92,2.472c1.169,0.131,2.238-0.692,2.404-1.864
									c0.019-0.128,0.87-5.821,3.458-12.293c0.131-0.058,0.268-0.093,0.389-0.178c0.099-0.071,10.097-6.993,18.53-3.265
									c1.104,0.489,2.393-0.01,2.88-1.114C3806.74,1638.095,3806.241,1636.806,3805.138,1636.318z"/></g></g></g></g><g><path fill="#c1b9b7" d="M4374.552,2319.643l-5.479,33.585c0,0-178.805,54.636-248.206,79.338
							c-69.401,24.702-165.856,71.753-192.911,169.385c-27.055,97.632-127.039,589.319-139.978,645.78
							c-12.939,56.462,159.975,21.173,338.77-94.103c178.795-115.276,231.728-167.032,272.898-272.898
							c41.17-105.865,122.333-416.404,122.333-472.866S4430.622,2323.171,4374.552,2319.643z"/><path fill="#cec9c8" d="M4374.552,2319.643l-5.479,33.585c0,0-178.805,54.636-248.206,79.338
								c-69.401,24.702-165.856,71.753-192.911,169.385c-1.439,5.192-3.086,11.508-4.913,18.805l207.244-0.03
								c0,0,303.471-124.641,391.692-212.862C4521.979,2351.402,4430.622,2323.171,4374.552,2319.643z"/><path fill="#d6d4d4" d="M4104.398,2560.781c-84.693-59.991-140.536-28.28-140.537-28.28
								c-15.855,19.74-28.491,42.691-35.906,69.45c-27.055,97.632-127.039,589.319-139.978,645.78
								c-8.246,35.983,58.996,34.698,155.136-0.804C4071.35,3013.837,4185.891,2618.505,4104.398,2560.781z"/><path fill="#996553" d="M4495.847,2547.183l-4.183,17.382c0,0-298.16,136.193-337.027,153.445
						c-22.896,9.41-33.453,37.149-38.443,60.331c-4.99,23.181-82.247,307.414-173.08,468.584
						c-90.833,161.171-93.97,369.765-93.97,369.765l34.504-18.82c0,0-5.905-116.06,39.394-216.437
						c45.299-100.376,177.123-391.074,208.698-490.903c31.575-99.828,46.241-137.333,61.924-146.563
						c15.684-9.229,326.223-140.973,340.861-154.566C4549.165,2575.811,4537.678,2547.833,4495.847,2547.183z"/></g></g></g></svg>