<svg xmlns="http://www.w3.org/2000/svg" data-name="Layer 1" viewBox="0 0 64 64"><path fill="#b8c5d9" d="m51.208 13.853-1.061-1.061L32 30.939 13.853 12.792l-1.061 1.061L30.939 32 12.792 50.147l1.061 1.061L32 33.061l18.147 18.147 1.061-1.061L33.061 32l18.147-18.147z"/><circle cx="32" cy="32" r="14" fill="#82ace6"/><path fill="#6d8299" d="M26 44.635a13.866 13.866 0 0 0 12 0V25H26Z"/><path fill="#ccdbf0" d="M30 45.84a12.653 12.653 0 0 0 4 0V41h-4Z"/><circle cx="55" cy="9" r="8" fill="#9dc1f2"/><path fill="#6687b3" d="M56 10h-2a3 3 0 0 0-3 3v2.921a7.954 7.954 0 0 0 8 0V13a3 3 0 0 0-3-3Z"/><circle cx="55" cy="7.5" r="2.5" fill="#6687b3"/><circle cx="9" cy="9" r="8" fill="#9dc1f2"/><path fill="#6687b3" d="M10 10H8a3 3 0 0 0-3 3v2.921a7.954 7.954 0 0 0 8 0V13a3 3 0 0 0-3-3Z"/><circle cx="9" cy="7.5" r="2.5" fill="#6687b3"/><path fill="#ccdbf0" d="M29 28h2v2h-2zM33 28h2v2h-2zM29 32h2v2h-2zM33 32h2v2h-2zM29 36h2v2h-2zM33 36h2v2h-2z"/><circle cx="55" cy="55" r="8" fill="#9dc1f2"/><path fill="#6687b3" d="M56 56h-2a3 3 0 0 0-3 3v2.921a7.954 7.954 0 0 0 8 0V59a3 3 0 0 0-3-3Z"/><circle cx="55" cy="53.5" r="2.5" fill="#6687b3"/><circle cx="9" cy="55" r="8" fill="#9dc1f2"/><path fill="#6687b3" d="M10 56H8a3 3 0 0 0-3 3v2.921a7.954 7.954 0 0 0 8 0V59a3 3 0 0 0-3-3Z"/><circle cx="9" cy="53.5" r="2.5" fill="#6687b3"/><path fill="#6687b3" d="M32 18a14 14 0 1 0 14 14 14 14 0 0 0-14-14Zm0 26a12 12 0 1 1 12-12 12 12 0 0 1-12 12Z"/></svg>