<svg xmlns="http://www.w3.org/2000/svg" enable-background="new 0 0 5000 5000" viewBox="100.323 477.795 4799.355 4050.573"><ellipse cx="2500" cy="4255.834" fill="#cec6c6" rx="2181.525" ry="72.916"/><circle cx="3558.525" cy="4049.391" r="157.137" fill="#6d6c7c" transform="rotate(-45.001 3558.495 4049.452)"/><path fill="#cec6c6" d="M3619.962 4056.88c-4.136 33.931-34.995 58.084-68.926 53.949-33.931-4.136-58.085-34.995-53.949-68.926 4.136-33.931 34.995-58.085 68.926-53.949 33.931 4.136 58.084 34.995 53.949 68.926z"/><path fill="#e8b077" d="M2654.613 2052.167c25.854 9.212 28.055 59.871 38.461 82.29l16.487 40.666c8.617 18.566-33.829 36.96-52.908 42.658l-49.992 14.928c-21.172 6.323-46.694 2.9-68.963-9.252l-118.039-73.835 26.171-119.089 208.783 21.634z"/><path fill="#b51818" d="M2247.069 1874.56c-66.317-39.839-79.569-126.094-79.569-126.094l-80.217-323.478c-16.204-72.789-177.229-32.379-200.504-4.763-12.946 137.677-39.386 277.018 106.611 516.071 14.562 25.286 36.776 46.42 63.279 60.204l362.99 153.12 26.171-119.089-198.761-155.971z"/><path fill="#e8b077" d="m2062.004 3943.915 2.872 39.818c1.898 26.351-4.8 52.641-19.246 75.532l-6.664 10.56c8.217 117.548 98.467 68.613 177.276-21.601l-15.341-257.283-138.897 152.974z"/><path fill="#34273f" d="m2062.832 2230.414 168.397 1056.427 44.841 646.008-280.884 41.666-127.466-549.002-5.194-147.974-296.965-980.316z"/><path fill="#bc845e" d="M2038.966 4069.824c-21.988 35.388-35.485 88.746-21.943 166.904 272.801-40.043 375.254 5.385 545.603-80.088-6.705-38.697-46.728-54.418-152.542-38.886-64.122 9.413-84.269-3.821-117.814-25.745-7.574-4.95-17.505-23.172-28.116-44.43-19.792-39.652-75.719-41.36-98.217-3.178-19.051 32.331-38.033 62.209-52.455 67.42-41.176 14.875-61.558 5.062-74.516-41.997z"/><path fill="#774d3a" d="M2044.686 4278.988c266.237-38.002 381.379-32.625 507.653-71.376 10.381-3.187 16.758-13.624 14.84-24.694l-4.553-26.278c-134.738 55.295-333.447 48.946-545.605 80.088l4.281 24.71c1.951 11.262 12.414 19.117 23.384 17.55z"/><path fill="#e8b077" d="m991.987 3596.78-201.898 246.144-39.595 23.176c-52.467 50.928 42.447 99.703 138.878 99.364l227.655-218.777-125.04-149.907z"/><path fill="#bc845e" d="M794.526 3838.585c-37.567-4.359-82.999 6.701-130.544 52.782 111.423 137.697 128.324 192.272 188.293 271.684 39.028 51.68 186.325 98.676 186.325 98.676 67.891 22.139 79.345-78.79 4.191-101.456 0 0-74.798-36.982-84.705-60.923-9.867-23.842-13.92-41.323-19.887-67.284-2.032-8.841 4.707-27.308 12.557-48.92 17.563-48.35-18.947-100.394-65.833-93.557-40.553 5.913-78.538 14.544-90.77 4.369-17.067-14.196-19.061-31.306.373-55.371z"/><path fill="#774d3a" d="M649.88 3934.529a6745.368 6745.368 0 0 1 64.091 80.976c13.607 17.462 46.639 60.522 50.565 65.677 51.701 67.9 54.331 80.912 90.991 127.153 32.41 40.884 145.374 59.97 145.374 59.97l56.123 8.217c10.323 1.511 20.104-8.922 22.596-19.053 0 0-163.679-29.067-203.727-78.932-75.934-94.555-118.256-171.431-211.91-287.17l-15.033 14.571c-6.851 6.638-6.436 19.432.93 28.591z"/><path fill="#493959" d="m1367.793 2290.26 2.572 444.824c-18.407 241.363-19.747 388.799-73.654 507.067-24.94 54.716-135.903 98.637-173.836 144.883l-270.6 388.723 229.088 115.612c350.461-294.587 605.705-517.096 605.705-517.096 151.853-198.431 71.155-535.626 242.954-1066.466l-562.229-17.547z"/><path fill="#ed3232" d="M2126.83 2562.282c0-454.324-62.168-379.935-83.119-728.195 36.46-91.083 67.312-331.98 43.572-409.098-43.094-130.569-236.245-166.299-395.846-216.208-112.701 30.151-239.156 76.615-309.632 119.441-56.096 34.086-111.938 84.493-122.26 154.781 131.605 393.601 57.159 757.34 108.886 1097.342l758.399-18.063z"/><path fill="#e8b077" d="m1886.862 1302.066-55.323-201.733-224.986-22.773c35.409 80.013 4.344 126.752-22.362 159.943-7.113 8.839-5.999 21.887 2.705 29.166 33.519 28.03 71.474 80.613 126.01 113.072 64.588 38.442 149.753 9.239 171.601-62.678 1.82-5.994 2.709-11.12 2.355-14.997z"/><path fill="#b77e4b" d="m1597.028 1029.561 263.085 134.729 23.926 127.486c-124.105 54.33-201.041.036-269.444-104.854 13.809-37.282 3.424-105.417-17.567-157.361z"/><path fill="#d36446" d="M1806.205 1126.54c-13.359 4.507-28.842-23.84-42.092-25.279-13.843-1.504-32.512 16.277-33.982 29.61-.852 7.738 3.428 14.989 13.478 16.589 5.024.8 13.362-15.795 17.702-18.791 18.427 2.379 32.786 22.892 52.188 16.344 20.996-7.084 13.872-25.615-7.294-18.473z"/><path fill="#e8b077" d="M1949.066 838.376c22.174 7.596 18.623 64.996 13.156 107.848-3.336 26.143-24.926 35.257-24.847 61.1.351 113.944-20.882 228.596-87.524 228.888-94.416.416-221.14-129.041-208.364-149.254l18.11-280.081 274.413-1.207 15.056 32.706z"/><path fill="#443122" d="m1933.591 1087.68-56.299 5.427-120.901-27.851-45.068 37.908c-24.303 9.922-33.214-22.825-33.355-52.008l-41.398-15.204-4.699 85.703 92.234 118.63c7.731 8.561 38.357 24.474 49.806 25.879l65.118 7.989c38.844 4.766 74.743-40.163 92.643-74.964 20.711-40.267 16.453-132.982 5.154-158.6-1.843-4.176-3.795 51.672-3.235 47.091zm-51.965 115.472c-32.229-31.049-59.532-24.997-80.056-7.708-12.98-1.126-50.708-11.393-55.205-23.621l-10.463-28.453c.678-12.358 5.758-23.377 11.308-31.906 7.439-11.432 21.623-16.453 34.805-12.952l88.993 11.021c9.283 1.487 29.398 2.501 38.236-.708 21.166-7.684 18.509 1.04 8.67 30.25l-9.899 39.003c-7.403 15.83-15.986 26.764-26.389 25.074z"/><path fill="#b77e4b" d="M1868.691 928.371c-14.37 90.509 37.027 150.092 10.972 150.207l-72.324-1.585 69.952 16.114c73.675 3.339-40.646-123.742 77.435-147.294-.508-5.172-49.136-22.195-86.035-17.442z"/><path fill="#443122" d="M1943.403 951.331c-22.01-9.1-45.38-9.505-70.11-1.211-4.993 1.674-10.252-2.145-9.491-7.017l1.614-10.326c.402-2.575 2.457-4.673 5.218-5.185 22.926-4.249 48.078-2.86 78.701 12.38 2.604 1.295 4.054 4.007 3.638 6.669-.648 4.139-5.378 6.424-9.57 4.69z"/><path fill="#b77e4b" d="M1836.755 937.535c.072 16.402 1.386 80.602-35.685 80.765l-20.953-6.308-40.08-74.169c27.404-9.73 68.677-5.597 96.718-.288z"/><path fill="#443122" d="M1817.296 985.348c2.013 3.829-10.92 9.676-17.278 10.353-13.069 2.222-14.413-3.066-21.352.226-17.704 9.225-16.479 16.518-21.356 15.203-5.643-1.52 4.519-19.245 29.767-30.098 14.582-6.267 28.452.957 30.219 4.316zM1739.849 931.309c34.421-6.851 68.578-8.316 102.473-4.396 4.087.473 7.067 3.024 6.931 5.817l-.428 8.776c-.163 3.36-4.729 5.766-9.584 4.946-29.717-5.02-61.975-6.002-95.879-4.378-4.916.236-9.19-2.507-9.027-5.857.111-2.287 2.309-4.27 5.514-4.908z"/><path fill="#443122" d="M1959.817 956.305s15.236-12.938 14.962-75.113c-.732-166.475-203.837-184.711-272.599-169.339-68.763 15.372-132.59 47.123-131.988 182.675.353 80.37 20.752 157.01 107.776 156.628-.651-148.009 36.762-101.43 36.558-147.838-.129-29.186-52.168-42.09-25.737-67.9 37.904-37.014 129.821 2.279 191.808 7.738 39.655-10.771 68.469-4.78 68.469-4.78 19.244 3.208 21.774 78.341 10.751 117.929z"/><path fill="#e8b077" d="M1604.707 969.699c-14.841.065-30.035 5.9-28.109 57.128.103 23.503 12.713 45.218 23.87 59.596 16.211 20.893 3.503 39.633 20.984 39.557 21.776-.096 18.369-50.211 18.262-74.365 0 0 6.424-82.098-35.007-81.916z"/><path fill="#b77e4b" d="M1619.019 1090.786a5.844 5.844 0 0 0 5.822-5.873c-.039-8.731-4.749-13.713-8.53-17.722-3.579-3.788-5.605-6.148-5.625-10.579-.011-2.53.256-2.708 3.796-4.271 4.206-1.857 11.256-4.966 11.207-16.027-.09-20.546-2.931-54.996-20.958-54.917-20.66.091-20.554 24.234-20.52 32.165a5.844 5.844 0 0 0 5.873 5.822 5.844 5.844 0 0 0 5.822-5.873c-.089-20.38 5.524-20.405 8.876-20.42 2.312-.01 9.069 10.622 9.213 43.273.015 3.403-.72 3.726-4.237 5.278-4.047 1.783-10.812 4.771-10.767 15.021.041 9.267 4.906 14.42 8.819 18.56 3.494 3.702 5.319 5.812 5.336 9.741a5.845 5.845 0 0 0 5.873 5.822z"/><path fill="#443122" d="M1883.343 1003.729c-3.774 4.019 7.281 2.031 13.668-.666 12.769-4.895 12.502-11.786 18.366-12.732 14.604-1.765 13.681 1.535 22.915 1.57 4.245-5.135-9.148-16.776-21.325-13.34-12.608 2.495-30.312 21.641-33.624 25.168zM1811.77 998.101c2.172 8.146-2.671 16.511-10.816 18.684-8.146 2.172-16.511-2.67-18.684-10.817-2.173-8.147 2.67-16.511 10.816-18.684 8.147-2.171 16.512 2.671 18.684 10.817z"/><path fill="#443122" d="M1934.047 1000.115c2.454 7.858-1.927 16.217-9.784 18.671-7.858 2.454-16.217-1.927-18.67-9.784-2.454-7.857 1.927-16.216 9.784-18.671 7.857-2.454 16.216 1.927 18.67 9.784z"/><path fill="#b77e4b" d="M1772.655 1107.111c32.428 61.063 68.267 72.407 108.677 17.133 1.157-1.583-.402-3.637-2.469-3.308-35.18 5.59-69.261-4.837-103.239-16.778-1.999-.703-3.902 1.195-2.969 2.953z"/><path fill="#fff" d="M1799.881 1118.739c17.401 23.458 45.084 32.883 70.227 8.629 1.303-1.257-.022-3.263-1.875-2.86-17.955 3.903-47.711-1.111-66.159-8.304-1.723-.672-3.242 1.12-2.193 2.535z"/><path fill="#443122" d="M1836.575 729.669c-1.675 30.542-27.792 53.944-58.334 52.269-30.542-1.675-53.944-27.792-52.269-58.334 1.675-30.542 27.792-53.944 58.334-52.269 30.543 1.675 53.944 27.791 52.269 58.334z"/><path fill="#443122" d="M1817.901 771.203c-1.286 23.434 16.67 43.473 40.104 44.758 23.434 1.286 43.473-16.67 44.758-40.104 1.286-23.434-16.67-43.473-40.104-44.758-23.434-1.285-43.473 16.67-44.758 40.104z"/><path fill="#443122" d="M1893.688 798.796c-.783 14.281 10.159 26.494 24.441 27.277 14.281.783 26.494-10.159 27.277-24.441.783-14.281-10.16-26.494-24.441-27.277-14.281-.783-26.493 10.159-27.277 24.441zM1762.265 810.711c-.694 12.671-11.529 22.379-24.2 21.684-12.671-.695-22.379-11.53-21.684-24.2.695-12.671 11.53-22.379 24.2-21.684 12.671.695 22.379 11.53 21.684 24.2z"/><path fill="#443122" d="M1724.562 830.867c-1.051 19.163-17.438 33.846-36.601 32.795-19.163-1.051-33.846-17.438-32.796-36.601 1.051-19.164 17.438-33.847 36.601-32.796 19.164 1.052 33.847 17.438 32.796 36.602z"/><path fill="#443122" d="M1705.883 784.612c-1.875 34.2-31.12 60.404-65.32 58.529-34.2-1.875-60.404-31.12-58.529-65.32 1.876-34.2 31.12-60.404 65.32-58.528 34.2 1.875 60.405 31.119 58.529 65.319z"/><circle cx="1708.704" cy="733.159" r="51.53" fill="#443122" transform="rotate(-65.795 1708.704 733.136)"/><path fill="#443122" d="M1585.068 864.359c-.733 13.359-12.156 23.595-25.515 22.862-13.36-.732-23.595-12.156-22.863-25.516.733-13.359 12.156-23.595 25.515-22.862 13.36.733 23.595 12.157 22.863 25.516z"/><circle cx="1590.659" cy="815.358" r="51.35" fill="#443122" transform="rotate(-49.564 1590.67 815.406)"/><path fill="#443122" d="M1613.937 913.506c-.953 17.38-15.815 30.696-33.195 29.743-17.38-.953-30.697-15.815-29.744-33.195.953-17.38 15.815-30.697 33.195-29.743 17.38.953 30.696 15.815 29.744 33.195zM1685.174 955.193c-1.028 18.749-17.06 33.115-35.809 32.086-18.749-1.028-33.115-17.06-32.086-35.81 1.028-18.749 17.06-33.115 35.809-32.086 18.749 1.029 33.115 17.061 32.086 35.81zM1687.615 869.983c-.733 13.359-12.156 23.595-25.516 22.862-13.359-.733-23.595-12.157-22.863-25.515.733-13.359 12.157-23.595 25.516-22.863 13.359.733 23.595 12.156 22.863 25.516zM1922.467 814.476c-.426 7.765 5.524 14.405 13.289 14.831 7.765.426 14.405-5.524 14.83-13.288.426-7.765-5.524-14.405-13.289-14.831-7.765-.427-14.404 5.523-14.83 13.288z"/><circle cx="1837.822" cy="722.646" r="49.575" fill="#443122" transform="rotate(-15.017 1837.916 722.683)"/><path fill="#443122" d="M1875.638 774.089c-1.4 25.531 18.161 47.362 43.693 48.763 25.531 1.4 47.362-18.162 48.763-43.693 1.4-25.531-18.161-47.363-43.692-48.763-25.533-1.399-47.365 18.162-48.764 43.693z"/><path fill="#443122" d="M1855.631 741.217c-.931 16.971 12.073 31.484 29.044 32.414 16.972.931 31.484-12.073 32.415-29.044.93-16.972-12.073-31.484-29.044-32.415-16.972-.93-31.484 12.073-32.415 29.045zM1934.048 804.538c-.626 11.42 8.123 21.185 19.544 21.812 11.42.626 21.186-8.123 21.812-19.544.626-11.42-8.124-21.186-19.544-21.812-11.42-.626-21.185 8.124-21.812 19.544z"/><path fill="#cec6c6" d="M3195.287 4162.255c-15.654 0-30.539-9.205-37.041-24.532l-815.061-1922.747c-8.666-20.442.883-44.046 21.334-52.712 20.433-8.648 44.037.883 52.712 21.334l815.061 1922.747c8.666 20.442-.884 44.046-21.334 52.713a40.172 40.172 0 0 1-15.671 3.197z"/><path fill="#847474" d="M2212.504 2261.142c-19.912 0-37.209-14.788-39.824-35.062-2.844-22.023 12.703-42.183 34.726-45.027l167.652-21.643c22.094-2.924 42.191 12.703 45.027 34.727 2.845 22.023-12.703 42.182-34.726 45.027l-167.652 21.643a39.91 39.91 0 0 1-5.203.335z"/><path fill="#cec6c6" d="M3499.124 3982.289c-15.389 0-30.08-8.887-36.749-23.843l-795.308-1783.382-53.031 6.846c-21.943 2.88-42.182-12.694-45.027-34.726-2.844-22.023 12.703-42.183 34.726-45.027l82.713-10.68c17.597-2.235 34.629 7.271 41.873 23.498L3535.82 3925.69c9.046 20.283-.062 44.055-20.344 53.101a40.014 40.014 0 0 1-16.352 3.498z"/><path fill="#847474" d="M2608.833 2182.246c-19.912 0-37.209-14.789-39.824-35.062-2.844-22.023 12.703-42.183 34.726-45.027l82.713-10.68c21.97-2.871 42.182 12.703 45.027 34.726 2.844 22.023-12.703 42.182-34.726 45.027l-82.713 10.68c-1.749.23-3.48.336-5.203.336z"/><path fill="#eaa871" d="M2567.295 1922.247h702.645v971.961h-702.645z" transform="rotate(-26.337 2918.605 2408.017)"/><path fill="#ffc692" d="M2840.503 1858.32h414.478v971.961h-414.478z" transform="rotate(-26.337 3047.719 2344.086)"/><path fill="#eaa871" d="M3000.061 1858.541h94.473v971.961h-94.473z" transform="rotate(-26.337 3047.274 2344.306)"/><path fill="#d19a75" d="M2682.844 2016.176h92.095v971.961h-92.095z" transform="rotate(-26.337 2728.897 2501.954)"/><path fill="#ffe4d2" d="M2916.706 1910.252h127.526v217.279h-127.526z" transform="rotate(-26.337 2980.433 2018.691)"/><path fill="#d19a75" d="M2580.271 2434.664h286.622v93.411h-286.622z" transform="rotate(-27.311 2723.768 2481.506)"/><path fill="#eaa871" d="M2827.768 2273.626h415.331v93.411h-415.331z" transform="rotate(-27.311 3035.634 2320.455)"/><path fill="#dbb8a1" d="M2976.954 2112.297H3622v628.483h-645.046z" transform="rotate(-25.133 3299.147 2426.423)"/><path fill="#f2d6c4" d="M3228.979 2056.125h380.502v628.483h-380.502z" transform="rotate(-25.133 3418.889 2370.258)"/><path fill="#dbb8a1" d="M3375.453 2056.319h86.729v628.483h-86.729z" transform="rotate(-25.133 3418.478 2370.452)"/><path fill="#c9a693" d="M3081.25 2194.83h84.546v628.483h-84.546z" transform="rotate(-25.133 3123.202 2508.944)"/><path fill="#f9e5d9" d="M3491.168 2431.908h117.073v140.496h-117.073z" transform="rotate(-25.133 3549.362 2502.045)"/><path fill="#c99c77" d="M2792.66 2681.702h1266.41v404.96H2792.66z" transform="rotate(-23.46 3426.134 2884.368)"/><path fill="#eac19b" d="M3260.657 2584.524h778.234v404.96h-778.234z" transform="rotate(-23.46 3650.058 2787.18)"/><path fill="#f2d6c4" d="M2862.236 2919.708h203.901v157.738h-203.901z" transform="rotate(-23.46 2964.423 2998.775)"/><path fill="#db995d" d="M2984.499 3048.475h1219.042v809.92H2984.499z" transform="rotate(-24.638 3593.553 3453.094)"/><path fill="#ffbf80" d="M3577.649 2918.685h596.326v809.92h-596.326z" transform="rotate(-24.638 3875.317 3323.324)"/><path fill="#ffdcc0" d="M3624.265 3065.094h190.493v325.112h-190.493z" transform="rotate(-24.638 3719.044 3227.344)"/><path fill="#ffd2a9" d="M3923.38 2882.789h61.288v811.099h-61.288z" transform="rotate(-25.627 3953.791 3288.26)"/><path fill="#dbb79c" d="M3273.439 3173.467h92.157v810.864h-92.157z" transform="rotate(-25.627 3319.313 3578.8)"/><path fill="#cec6c6" d="M3195.252 4162.247c-16.537 0-31.873-10.266-37.765-26.467-7.094-19.488 1.802-41.167 20.53-50.062l860.732-408.997a36.172 36.172 0 0 1 2.553-1.104l341.417-134.135c19.779-7.809 42.28 1.219 51.21 20.566 8.922 19.337 1.219 42.288-17.562 52.323l-841.35 449.43a40.677 40.677 0 0 1-8.843 3.454l-360.798 93.693a39.967 39.967 0 0 1-10.124 1.299z"/><circle cx="3195.27" cy="4122.034" r="157.137" fill="#6d6c7c" transform="rotate(-45.001 3195.237 4122.09)"/><circle cx="3195.27" cy="4122.034" r="61.892" fill="#cec6c6" transform="rotate(-87.805 3195.097 4121.886)"/><path fill="#b51818" d="m2088.899 1709.441-136.396 37.948c-25.356 5.058-33.092-1.839-32.781-40.347l.123-72.534c-1.494-14.572 27.128-29.253 38.229-32.029l106.867-16.613c12.041-3.011 29.047.618 30.668 16.424l8.968 35.66c1.494 14.571 5.086 65.163-15.678 71.491z"/><path fill="#b51818" d="m1996.166 1533.343-.969 66.593 38.901-3.27z"/><path fill="#fff" d="m2095.181 1693.797-138.889 34.736c-12.041 3.011-23.55-7.768-25.17-23.574l-8.264-80.608c-1.494-14.572 6.013-28.129 17.114-30.906l138.889-34.736c12.041-3.011 23.55 7.768 25.17 23.573l8.264 80.608c1.495 14.574-6.013 28.131-17.114 30.907z"/><path fill="#ffaa45" d="M2104.638 1588.2c-.984-18.643-6.969-32.59-25.011-29.682l-140.336 35.098c-10.718 2.68-19.502 14.245-15.89 36.022l181.237-41.438z"/><path fill="#9e9e9e" d="M1962.454 1702.098c-2.078-2.354-3.6-6.117-4.554-11.277-1.366-7.399-2.228-13.207-2.591-17.438-.459-5.19.931-9.236 4.164-12.147 1.056-.936 2.52-1.418 4.391-1.44 1.735.004 2.69-.15 2.87-.446.547-.773-.272-6.325-2.476-16.696-.485-3.074-.852-5.654-1.097-7.739-.143-1.056.133-1.625.822-1.701.686-.102 1.148.429 1.385 1.604 1.084 5.243 3.325 19.311 6.721 42.213.211 1.316.662 4.094 1.359 8.317.591 3.547.988 6.157 1.196 7.814.092.764.245 1.727.455 2.88l.35 2.2c.149 1.303.041 2.301-.326 2.986-.475.892-1.824 1.648-4.048 2.284-3.9 1.188-6.77.715-8.621-1.414zm-4.687-28.829c.319 4.324.944 9.077 1.875 14.24 1.25 7.023 2.581 11.087 3.987 12.204 1.508 1.197 3.41 1.634 5.709 1.316 2.16-.331 3.373-.981 3.637-1.961.415-1.603-.53-8.118-2.843-19.549-1.752-10.38-2.721-15.601-2.897-15.663-.859-1.012-2.686-1.06-5.485-.172-.988.305-1.909 1.294-2.761 2.977-.977 1.974-1.385 4.174-1.222 6.608zM1993.022 1692.553c.631-.61 1.236-.504 1.81.287.567.76.625 1.466.167 2.138-1.372 1.926-3.087 3.118-5.146 3.56-1.895.398-3.6.071-5.108-.981-2.394-1.696-4.11-5.981-5.142-12.867-1.148-7.593-1.953-13.41-2.422-17.429-.768-6.25.19-10.296 2.856-12.182 2.445-1.714 4.544-2.063 6.297-1.087.927.552 1.926 1.74 2.999 3.564.822 1.493 1.379 3.865 1.664 7.094.292 3.41.061 5.923-.7 7.509-.649 1.369-1.987 2.566-4.008 3.578-1.766.874-3.451 1.383-5.05 1.515-.472.027-.662.345-.564.972 1.718 10.313 3.467 15.888 5.254 16.718 1.637.813 3.172.777 4.605-.075.331-.207 1.163-.976 2.488-2.314zm-10.359-36.268c-.818.291-1.603.998-2.35 2.111-.771 1.153-1.257 2.5-1.46 4.046-.173 1.215.214 5.071 1.162 11.594.108.698.428.99.941.888 4.232-1.021 6.755-2.58 7.57-4.695.713-1.833.792-4.201.217-7.103-.499-2.637-1.178-4.452-2.038-5.455-1.145-1.408-2.497-1.876-4.042-1.386zM2010.975 1686.608c.604-.053.808.525.611 1.749-.207 1.179-.656 2.323-1.352 3.419-.944 1.453-2.204 2.147-3.78 2.098-1.861-.08-3.308-1.625-4.344-4.629-1.746-5.018-4.48-21.785-8.205-50.27-.204-1.475-.622-4.024-1.25-7.641-.543-3.233-.842-5.141-.903-5.707-.085-.888.221-1.263.91-1.118.666.115 1.09.667 1.277 1.674.078.495.69 4.806 1.834 12.946 1.114 8.07 1.834 12.96 2.153 14.66.119.733.469 3.127 1.06 7.195.696 4.943 1.27 8.834 1.719 11.661 1.651 10.623 2.972 16.595 3.96 17.889.635.813 1.182 1.246 1.637 1.307.537.044 1.213-.38 2.028-1.25.309-.34.757-1.13 1.341-2.385.482-1.037.913-1.567 1.304-1.598zM2008.397 1638.759c.126-.292.493-.526 1.111-.689.591-.159 1.043-.035 1.355.353.357.459.574.954.662 1.52.224 1.431-.204 2.27-1.277 2.522-.598.159-1.104.049-1.532-.358-.387-.327-.608-.764-.662-1.294-.088-.738.024-1.432.343-2.054zm6.086 35c.537 3.578.961 6.175 1.277 7.801.608 3.511 1.179 6.378 1.698 8.609.16.83.485 1.029.978.614.537-.503.697-1.246.493-2.204-.251-1.4-.679-4.112-1.297-8.181-.829-5.23-1.474-9.766-1.936-13.573a113.728 113.728 0 0 0-1.631-10.04c-.703-3.375-1.094-5.388-1.165-6.024-.221-1.577-.652-2.699-1.29-3.366-.625-.596-1.066-.57-1.328.089-.041.075.917 6.065 2.883 17.946.238 1.328.676 4.102 1.318 8.329zM2036.882 1676.837c-.336 6.166-1.542 9.528-3.607 10.08-1.505.402-3.287-1.484-5.349-5.667-1.647-3.344-3.176-7.611-4.582-12.805-2.55-9.364-3.974-15.013-4.279-16.93-.037-.424-.173-1.188-.404-2.297a60.783 60.783 0 0 1-.445-2.284c-.082-.522-.014-.981.2-1.365.2-.336.394-.534.581-.583.737-.124 1.226.406 1.474 1.621.068.239.187.914.364 2.027.156.981.319 1.833.489 2.54.309 1.237 1.637 6.643 3.997 16.25 1.223 5.097 2.595 9.17 4.117 12.226 1.284 2.637 2.37 3.803 3.24 3.494 1.168-.419 1.821-2.76 1.956-7.023.037-1.502-.126-7.593-.499-18.273-.2-5.693-.676-10.371-1.423-14.028-.109-.517-.075-1.087.105-1.723.18-.632.404-.976.676-1.047.645-.172 1.121.208 1.433 1.144.058.159.299 2.664.73 7.5.543 6.44.846 11.091.907 13.958.265 6.772.366 11.167.319 13.185zM2057.104 1675.402c.635-.609 1.236-.504 1.813.292.564.76.622 1.462.17 2.134-1.375 1.926-3.091 3.123-5.148 3.56-1.899.397-3.601.071-5.108-.981-2.395-1.696-4.109-5.981-5.146-12.867-1.145-7.598-1.953-13.41-2.422-17.43-.764-6.25.19-10.3 2.86-12.182 2.445-1.714 4.541-2.063 6.297-1.087.927.552 1.926 1.74 2.996 3.564.825 1.489 1.382 3.865 1.667 7.094.292 3.414.058 5.923-.703 7.509-.649 1.369-1.987 2.566-4.008 3.578-1.763.879-3.447 1.383-5.047 1.515-.476.027-.662.345-.564.972 1.716 10.313 3.464 15.883 5.251 16.714 1.641.813 3.172.782 4.605-.071.334-.207 1.162-.971 2.487-2.314zm-10.352-36.272c-.822.296-1.606 1.003-2.357 2.116-.768 1.153-1.257 2.5-1.457 4.046-.173 1.215.211 5.071 1.161 11.594.112.698.425.99.937.892 4.232-1.025 6.762-2.584 7.574-4.7.717-1.829.788-4.196.218-7.103-.503-2.637-1.178-4.452-2.041-5.459-1.145-1.404-2.493-1.872-4.035-1.386zM2060.11 1641.082c-.061-.388-.282-1.603-.659-3.657-.33-1.723-.482-2.686-.455-2.88.044-.406.333-.707.866-.883.527-.212.825-.102.897.358.092.751.211 1.493.36 2.253.099.636.299.941.605.932 1.644-2.88 3.165-4.594 4.558-5.15 2.843-1.166 5.203-.941 7.078.676.717.645.812 1.245.292 1.829-.526.57-1.138.596-1.841.048-1.203-.874-2.599-1.025-4.191-.451-1.987.676-3.427 2.187-4.317 4.532-.519 1.334-.584 4.346-.21 9.019.425 4.974 2.028 14.307 4.806 27.977a4.128 4.128 0 0 1-.044 1.599c-.139.513-.363.8-.656.879-.618.164-1.087-.234-1.41-1.197-.288-.764-.764-3.534-1.436-8.308-.323-2.2-1.318-8.582-2.985-19.13-.277-1.564-.695-4.382-1.258-8.446zM2082.203 1640.565a50.571 50.571 0 0 0-2.089-3.639c-.666-1.02-1.185-1.922-1.559-2.694-1.8-3.229-2.711-5.089-2.724-5.552-.007-1.246.486-1.789 1.457-1.652.608.106 1.752 1.961 3.444 5.579 2.68 5.799 5.003 10.327 6.98 13.582.234.415.485-1.179.754-4.779.326-5.186.489-7.708.482-7.557.017-.261.183-2.814.51-7.668.047-1.625.506-2.548 1.365-2.778 1.022-.274 1.552.623 1.6 2.685.024.689-.112 2.019-.418 3.984-.374 2.403-.628 4.36-.75 5.884-.119 1.895-.425 4.664-.907 8.33-.476 3.688-.747 5.897-.801 6.594-.092 1.378-.092 4.196-.007 8.472.119 4.443.16 6.913.122 7.39-.156 3.432-.451 5.203-.88 5.318-.536.141-.886.053-1.049-.274-.211-.411-.255-1.44-.149-3.07.4-6.109.156-11.754-.751-16.944-.351-2.019-1.893-5.756-4.63-11.211z"/><path fill="#d8d8d8" d="m2004.72 1577.919-9.523-49.626 28.575-7.579 7.669 50.522z"/><path fill="#b51818" d="M1817.43 1939.156c-48.5-21.151-98.328-85.606-135.801-144.289-39.977-62.606-99.698-110.067-169.943-134.219-115.574-39.738-211.287-75.781-167.172 345.969 0 0 124.783 157.685 162.812 171.527l611.129 145.778-49.203-273.216-251.822-111.55z"/><path fill="#e8b077" d="M2250.418 2125.156c21.754 4.552 47.913 48.203 65.58 78.903 10.143 17.625 13.086 38.624 7.519 58.183-3.902 13.708-9.836 27.204-18.533 31.153l-50.931 23.127c-21.57 9.796-49.177 9.871-74.599.201l-186.89-61.263 7.583-146.496 250.271 16.192z"/><path fill="#ed3232" d="M1757.041 1955.619c-86.088-36.895-116.148-138.18-116.148-138.18l-116.926-326.157c-24.507-66.09-149.079-87.109-213.653-75.564-20.924 3.741-37.609 19.531-43.432 39.973-67.477 236.861-11.791 360.928 196.014 615.638 21.619 27.939 51.736 49.642 85.789 61.823l443.88 122.307 7.583-146.496-243.107-153.344z"/></svg>