<svg xmlns="http://www.w3.org/2000/svg" enable-background="new 0 0 3000 3000" viewBox="0 0 3000 3000"><ellipse cx="1500" cy="2730.5" fill="#ededed" rx="1475" ry="74.7"/><path fill="#f4b037" d="M2860.2,1765.8H983.1v-474.2c0-74.4,60.3-134.7,134.7-134.7h1607.7c74.4,0,134.7,60.3,134.7,134.7V1765.8
						z"/><polygon fill="#585a5e" points="2715 458.9 2715 2248.1 1128.3 2248.1 1128.3 194.8 2426.4 194.8 2481.6 245.2 2664.6 412.7"/><polygon fill="#fff" points="2664.6 412.7 2664.6 2197.6 1178.7 2197.6 1178.7 245.2 2481.6 245.2"/><rect width="623.3" height="36.8" x="1949.9" y="464.5" fill="#b6b7b7"/><rect width="623.3" height="36.8" x="1949.9" y="589.1" fill="#b6b7b7"/><rect width="623.3" height="36.8" x="1949.9" y="713.8" fill="#b6b7b7"/><rect width="1303.2" height="36.8" x="1270" y="1086.8" fill="#b6b7b7"/><rect width="1303.2" height="36.8" x="1270" y="1229.2" fill="#b6b7b7"/><rect width="1303.2" height="36.8" x="1270" y="1371.7" fill="#b6b7b7"/><rect width="1303.2" height="36.8" x="1270" y="1514.2" fill="#b6b7b7"/><rect width="1303.2" height="36.8" x="1270" y="1656.6" fill="#b6b7b7"/><rect width="1303.2" height="36.8" x="1270" y="1799.1" fill="#b6b7b7"/><rect width="662.1" height="36.8" x="1270" y="1941.6" fill="#b6b7b7"/><rect width="499.7" height="499.7" x="1270" y="377.8" fill="#ccd5ed"/><path fill="#585a5e" d="M1768.7,766c0.4,0.2,0.7,0.4,1.1,0.6l0,110.8h-9c-1.2-0.3-2.4-0.7-3.6-1.1l-120-39.8l-27.9-9.3
										l-31.3-10.4l-12.3-4.1l-4.1-1.4l-30.1-53.2l11-24.9l16.8-38l15.4-34.8l12.7-10.8l5.5-4.8c0.2,0,0.4,0.2,0.6,0.4l14.5,9.9
										L1768.7,766z"/><rect width="82.1" height="145.4" x="1467.2" y="542" fill="#fdbab3"/><path fill="#fdbab3" d="M1608.7,519.7c9.4,61.2-34.4,99.1-77.2,99.1c-42.8,0-77.8-43.4-77.8-99.1
										c0-55.6,34.7-100.7,77.5-100.7C1574,418.9,1600.3,464.7,1608.7,519.7z"/><path fill="#414143" d="M1568.6,413.7c-34.5-27.6-64.1-2.7-64.1-2.7c-50.8-14-58.9,41.5-58.9,41.5
										c-58.2-1.5,21.6,138.7,21.6,138.7l5.4-18.7c2.8-9.6,2.3-20-1.7-29.1c-7.8-17.7-9.7-39.3,8.8-42.2
										c16-2.6,24.7,21.4,27.9,32.9c0.9,3.3,4.3,5.3,7.7,4.5l0,0c3.2-0.8,5.2-3.9,4.8-7.1l-7.2-46.5c22.8,6.8,68.1-1.5,77.9-5
										c0,0,41.9-12.8,34.8-56.7c0,0-5.5,11.1-28.2,11.9c0,0,18.8-4.3,16.5-30.9C1613.7,404.2,1588.9,429.8,1568.6,413.7z"/><path fill="#e5e5e5" d="M1615.5,877.4l-167.6,0l0.5-52.7l1-111.6l0-1.4l17.8-84l0.1-0.5l64.2,42.5l17.8-14.7l3.4-2.8
										l19.2-15.9l15.6,13.6l10.3,9l5.3,115.4c0,0,3.1,25.3,6.4,53.2C1611.5,844.8,1613.7,863.4,1615.5,877.4z"/><path fill="#585a5e" d="M1528.3,877.4l-178,0c0-3-0.2-5.9-0.3-8.6l-0.5-98.6c-1.5-28,5.9-54.8,20.3-77.4
										c12.9-20.1,31.3-36.7,53.8-47.6l43.5-18.1h0.1l5.9,8.6c15.6,14.6,27.3,32.3,35.4,51.8c0.2,0.4,0.4,0.9,0.5,1.3
										c6.2,15,10.2,31,12.3,47.3c1.3,9.5,1.9,19.3,1.9,28.9l0.7,14.2L1528.3,877.4z"/><path fill="#585a5e" d="M1641.5,877.4l-59.3,0l-0.2-2.3c-1.3-12.2-2.1-24.4-2.7-36.6c-0.3-6-0.5-12-0.7-18l-0.6-3.6
										l-18.8-121.5l0-0.1l-1.6-10.9l-5-32.3l-3.4-21.9l22.6,6c7.4,2.2,14.6,5.1,21.1,8.8c0.2,0,0.3,0.1,0.5,0.3l0.1,0.1
										c5.2,2.8,10,6.2,14.5,9.9c0.1,0,0.1,0.1,0.1,0.1c16.1,13.5,26.5,32.2,26.5,53.8l0,60.5c0,22.4,0.9,44.6,2.7,66.9
										C1638.3,850.3,1639.8,863.9,1641.5,877.4z"/><polygon fill="#c6c7cd" points="1549.2 630.2 1557.6 684.4 1508.8 688.7 1467.2 627.1 1531.5 669.7"/><path fill="#414143" d="M1609.3,547.2L1609.3,547.2l-85.7-4.6l-5.3-21.7l-13.8,4l11.8,61.9c3.8,19.8,22.6,33,42.7,30l0,0
										C1592,611.7,1612.9,580.2,1609.3,547.2z"/><path fill="#e25651" d="M1607.2,877.4l-50.7,0c-16.8-30.3-27.9-63.6-32.6-98.3c-1.7-12.2-2.6-24.8-2.6-37.3l0-5.8l-0.1-37.1
										l-1.1-11.2l0-0.3l-0.6-6.2l11.9-11.7l10.4,12.6l-0.9,3.6l-0.4,1.6l-2.5,10.1l3.8,31.1c0.2,1.5,0.4,3.1,0.7,4.6
										c3.8,27.8,11.8,54.5,23.2,79.4c4.1,8.8,8.6,17.4,13.6,25.7C1587.4,852.3,1596.8,865.3,1607.2,877.4z"/><path fill="#585a5e" d="M1484.8,787.5l-36.4,37.2l-51.7,52.7l-126.6,0l0-43.2c37.5-62.9,78.3-115.1,99.9-141.4
										c9.7-11.9,15.6-18.4,15.6-18.4l63.8,38.6l23,14L1484.8,787.5z"/><polygon fill="#585a5e" points="2715 458.9 2715 472.1 2664.6 470.8 2573.3 468.3 2428.4 464.5 2420.7 245.2 2418.9 194.8 2426.4 194.8 2481.6 245.2 2664.6 412.7"/><path fill="#fabc3f" d="M2770.6,1554.4H1667.7v-86.7c0-58.5-47.4-105.9-105.9-105.9H1089c-58.5,0-105.9,47.4-105.9,105.9V1644
						v57.3v951.4c0,49.5,40.1,89.6,89.6,89.6h1698c49.5,0,89.6-40.1,89.6-89.6V1644C2860.2,1594.5,2820.1,1554.4,2770.6,1554.4z"/><g><path fill="#fff" d="M1949.9,1668.3h59.5v152.3h1.6l119.3-152.3h66l-103.1,130.8l120.6,204.4h-65.6l-90.6-157.7l-48.2,59.9
						v97.8h-59.5V1668.3z"/><path fill="#fff" d="M2301.1,1878.9l-100.9-210.6h63.6l36.5,85.7c9.8,24.9,19.3,48.2,29.8,73.7h2
						c10.6-25.5,21.1-48.8,30.9-73.7l36.5-85.7h61.9l-100.9,210.6v124.7h-59.5V1878.9z"/><path fill="#fff" d="M2476.1,1837c0-109.7,68.7-174.9,153.6-174.9c42,0,75.4,20.1,96.6,42.4l-31.8,38.3
						c-17.2-17.2-37.3-29.1-63.6-29.1c-54.5,0-93.7,46.1-93.7,121.4c0,76.5,36.1,122.8,92.3,122.8c29.7,0,52.7-13.7,71.6-34.4
						l31.8,37.3c-27.2,31.6-62.1,48.8-105.6,48.8C2542.9,2009.7,2476.1,1947.9,2476.1,1837z"/></g><g><path fill="#e25651" d="M2171.2,1461.8c-168.1,0-304.8-136.8-304.8-304.8s136.8-304.8,304.8-304.8
						c168.1,0,304.8,136.8,304.8,304.8S2339.3,1461.8,2171.2,1461.8z M2171.2,890.3c-147,0-266.6,119.6-266.6,266.6
						s119.6,266.6,266.6,266.6s266.6-119.6,266.6-266.6S2318.3,890.3,2171.2,890.3z"/><polygon fill="#e25651" points="2112.6 1318.4 1972.9 1198.1 1997.9 1169.2 2109.1 1264.9 2434.6 899.1 2463.1 924.6"/></g><g><path fill="#97623d" d="M150.9,2734.1c1.5,3.3,4.1,5.9,7.5,7.2c1.5,0.6,3.2,0.9,4.9,0.9c5.7,0,10.6-3.4,12.7-8.7l51.1-131.4h351
				l-47.2,121.5c-2.7,7,0.8,14.9,7.8,17.6c1.6,0.6,3.2,0.9,4.9,0.9c5.7,0,10.6-3.4,12.7-8.7L793.1,2124c0,0,0,0,0,0l45.6-117.2
				l136.8,352c0,0.1,0.1,0.2,0.1,0.4l91.3,234.8c0,0,0,0,0,0l54.3,139.7c2.1,5.3,7,8.7,12.7,8.7c1.7,0,3.4-0.3,4.9-0.9
				c3.4-1.3,6-3.9,7.5-7.2c1.5-3.3,1.5-7,0.2-10.4l-47.2-121.5h351l51.1,131.4c2.1,5.3,7,8.7,12.7,8.7c1.7,0,3.4-0.3,4.9-0.9
				c3.4-1.3,6-3.9,7.5-7.2c1.5-3.3,1.5-7,0.2-10.4l-54.5-140.2c0-0.1-0.1-0.2-0.1-0.3l-182.5-469.6c0-0.1-0.1-0.2-0.1-0.2
				L1107,1643.8c0-0.1-0.1-0.2-0.1-0.4l-51.4-132.1h21c6,0,10.9-4.9,10.9-10.9v-27.8c0-6-4.9-10.9-10.9-10.9H600.9
				c-6,0-10.9,4.9-10.9,10.9v27.8c0,6,4.9,10.9,10.9,10.9h21l-51.4,132.2c0,0.1-0.1,0.1-0.1,0.2l-182.6,469.7c0,0,0,0.1,0,0.1
				l-182.6,469.8c0,0,0,0.1,0,0.1l-54.6,140.4C149.4,2727.1,149.4,2730.8,150.9,2734.1z M760.7,2132.3L680,2340H329l80.7-207.7
				H760.7z M734.1,1662.5h209.2l-80.7,207.7h-47.7L734.1,1662.5z M511.6,1870.2l80.7-207.7h112.6l80.7,207.7H511.6z M675.4,1511.3
				h326.7l-48.2,123.9H723.5L675.4,1511.3z M1085.1,1662.5l80.7,207.7h-274l80.7-207.7H1085.1z M852,1897.4l-13.3,34.2l-13.3-34.2
				H852z M602.9,1635.2l45.7-117.6l45.7,117.6H602.9z M1028.8,1517.7l45.7,117.6h-91.4L1028.8,1517.7z M997.5,2340l-80.7-207.7h351
				l80.7,207.7H997.5z M1439.7,2575h-351l-80.7-207.7h351L1439.7,2575z M906.1,2105.1l-52.8-135.9l27.9-71.8h295.2l80.7,207.7H906.1
				z M824.1,1969.2l-52.8,135.9h-351l80.7-207.7h295.2L824.1,1969.2z M588.7,2575h-351l80.7-207.7h351L588.7,2575z"/></g><g><rect width="57.2" height="55.8" x="635.7" y="1977.7" fill="#fdbab3" transform="rotate(-89.999 664.324 2005.624)"/><path fill="#2a2a2c" d="M815.4,2072.7c0,0,7.3,39.2-73.1,31.4c-7.9-0.8-15.7-2.3-23.3-4.4c-10.9-3.1-28.9-6.9-41.6-8l-0.5,13.1
							l-48-2.7c-5.1-0.5-8.9-4.9-8.7-10l2.4-29.4c0,0,80.7,2.4,82,3c1.4,0.6,69.8,15.4,69.8,15.4L815.4,2072.7z"/><path fill="#414143" d="M776.1,2098.6l-2.6,0.1c-8.2,0.4-18,0.1-29.7-1c-7.9-0.7-15.7-2.2-23.3-4.4c-10.9-3.1-28.9-7.8-41.6-8.8
							c0,0-9.6-0.2-20.8-0.8c-0.8,0-1.6-0.1-2.4-0.1c-1.9-0.1-3.9-0.2-5.8-0.3c-0.8,0-1.7-0.1-2.5-0.1c-1.5-0.1-3-0.2-4.4-0.3
							c-0.8-0.1-1.7-0.1-2.5-0.2c-10.3-0.9-18.6-2.3-18.5-4.2c-0.7-7.7-1-15.4-0.6-23.1c0.4-9.2,1.6-18.3,3.7-27.4
							c1.4-6.1,7-10.2,13.2-9.4l43.7,5.1c3.4,0.4,6.6-0.8,9-3.1c0.2-0.3,0.5-0.5,0.7-0.8l0.1-0.1l0.6-0.8l0-0.1l0.1-0.1l1.6-1.9l0,0
							l1.6-1.9l0.1-0.1c2-2.4,5.7-2.4,7.7,0c8.5,9.8,17.6,18.6,27.3,26.5c12.4,10.2,27.3,17.1,43,19.9c0.9,0.1,1.8,0.3,2.7,0.4
							c3.4,0.5,6.9,0.8,10.4,0.9c28.9,0.9,28.4,10.5,28.4,10.5S821.6,2095.7,776.1,2098.6z"/><path fill="#c6c7cd" d="M689.6,2024c-0.1,1.4,1,2.7,2.4,2.8c1.4,0.1,2.7-1,2.8-2.4c0.1-1.4-1-2.7-2.4-2.8
								C691,2021.5,689.7,2022.6,689.6,2024z"/><path fill="#2a2a2c" d="M692.1,2025.5c0.4,0,0.7-0.1,1-0.4l10.5-10.4c0.5-0.5,0.5-1.3,0-1.8c-0.5-0.5-1.3-0.5-1.8,0l-10.5,10.4
									c-0.5,0.5-0.5,1.3,0,1.8C691.5,2025.4,691.8,2025.5,692.1,2025.5z"/><path fill="#c6c7cd" d="M695.9,2029c-0.1,1.4,1,2.7,2.4,2.8c1.4,0.1,2.7-1,2.8-2.4c0.1-1.4-1-2.7-2.4-2.8
								C697.3,2026.5,696,2027.6,695.9,2029z"/><path fill="#2a2a2c" d="M698.4,2030.5c0.4,0,0.7-0.1,1-0.4l9.8-9.8c0.5-0.5,0.5-1.3,0-1.8c-0.5-0.5-1.3-0.5-1.8,0l-9.8,9.8
									c-0.5,0.5-0.5,1.3,0,1.8C697.8,2030.3,698.1,2030.5,698.4,2030.5z"/><path fill="#c6c7cd" d="M702.2,2034.3c-0.1,1.4,1,2.7,2.4,2.8c1.4,0.1,2.7-1,2.8-2.4c0.1-1.4-1-2.7-2.4-2.8
								C703.5,2031.8,702.3,2032.9,702.2,2034.3z"/><path fill="#2a2a2c" d="M704.7,2035.8c0.4,0,0.7-0.1,1-0.4l9.3-9.4c0.5-0.5,0.5-1.3,0-1.8c-0.5-0.5-1.3-0.5-1.8,0l-9.3,9.4
									c-0.5,0.5-0.5,1.3,0,1.8C704.1,2035.7,704.4,2035.8,704.7,2035.8z"/><path fill="#c6c7cd" d="M708,2039.8c0,1.4,1.1,2.6,2.5,2.7c1.4,0,2.6-1.1,2.7-2.5c0-1.4-1.1-2.6-2.5-2.7
								C709.3,2037.2,708,2038.3,708,2039.8z"/><path fill="#2a2a2c" d="M710.6,2041.1c0.4,0,0.7-0.1,1-0.4l8.7-9.4c0.5-0.5,0.5-1.3,0-1.8c-0.5-0.5-1.3-0.5-1.8,0l-8.7,9.4
									c-0.5,0.5-0.5,1.3,0,1.8C710,2041,710.3,2041.1,710.6,2041.1z"/><path fill="#c6c7cd" d="M714.5,2044.5c0,1.4,1.1,2.6,2.5,2.7c1.4,0,2.6-1.1,2.7-2.5c0-1.4-1.1-2.6-2.5-2.7
								C715.7,2041.9,714.5,2043,714.5,2044.5z"/><path fill="#2a2a2c" d="M717,2045.8c0.4,0,0.7-0.1,1-0.4l8.4-9.1c0.5-0.5,0.5-1.3,0-1.8c-0.5-0.5-1.3-0.5-1.8,0l-8.4,9.1
									c-0.5,0.5-0.5,1.3,0,1.8C716.5,2045.7,716.7,2045.8,717,2045.8z"/><path fill="#c6c7cd" d="M721,2049.5c0,1.4,1.1,2.6,2.5,2.7c1.4,0,2.6-1.1,2.7-2.5c0-1.4-1.1-2.6-2.5-2.7
								C722.2,2046.9,721,2048.1,721,2049.5z"/><path fill="#2a2a2c" d="M723.5,2050.9c0.4,0,0.7-0.1,1-0.4l8.1-8.5c0.5-0.5,0.5-1.3,0-1.8c-0.5-0.5-1.3-0.5-1.8,0l-8.1,8.5
									c-0.5,0.5-0.5,1.3,0,1.8C722.9,2050.7,723.2,2050.8,723.5,2050.9z"/><path fill="#2a2a2c" d="M734.5,2055.9c0,4.4-1.9,8.7-5.2,11.6c-3.5,3-8.2,4.2-12.7,3.3l-42.4-8.5c-3.5-0.7-7,0.1-9.9,2.2
							c-2.8,2-4.7,5.3-5.1,8.7l-1.1,10.5c-0.8,0-1.6-0.1-2.4-0.1l1.1-10.6c0.5-4.1,2.7-8,6-10.5c3.4-2.4,7.7-3.4,11.8-2.6l42.4,8.5
							c3.8,0.8,7.7-0.2,10.6-2.8c2.8-2.4,4.4-6,4.3-9.7c0-3.8-1.8-7.2-4.7-9.6l-34.7-28l1.6-1.9l34.7,28
							C732.4,2047.2,734.4,2051.4,734.5,2055.9z"/><rect width="57.2" height="55.8" x="428.2" y="1977.7" fill="#fdbab3" transform="rotate(-90 456.755 2005.624)"/><path fill="#2a2a2c" d="M607.9,2072.7c0,0,7.3,39.2-73.1,31.4c-7.9-0.8-15.7-2.3-23.3-4.4c-10.9-3.1-28.9-6.9-41.6-8l-0.5,13.1
							l-48-2.7c-5.1-0.5-8.9-4.9-8.7-10l2.4-29.4c0,0,80.7,2.4,82,3c1.4,0.6,69.8,15.4,69.8,15.4L607.9,2072.7z"/><path fill="#414143" d="M568.6,2098.6l-2.6,0.1c-8.2,0.4-18,0.1-29.7-1c-7.9-0.7-15.7-2.2-23.3-4.4c-10.9-3.1-28.9-7.8-41.6-8.8
							c0,0-9.6-0.2-20.8-0.8c-0.8,0-1.6-0.1-2.4-0.1c-1.9-0.1-3.9-0.2-5.8-0.3c-0.8,0-1.7-0.1-2.5-0.1c-1.5-0.1-3-0.2-4.4-0.3
							c-0.8-0.1-1.7-0.1-2.5-0.2c-10.3-0.9-18.6-2.3-18.5-4.2c-0.7-7.7-1-15.4-0.6-23.1c0.4-9.2,1.6-18.3,3.7-27.4
							c1.4-6.1,7-10.2,13.2-9.4l43.7,5.1c3.4,0.4,6.6-0.8,9-3.1c0.2-0.3,0.5-0.5,0.7-0.8l0.1-0.1l0.6-0.8l0-0.1l0.1-0.1l1.6-1.9l0,0
							l1.6-1.9l0.1-0.1c2-2.4,5.7-2.4,7.7,0c8.5,9.8,17.6,18.6,27.3,26.5c12.4,10.2,27.3,17.1,43,19.9c0.9,0.1,1.8,0.3,2.7,0.4
							c3.4,0.5,6.9,0.8,10.4,0.9c28.9,0.9,28.4,10.5,28.4,10.5S614,2095.7,568.6,2098.6z"/><path fill="#c6c7cd" d="M482,2024c-0.1,1.4,1,2.7,2.4,2.8c1.4,0.1,2.7-1,2.8-2.4c0.1-1.4-1-2.7-2.4-2.8
								C483.4,2021.5,482.1,2022.6,482,2024z"/><path fill="#2a2a2c" d="M484.5,2025.5c0.4,0,0.7-0.1,1-0.4l10.5-10.4c0.5-0.5,0.5-1.3,0-1.8c-0.5-0.5-1.3-0.5-1.8,0l-10.5,10.4
									c-0.5,0.5-0.5,1.3,0,1.8C483.9,2025.4,484.2,2025.5,484.5,2025.5z"/><path fill="#c6c7cd" d="M488.3,2029c-0.1,1.4,1,2.7,2.4,2.8c1.4,0.1,2.7-1,2.8-2.4c0.1-1.4-1-2.7-2.4-2.8
								C489.7,2026.5,488.4,2027.6,488.3,2029z"/><path fill="#2a2a2c" d="M490.8,2030.5c0.4,0,0.7-0.1,1-0.4l9.8-9.8c0.5-0.5,0.5-1.3,0-1.8c-0.5-0.5-1.3-0.5-1.8,0l-9.8,9.8
									c-0.5,0.5-0.5,1.3,0,1.8C490.2,2030.3,490.5,2030.5,490.8,2030.5z"/><path fill="#c6c7cd" d="M494.6,2034.3c-0.1,1.4,1,2.7,2.4,2.8c1.4,0.1,2.7-1,2.8-2.4c0.1-1.4-1-2.7-2.4-2.8
								C495.9,2031.8,494.7,2032.9,494.6,2034.3z"/><path fill="#2a2a2c" d="M497.1,2035.8c0.4,0,0.7-0.1,1-0.4l9.3-9.4c0.5-0.5,0.5-1.3,0-1.8c-0.5-0.5-1.3-0.5-1.8,0l-9.3,9.4
									c-0.5,0.5-0.5,1.3,0,1.8C496.5,2035.7,496.8,2035.8,497.1,2035.8z"/><path fill="#c6c7cd" d="M500.4,2039.8c0,1.4,1.1,2.6,2.5,2.7c1.4,0,2.6-1.1,2.7-2.5c0-1.4-1.1-2.6-2.5-2.7
								C501.7,2037.2,500.5,2038.3,500.4,2039.8z"/><path fill="#2a2a2c" d="M503,2041.1c0.4,0,0.7-0.1,1-0.4l8.7-9.4c0.5-0.5,0.5-1.3,0-1.8c-0.5-0.5-1.3-0.5-1.8,0l-8.7,9.4
									c-0.5,0.5-0.5,1.3,0,1.8C502.4,2041,502.7,2041.1,503,2041.1z"/><path fill="#c6c7cd" d="M506.9,2044.5c0,1.4,1.1,2.6,2.5,2.7c1.4,0,2.6-1.1,2.7-2.5c0-1.4-1.1-2.6-2.5-2.7
								C508.2,2041.9,507,2043,506.9,2044.5z"/><path fill="#2a2a2c" d="M509.5,2045.8c0.4,0,0.7-0.1,1-0.4l8.4-9.1c0.5-0.5,0.5-1.3,0-1.8c-0.5-0.5-1.3-0.5-1.8,0l-8.4,9.1
									c-0.5,0.5-0.5,1.3,0,1.8C508.9,2045.7,509.2,2045.8,509.5,2045.8z"/><path fill="#c6c7cd" d="M513.4,2049.5c0,1.4,1.1,2.6,2.5,2.7c1.4,0,2.6-1.1,2.7-2.5c0-1.4-1.1-2.6-2.5-2.7
								C514.7,2046.9,513.5,2048.1,513.4,2049.5z"/><path fill="#2a2a2c" d="M516,2050.9c0.4,0,0.7-0.1,1-0.4l8.1-8.5c0.5-0.5,0.5-1.3,0-1.8c-0.5-0.5-1.3-0.5-1.8,0l-8.1,8.5
									c-0.5,0.5-0.5,1.3,0,1.8C515.4,2050.7,515.7,2050.8,516,2050.9z"/><g><path fill="#2a2a2c" d="M526.9,2055.9c0,4.4-1.9,8.7-5.2,11.6c-3.5,3-8.2,4.2-12.7,3.3l-42.4-8.5c-3.5-0.7-7,0.1-9.9,2.2
							c-2.8,2-4.7,5.3-5.1,8.7l-1.1,10.5c-0.8,0-1.6-0.1-2.4-0.1l1.1-10.6c0.5-4.1,2.7-8,6-10.5c3.4-2.4,7.7-3.4,11.8-2.6l42.4,8.5
							c3.8,0.8,7.7-0.2,10.6-2.8c2.8-2.4,4.4-6,4.3-9.7c0-3.8-1.8-7.2-4.7-9.6l-34.7-28l1.6-1.9l34.7,28
							C524.8,2047.2,526.8,2051.4,526.9,2055.9z"/></g><g><path fill="#414143" d="M423.8,1253.5c-18.5,110.9,0.5,219.7,10.1,371.6l-18.7,372.6H499l45.9-353.3l17.6-145.4l34.4,126.1
						l27.9,372.6h82.9l2-387c-14-126.3-32.8-246.9-59.3-358.3L423.8,1253.5z"/></g><g><path fill="#fdbab3" d="M928.7,1095.4l48.1,5.9c5.2,0.6,10.4,1.8,15.5,3.2c15.4,4.4,55.7,11,72.8-33.6c2.6-6.8-3.4-13.9-10.5-12.1
					c-12.6,3.2-34.5,7.3-42.2,0.7l14.4-15.2c2.7-2.9,2.4-7.4-0.6-9.9l0,0c-2.3-2-5.7-2.1-8.2-0.4l-20.6,14.1c-5,3.4-11.1,5.2-17.2,5
					l-44.8-1.3"/><path fill="#585a5e" d="M575.7,1054.2l150.2,43.8c7,2,14.1,3.3,21.3,3.8l230.8,5.8l6.2-59.9l-224.1-24.3
					c-10.1-1.6-19.9-5-28.8-10.1l-135.2-84.7l-15,9.9l-29.8,75.8L575.7,1054.2z"/></g><g><rect width="62.2" height="111.2" x="498.5" y="848.7" fill="#fdbab3"/><path fill="#fdbab3" d="M605.8,831.6c7.1,46.8-26.1,75.7-58.5,75.7s-59-33.2-59-75.7c0-42.5,26.3-77,58.8-77
					C579.5,754.6,599.4,789.6,605.8,831.6z"/><path fill="#414143" d="M575.4,750.6c-26.2-21.1-48.6-2-48.6-2c-38.5-10.7-44.7,31.8-44.7,31.8c-44.1-1.2,16.4,106,16.4,106
					l4.1-14.3c2.1-7.4,1.7-15.3-1.3-22.3c-5.9-13.5-7.3-30,6.7-32.3c12.2-2,18.7,16.4,21.1,25.2c0.7,2.5,3.3,4,5.8,3.4l0,0
					c2.4-0.6,4-3,3.6-5.4l-5.4-35.5c17.3,5.2,51.7-1.1,59.1-3.8c0,0,31.8-9.8,26.4-43.4c0,0-4.2,8.5-21.4,9.1
					c0,0,14.2-3.3,12.5-23.6C609.6,743.4,590.7,762.9,575.4,750.6z"/></g><g><path fill="#e5e5e5" d="M612.9,1123c0,2,0,224.3,0,224.3c-68.6,32.8-131.4,8.4-131.3,9l3.3-377.8l13.6-64.6l48.7,32.5l30.6-25.6
					l19.6,17.3l4.1,88.2C601.5,1026.1,612.9,1120.9,612.9,1123z"/><path fill="#585a5e" d="M400.8,1371.8c-2,8.4-0.1,17,8.2,19.2c0,0,159.4,19,140.8-175.1l-8.9-196.7c0-36.3-11.5-74.1-38.1-98.8
					l-4.4-6.6l-33,13.9c-36.3,17.6-58.5,55.3-56.3,95.6l0.4,75.4C412.7,1160.6,405.1,1353.4,400.8,1371.8z"/><path fill="#585a5e" d="M560.7,916.1l17.1,4.6c26.5,7.7,47.6,28.8,47.6,55.8v46.3c0,28,1.8,56.1,5.5,83.9l46,219
					c1.3,9.7-3.2,13.6-14.6,20.3l-67.6,28.3c-7.2,1.7-13-5.8-9.5-12.3l0,0c12.8-23.8,18.2-75.1,15.5-102l-15.2-156.6
					c-1.4-13.9-2.2-27.8-2.5-41.8L560.7,916.1z"/></g><polygon fill="#c6c7cd" points="560.7 916.1 567.1 957.6 530.1 960.9 498.5 913.8 547.2 946.3"/><path fill="#414143" d="M606.3,852.7L606.3,852.7l-65-3.5l-4-16.6l-10.5,3l9,47.3c2.9,15.1,17.2,25.2,32.4,22.9l0,0
				C593.1,902,609,877.9,606.3,852.7z"/><path fill="#e25651" d="M547.2,946.3l-7.7,9.4l2.9,11.7l-2.9,23.8c-8,66.3-46.1,125.2-103.3,159.7l-10.4,6.3
				c-31.5,19-57.5,45.9-75.4,78.1l-22.2,39.9l16.5,30.3l33.6-13.8l26.9-48.4c12.1-21.8,28.4-41.1,47.9-56.6l20.3-16.2
				c51.5-41.1,81.5-103.3,81.7-169.1l0.1-32.8l1.2-13.5L547.2,946.3z"/><g><path fill="#3f98d7" d="M511.6,1446.1L511.6,1446.1c25.4,33.9,73.8,40.1,107,13.8l650.1-516l-63.1-84.1l-677.3,479.7
					C493.8,1364,486.2,1412.2,511.6,1446.1z"/><path fill="#2a84b5" d="M507.2,1362.5c-15.2,25.4-14.5,58.4,4.4,83.6c25.4,33.9,73.8,40.1,107,13.8l650.1-516l-12.4-16.5
					l-627.2,497.8c-33.2,26.4-81.6,20.1-107-13.8C511.2,1396.8,506.3,1379.4,507.2,1362.5z"/><path fill="#3f98d7" d="M1296,371.8c-157.1,117.8-199.5,332.7-106.6,499.6c8.4,15.4,18.1,30.2,28.9,44.6s22.4,27.8,34.8,40.2
					c134.3,136,352.4,155.3,509.5,37.5c171.5-128.6,206.4-372.7,77.7-544.3C1711.7,278,1467.5,243.2,1296,371.8z M1686.9,413.7
					c0.4,0.2,0.7,0.4,1.1,0.7c3.6,2,7.1,4.3,10.5,6.5c21.9,14,42.1,31,60.3,50.8c3.4,3.7,6.7,7.6,10,11.5c3.4,4.1,6.7,8.2,9.9,12.5
					c103.2,137.6,75.2,333.4-62.4,436.6c-2.5,1.9-5,3.7-7.5,5.4c-1.4,1-2.9,2-4.3,3c-5.9,4-12,7.8-18,11.4c-2.7,1.6-5.4,3.1-8,4.5
					c-3.2,1.8-6.5,3.5-9.8,5.1c-3,1.5-6,3-9,4.3c-6.2,2.9-12.4,5.6-18.6,7.9c-1.5,0.6-3,1.2-4.6,1.7c-2.8,1-5.5,2-8.2,2.9
					c-3,1-5.9,2-8.9,2.8c-4.1,1.2-8.2,2.4-12.2,3.4c-3.3,0.9-6.6,1.6-9.9,2.4c-0.1,0.1-0.1,0-0.2,0c-3.3,0.8-6.6,1.4-9.9,2
					c-14.2,2.7-28.7,4.3-43.1,5c-3.5,0.2-7.1,0.3-10.6,0.3c-3.1,0.1-6.2,0-9.3,0c-1.1,0-2.1,0-3.2-0.1c-2.9-0.1-5.9-0.2-8.9-0.4
					c-3.5-0.1-7-0.4-10.6-0.8c-3-0.2-5.9-0.5-8.9-0.9c-0.5,0-1.1-0.1-1.7-0.2c-3.2-0.3-6.5-0.8-9.8-1.3c-4.3-0.6-8.5-1.4-12.8-2.3
					c-6.4-1.3-12.8-2.7-19.1-4.4c-3.7-0.9-7.2-1.9-10.8-3.1c-3.2-0.9-6.4-1.9-9.5-3c-6.7-2.3-13.4-4.8-20-7.6
					c-1.6-0.6-3.1-1.3-4.7-1.9c-0.8-0.4-1.6-0.7-2.5-1.1c-4.1-1.8-8.3-3.7-12.4-5.8c-6.8-3.4-13.7-7.1-20.3-11.1
					c-2.8-1.7-5.5-3.3-8.2-5.1c-2.8-1.7-5.6-3.6-8.3-5.5c-2.7-1.8-5.4-3.8-8-5.7c-2.7-1.9-5.3-3.9-7.9-6c-2-1.6-4.1-3.1-6-4.8
					c-6-4.8-11.8-10-17.3-15.4c-4.5-4.3-8.9-8.7-13.1-13.3c-1.9-2.1-3.8-4.2-5.6-6.4c-1.4-1.5-2.7-3.1-4-4.7
					c-1.6-1.9-3.2-3.9-4.8-5.8c-2-2.5-4-5.1-6-7.7c-103.2-137.6-75.3-333.4,62.4-436.6c2.7-2,5.3-3.9,8-5.8c2.1-1.5,4.2-2.9,6.4-4.3
					c1.6-1.1,3.1-2.1,4.6-3.1c7.9-5.1,16-9.8,24.3-14.1c3-1.6,5.9-3.1,9-4.5c2.9-1.4,5.8-2.8,8.7-4c0.1-0.1,0.2-0.2,0.3-0.1
					c3-1.4,6.1-2.7,9.2-3.9c3.1-1.3,6.2-2.5,9.3-3.6c3.1-1.1,6.1-2.2,9.2-3.3c5.1-1.7,10.2-3.2,15.4-4.6c2-0.6,4-1.1,6-1.6
					c2.4-0.6,4.9-1.2,7.3-1.7c3.2-0.8,6.4-1.5,9.6-2.1c2.3-0.4,4.5-0.8,6.8-1.2c2-0.3,3.9-0.7,5.9-1c2.3-0.3,4.5-0.6,6.7-0.9
					c3.2-0.5,6.3-0.8,9.6-1.1c2.5-0.3,5.1-0.5,7.8-0.7c7.1-0.5,14.2-0.8,21.3-0.8c2,0,4,0,6.1,0c0.9,0,1.7,0,2.6,0.1
					c2.3,0,4.4,0.1,6.7,0.2c10.3,0.4,20.4,1.3,30.6,2.9c2.5,0.4,5,0.8,7.4,1.2c2.5,0.4,4.9,0.8,7.4,1.3c2.4,0.4,4.9,0.9,7.3,1.5
					c6,1.2,12,2.8,18,4.5c2.9,0.8,5.8,1.6,8.6,2.5c6,1.8,11.9,3.9,17.8,6.1c0.4,0.1,0.9,0.3,1.2,0.5c15.7,6,31,13.3,45.6,21.8
					C1686.7,413.6,1686.8,413.6,1686.9,413.7z"/><path fill="#2a84b5" d="M1686.9,413.7c0.4,0.2,0.7,0.4,1.1,0.7c3.6,2.1,7.1,4.3,10.5,6.5c21.9,14,42.1,31,60.3,50.8
					c3.4,3.7,6.7,7.6,10,11.5c3.4,4.1,6.7,8.2,9.9,12.5c103.2,137.6,75.2,333.4-62.4,436.6c-2.5,1.9-5,3.7-7.5,5.4
					c-1.4,1.1-2.9,2-4.3,3c-5.9,4-12,7.8-18,11.4c-2.7,1.6-5.4,3.1-8,4.5c-3.2,1.8-6.5,3.5-9.8,5.1c-3,1.5-6,3-9,4.3
					c-6.2,2.9-12.4,5.6-18.6,7.9c-1.6,0.6-3,1.2-4.6,1.7c-2.8,1-5.5,2-8.2,2.9c-3,1-5.9,2-8.9,2.8c-4.1,1.2-8.2,2.4-12.2,3.4
					c-3.3,0.9-6.6,1.7-9.9,2.4c-0.1,0.1-0.1,0-0.2,0c-3.3,0.8-6.5,1.4-9.9,2c-14.2,2.7-28.7,4.3-43.1,5c-3.5,0.2-7.1,0.3-10.6,0.3
					c-3.1,0.1-6.2,0.1-9.3,0c-1.1,0-2.1,0-3.2-0.1c-3-0.1-5.9-0.2-8.9-0.4c-3.6-0.2-7.1-0.4-10.6-0.8c-3-0.2-6-0.5-8.9-0.9
					c-0.5,0-1.1-0.1-1.7-0.2c-3.2-0.3-6.5-0.8-9.8-1.3c-4.3-0.6-8.5-1.4-12.8-2.3c-6.4-1.3-12.8-2.7-19.1-4.4
					c-3.7-0.9-7.2-1.9-10.8-3.1c-3.2-1-6.3-2-9.5-3c-6.7-2.3-13.4-4.8-20-7.6c-2.4-1-4.8-2-7.1-3.1c-4.1-1.8-8.3-3.7-12.4-5.8
					c2.2,1.2,4.4,2.5,6.6,3.7c104,56.8,236.1,51.5,336.8-24c137.6-103.2,165.5-299.1,62.4-436.6
					C1765.5,465,1728.3,434.5,1686.9,413.7z"/><path fill="#ededed" d="M1343.9,435.6c-137.6,103.2-165.5,299.1-62.4,436.6c1.9,2.6,4,5.1,6,7.7c1.6,1.9,3.2,3.9,4.8,5.8
					c1.3,1.6,2.6,3.2,4,4.7c1.8,2.2,3.7,4.3,5.6,6.4c4.2,4.6,8.6,9.1,13.1,13.3c5.6,5.4,11.4,10.6,17.3,15.4c2,1.6,3.9,3.2,6,4.8
					c2.6,2.1,5.3,4,7.9,6c2.6,2,5.4,3.9,8,5.7c2.7,1.9,5.5,3.8,8.3,5.5c2.7,1.7,5.4,3.4,8.2,5.1c6.6,4,13.5,7.7,20.3,11.1
					c4.1,2,8.2,4,12.4,5.8c2.3,1.1,4.7,2.1,7.1,3.1c6.6,2.8,13.3,5.3,20,7.6c3.2,1,6.3,2,9.5,3c3.6,1.1,7.2,2.2,10.8,3.1
					c6.3,1.7,12.7,3.2,19.1,4.4c4.3,0.9,8.5,1.6,12.8,2.3c3.3,0.5,6.5,1,9.8,1.3c0.5,0.1,1.1,0.2,1.7,0.2c2.9,0.4,5.9,0.7,8.9,0.9
					c3.5,0.4,7.1,0.6,10.6,0.8c2.9,0.2,5.9,0.3,8.8,0.4c1,0.1,2.1,0.1,3.2,0.1c3,0.1,6.2,0.1,9.3,0c3.5,0,7.1-0.1,10.6-0.3
					c14.4-0.7,28.9-2.3,43.1-5c3.4-0.6,6.6-1.2,9.9-2c0.1-0.1,0.1,0,0.2,0c3.3-0.8,6.6-1.6,9.9-2.4c4-1,8.1-2.1,12.2-3.4
					c3-0.9,5.9-1.8,8.9-2.8c2.8-0.9,5.5-1.8,8.2-2.9c1.5-0.5,3.1-1.1,4.6-1.7c6.3-2.3,12.5-5,18.6-7.9c3.1-1.3,6-2.8,9-4.3
					c3.3-1.6,6.6-3.3,9.8-5.1c2.6-1.5,5.4-3,8-4.5c6.1-3.6,12.1-7.4,18-11.4c1.4-1,2.9-2,4.3-3c2.5-1.8,5-3.6,7.5-5.4
					c137.6-103.2,165.5-299.1,62.4-436.6c-3.2-4.3-6.5-8.4-9.9-12.5c-3.3-3.9-6.6-7.8-10-11.5c-18.2-19.8-38.4-36.7-60.3-50.8
					c-3.4-2.3-7-4.5-10.5-6.5c-0.4-0.2-0.7-0.4-1.1-0.7c-0.1-0.1-0.2-0.1-0.2-0.2c-14.6-8.6-29.9-15.9-45.6-21.8
					c-0.3-0.2-0.8-0.4-1.2-0.5c-5.9-2.2-11.8-4.3-17.8-6.1c-2.9-1-5.7-1.8-8.6-2.5c-6-1.7-11.9-3.2-18-4.5c-2.4-0.5-4.9-1.1-7.3-1.5
					c-2.5-0.5-4.9-0.9-7.4-1.3c-2.4-0.4-4.9-0.8-7.4-1.2c-10.2-1.5-20.4-2.4-30.6-2.9c-2.2-0.1-4.4-0.2-6.7-0.2
					c-0.9-0.1-1.8-0.1-2.6-0.1c-2.1-0.1-4.1,0-6.1,0c-7.1,0-14.2,0.3-21.3,0.8c-2.6,0.2-5.2,0.4-7.8,0.7c-3.2,0.3-6.4,0.6-9.5,1.1
					c-2.2,0.2-4.4,0.5-6.7,0.9c-1.9,0.3-3.9,0.7-5.9,1c-2.3,0.4-4.5,0.8-6.8,1.2c-3.2,0.6-6.4,1.3-9.6,2.1c-2.4,0.5-4.9,1.1-7.3,1.7
					c-2,0.5-4,1-6,1.6c-5.1,1.4-10.3,2.9-15.4,4.6c-3.1,1-6.1,2.1-9.2,3.3c-3.1,1.1-6.2,2.3-9.3,3.6c-3,1.2-6.1,2.5-9.2,3.9
					c-0.1,0-0.3,0.1-0.3,0.1c-3,1.3-5.9,2.6-8.7,4c-3.1,1.5-6.1,3-9,4.5c-8.3,4.3-16.4,9-24.3,14.1c-1.5,0.9-3.1,2-4.6,3.1
					c-2.2,1.4-4.3,2.9-6.4,4.3C1349.2,431.7,1346.5,433.6,1343.9,435.6z" opacity=".15"/><path fill="#5eb2e5" d="M1326.3,426.9C1188.8,530,1160.8,725.9,1264,863.5c35.2,46.9,81.2,81.1,132,101.6c2.7,1.2,5.4,2.2,8.2,3.2
					c-0.8-0.4-1.6-0.7-2.5-1.1c-4.1-1.8-8.3-3.7-12.4-5.8c-6.8-3.4-13.7-7.1-20.3-11.1c-2.8-1.7-5.5-3.3-8.2-5.1
					c-2.8-1.7-5.6-3.6-8.3-5.5c-2.7-1.8-5.4-3.8-8-5.7c-2.6-2-5.3-3.9-7.9-6c-2-1.6-4-3.2-6-4.8c-6-4.8-11.8-10-17.3-15.4
					c-4.5-4.2-8.9-8.7-13.1-13.3c-1.9-2.1-3.8-4.2-5.6-6.4c-1.4-1.5-2.7-3.1-4-4.7c-1.6-1.9-3.2-3.9-4.8-5.8c-2-2.5-4-5.1-6-7.7
					c-103.2-137.6-75.3-333.4,62.4-436.6c2.7-2,5.3-3.9,8-5.8c2.1-1.5,4.2-2.9,6.4-4.3c1.6-1.1,3-2.1,4.6-3.1
					c7.9-5.1,16-9.8,24.3-14.1c2.9-1.5,5.9-3.1,9-4.5c2.9-1.4,5.8-2.7,8.7-4c0.1-0.1,0.2-0.2,0.3-0.1c3-1.4,6.1-2.7,9.2-3.9
					c3.1-1.3,6.2-2.5,9.3-3.6c3.1-1.1,6.1-2.2,9.2-3.3c5.1-1.7,10.2-3.2,15.4-4.6c2-0.5,4-1.1,6-1.6c2.4-0.6,4.9-1.2,7.3-1.7
					c3.2-0.8,6.4-1.5,9.6-2.1c2.3-0.4,4.5-0.8,6.8-1.2c2-0.3,4-0.6,5.9-1c2.3-0.3,4.5-0.6,6.7-0.9c3.2-0.5,6.3-0.8,9.6-1.1
					c2.6-0.4,5.2-0.5,7.8-0.7c7.1-0.5,14.2-0.8,21.3-0.8c2,0,4,0,6.1,0c0.9,0,1.7,0,2.6,0.1c2.1,0,4.4,0.1,6.7,0.2
					c10.3,0.4,20.4,1.3,30.6,2.9c2.5,0.3,5,0.6,7.4,1.2c2.5,0.4,5,0.8,7.4,1.3c2.4,0.4,4.9,0.9,7.3,1.5c6,1.2,12,2.8,18,4.5
					c2.9,0.7,5.8,1.6,8.6,2.5c6,1.8,11.9,3.9,17.8,6.1C1539.9,347.2,1419.8,356.8,1326.3,426.9z"/></g><g><path fill="#fdbab3" d="M581.2,1351.5l25.4,41.3c2.8,4.5,5.1,9.2,7.1,14.1c6.2,14.8,26.2,50.3,71.7,35.9c7-2.2,8.7-11.3,2.9-15.7
					c-10.4-7.8-27.3-22.4-26.9-32.6l20.9,1.8c3.9,0.3,7.3-2.7,7.4-6.6v0c0.1-3.1-1.9-5.8-4.8-6.7l-23.9-7.3
					c-5.8-1.8-11-5.4-14.6-10.3l-26.9-35.9"/><path fill="#585a5e" d="M600,1393.6c0,0-140.3-208.8-143-217.1c-30.4-93.5-36.2-190-36.2-190l75.1-18l39.2,26.1l2,157.9
					c-0.7,6.3,121.9,213.2,121.9,213.2L600,1393.6z"/></g></g></svg>