<svg xmlns="http://www.w3.org/2000/svg" xmlns:xlink="http://www.w3.org/1999/xlink" data-name="Layer 1" viewBox="0 0 3062.39 1928.64"><defs><linearGradient id="b" x1="1485.74" x2="1485.74" y1="489.56" y2="2725.07" gradientUnits="userSpaceOnUse"><stop offset="0" stop-color="#dee1e2"/><stop offset="1" stop-color="#b4bcbe"/></linearGradient><linearGradient id="a" x1="2334.74" x2="2741.53" y1="2480.04" y2="1788.98" gradientUnits="userSpaceOnUse"><stop offset="0" stop-color="#dee1e2"/><stop offset="1" stop-color="#efefef"/></linearGradient><linearGradient id="j" x1="3087.45" x2="3087.45" y1="2916.69" y2="1656.97" xlink:href="#a"/><linearGradient id="k" x1="2497.14" x2="2497.14" y1="1519.88" y2="3470.56" xlink:href="#b"/><linearGradient id="l" x1="1917.87" x2="1917.87" y1="2568.72" y2="1063.11" xlink:href="#a"/><linearGradient id="m" x1="1917.86" x2="1917.86" y1="2568.72" y2="1063.11" xlink:href="#a"/><linearGradient id="n" x1="2497.14" x2="2497.14" y1="1519.86" y2="3470.58" xlink:href="#b"/><linearGradient id="o" x1="3087.45" x2="3087.45" y1="2916.71" y2="1657.01" xlink:href="#a"/><linearGradient id="p" x1="2507.08" x2="2507.08" y1="2052.65" y2="1008.87" xlink:href="#b"/><linearGradient id="q" x1="2514.09" x2="2514.09" y1="3243.24" y2="2199.48" xlink:href="#b"/><linearGradient id="r" x1="1968.66" x2="1716.11" y1="1405.82" y2="1589.25" xlink:href="#b"/><linearGradient id="c" x1="1621.23" x2="1791.37" y1="1543.04" y2="1269.22" gradientUnits="userSpaceOnUse"><stop offset="0" stop-color="#fb9835"/><stop offset="1" stop-color="#fbbb3c"/></linearGradient><linearGradient id="s" x1="1688.3" x2="1643.99" y1="1526.19" y2="1100.83" xlink:href="#c"/><linearGradient id="t" x1="1899.45" x2="1768.29" y1="1611.1" y2="1417.92" xlink:href="#c"/><linearGradient id="f" x1="3275.84" x2="3162.38" y1="2486.17" y2="2858.54" gradientUnits="userSpaceOnUse"><stop offset="0" stop-color="#dee1e2" stop-opacity=".1"/><stop offset="1" stop-color="#b4bcbe"/></linearGradient><linearGradient id="d" x1="3412.03" x2="3412.03" y1="3268.34" y2="2484.61" gradientUnits="userSpaceOnUse"><stop offset="0" stop-color="#2fa2fa"/><stop offset="1" stop-color="#37d3fb"/></linearGradient><linearGradient id="u" x1="3337.05" x2="3337.05" y1="2376.15" y2="3203.69" xlink:href="#d"/><linearGradient id="e" x1="3363.52" x2="3363.52" y1="2940.76" y2="2635.2" gradientUnits="userSpaceOnUse"><stop offset="0" stop-color="#2fa2fa" stop-opacity="0"/><stop offset="1" stop-color="#37d3fb"/></linearGradient><linearGradient id="v" x1="2418.3" x2="2418.3" y1="1790.9" y2="1468.2" xlink:href="#e"/><linearGradient id="w" x1="2401.08" x2="2401.08" y1="1851.68" y2="1473.44" xlink:href="#d"/><linearGradient id="x" x1="3429.7" x2="3429.7" y1="9620.13" y2="9297.44" gradientTransform="matrix(1 0 0 -1 -1011.4 5062.76)" xlink:href="#e"/><linearGradient id="y" x1="2401.08" x2="2401.08" y1="1640.11" y2="1874.73" gradientUnits="userSpaceOnUse"><stop offset="0" stop-color="#2fa2fa"/><stop offset=".29" stop-color="#31abfa"/><stop offset=".77" stop-color="#35c5fb"/><stop offset="1" stop-color="#37d3fb"/></linearGradient><linearGradient id="z" x1="2741.7" x2="2306.57" y1="1794.65" y2="2229.79" xlink:href="#f"/><linearGradient id="g" x1="2289.04" x2="2253.02" y1="2133.36" y2="1787.55" gradientUnits="userSpaceOnUse"><stop offset="0" stop-color="#735cd2"/><stop offset="1" stop-color="#8f6acc"/></linearGradient><linearGradient id="A" x1="2460.7" x2="2354.07" y1="2202.39" y2="2045.33" xlink:href="#g"/><linearGradient id="B" x1="3527.32" x2="3165.81" y1="1523.75" y2="1885.26" xlink:href="#f"/><linearGradient id="h" x1="3151.25" x2="3121.32" y1="1805.15" y2="1517.85" gradientUnits="userSpaceOnUse"><stop offset="0" stop-color="#60b05b"/><stop offset=".25" stop-color="#75bc60"/><stop offset=".74" stop-color="#9ad069"/><stop offset="1" stop-color="#a8d86d"/></linearGradient><linearGradient id="C" x1="3153.81" x2="3257.87" y1="1983.24" y2="1503.41" xlink:href="#h"/><linearGradient id="D" x1="457.15" x2="457.15" y1="1400.75" y2="165.86" gradientUnits="userSpaceOnUse"><stop offset="0" stop-color="#fb9835" stop-opacity="0"/><stop offset="1" stop-color="#fbbb3c"/></linearGradient><linearGradient id="i" x1="383.1" x2="383.1" y1="254.06" y2="1374.33" gradientUnits="userSpaceOnUse"><stop offset="0" stop-color="#dee1e2"/><stop offset="1" stop-color="#b4bcbe" stop-opacity="0"/></linearGradient><linearGradient id="E" x1="-9392.49" x2="-9392.49" y1="6672.32" y2="5437.42" gradientTransform="translate(12926.7 -4219.43)" xlink:href="#e"/><linearGradient id="F" x1="-9466.54" x2="-9466.54" y1="5525.63" y2="6645.89" gradientTransform="translate(13074.8 -4219.43)" xlink:href="#i"/></defs><path fill="#efefef" d="M3389.48 1706.84v1067.93a74.75 74.75 0 0 1-74.75 74.75h-529.29V1632.08h529.29a74.75 74.75 0 0 1 74.75 74.76Z" transform="translate(-1011.4 -1191.67)"/><path fill="url(#b)" d="M1774.04 440.42v1217.43l-576.59-209.04V231.38l576.59 209.04z"/><path fill="#efefef" d="M2208.84 1423v1217.47h-507.21a74.75 74.75 0 0 1-74.75-74.75V1497.8a74.75 74.75 0 0 1 74.75-74.75ZM3389.48 2229.49v474.37c-85.6-39.21-173.24-59.43-244.1-75.8q-17.74-4.09-34.48-7.45-19.75-3.94-38.18-7c-125.42-20.6-208.57-10.73-287.28-5.06v-620c53.83 98.42 104.82 199.5 240 246.62 107.51 37.46 242.31 31.76 364.04-5.68Z" transform="translate(-1011.4 -1191.67)"/><path fill="url(#a)" d="M2785.44 1988.55v620c-75.37 5.44-146.68 7-247.21-25.61-191.19-62.08-238.95-167.14-329.39-241.23v-542c123.27-34.17 218.58-74.57 344.37-34.76 128.34 40.64 181.53 130.93 232.23 223.6Z" transform="translate(-1011.4 -1191.67)"/><path fill="#efefef" d="M2208.84 1799.71v542c-30.14-28.74-65.8-52.83-116.31-67.93-141.41-42.3-328.63 6.81-465.66 101.17V1722c102.88 63.69 222.45 110.26 356.17 113.83 90.96 2.41 162.64-15.75 225.8-36.12Z" transform="translate(-1011.4 -1191.67)"/><path fill="url(#j)" d="M3389.47 1706.84v522.66c-62.12 19.1-127.66 29.94-191.22 31-61 1-120.18-7-172.81-25.32q-1.42-.49-2.84-1c-133.05-47.5-183.71-147.85-237.16-245.59v-356.5h529.29a74.75 74.75 0 0 1 74.75 74.75Z" transform="translate(-1011.4 -1191.67)"/><path fill="url(#k)" d="M2785.44 1632.09v356.46c-50.7-92.67-103.89-183-232.22-223.58a355 355 0 0 0-56.06-13c-52.65-7.68-101-2-150.29 9.33-44 10.13-88.78 24.76-138 38.42V1423l138 50 150.29 54.49Z" transform="translate(-1011.4 -1191.67)"/><path fill="url(#l)" d="M2208.85 1423v376.7c-63.17 20.37-134.9 38.54-225.8 36.1-133.71-3.56-253.28-50.13-356.16-113.83v-224.18a74.76 74.76 0 0 1 74.75-74.75Z" transform="translate(-1011.4 -1191.67)"/><path fill="#fff" d="M3389.48 2229.49v45.74c-121.73 37.44-256.53 43.14-364 5.67-135.18-47.11-186.17-148.2-240-246.62v-45.74c53.83 98.42 104.82 199.5 240 246.62 107.47 37.47 242.27 31.77 364-5.67ZM2785.44 1988.54v45.74c-50.71-92.67-103.89-183-232.23-223.58-125.8-39.81-221.12.59-344.37 34.76v-45.74c123.25-34.17 218.57-74.57 344.37-34.76 128.34 40.63 181.53 130.91 232.23 223.58Z" opacity=".18" transform="translate(-1011.4 -1191.67)"/><path fill="#fff" d="M2208.85 1799.7v45.74c-63.17 20.37-134.9 38.54-225.8 36.1-133.71-3.56-253.28-50.13-356.16-113.83V1722c102.88 63.69 222.46 110.26 356.16 113.83 90.95 2.41 162.63-15.75 225.8-36.13Z" opacity=".18" transform="translate(-1011.4 -1191.67)"/><path fill="url(#m)" d="M2208.85 2341.75v298.73h-507.22a74.76 74.76 0 0 1-74.77-74.75V2375c137-94.35 324.26-143.47 465.67-101.17 50.52 15.09 86.18 39.17 116.32 67.92Z" transform="translate(-1011.4 -1191.67)"/><path fill="url(#n)" d="M2785.44 2608.58v240.95L2497.15 2745l-150.29-54.49-138-50v-298.77c48.7 39.89 85 88.77 138 135.08 38 33.18 84.5 65 150.29 91.33q19.38 7.77 41.08 14.83c100.53 32.65 171.83 31.02 247.21 25.6Z" transform="translate(-1011.4 -1191.67)"/><path fill="url(#o)" d="M3389.47 2703.86v70.91a74.76 74.76 0 0 1-74.75 74.75h-529.28v-240.93c67.73-4.88 138.74-12.86 237.16-1.86q23.91 2.65 50.12 6.93 18.45 3 38.18 7 16.76 3.38 34.48 7.45c16.76 3.87 34.47 8 52.88 12.46 59.34 14.5 125.87 33.37 191.21 63.29Z" transform="translate(-1011.4 -1191.67)"/><path fill="url(#p)" d="M3369.29 1655.74h-583.85l-576.59-206.59h-564a74.55 74.55 0 0 1 56.75-26.1h507.22l576.59 209h529.29a74.51 74.51 0 0 1 54.59 23.69Z" opacity=".17" transform="translate(-1011.4 -1191.67)"/><path fill="url(#q)" d="M3369.29 2846.33h-583.85l-576.59-206.58h-517.56a74 74 0 0 1-32.39-12.69 74.44 74.44 0 0 1 42.73-13.41h507.22l576.59 209h529.29a74.55 74.55 0 0 1 54.56 23.68Z" opacity=".44" transform="translate(-1011.4 -1191.67)"/><path fill="url(#r)" d="m1769.8 1423.15-36.56 213.76a12.38 12.38 0 0 0 18.61 13.12l240.1-135.09 8.19-5.05a142.49 142.49 0 0 0 37.8-36.81 148.45 148.45 0 0 0 8.12-12.94 142 142 0 0 0 14.3-37Z" opacity=".45" transform="translate(-1011.4 -1191.67)"/><path fill="url(#c)" d="M1875.45 1319.7a143.3 143.3 0 0 0-285 0 145.72 145.72 0 0 0-.82 15.27 142.67 142.67 0 0 0 9.7 51.85l3.78 8.85 118.45 248.72a12.39 12.39 0 0 0 22.77 0l118.45-248.72 3.78-8.85a142.67 142.67 0 0 0 9.69-51.85 145.72 145.72 0 0 0-.8-15.27ZM1733 1406.9a75.15 75.15 0 1 1 75.15-75.15 75.16 75.16 0 0 1-75.15 75.15Z" transform="translate(-1011.4 -1191.67)"/><path fill="url(#s)" d="M1733 1256.59v-64.92a143.29 143.29 0 0 0-142.48 128 145 145 0 0 0-.82 15.28 142.3 142.3 0 0 0 9.69 51.84l3.78 8.86 118.44 248.71a12.22 12.22 0 0 0 11.38 7.51v-245a75.16 75.16 0 0 1 0-150.31Z" transform="translate(-1011.4 -1191.67)"/><path fill="url(#t)" d="M1876.27 1335a142.67 142.67 0 0 1-9.69 51.84l-3.78 8.86-118.44 248.71a12.24 12.24 0 0 1-11.4 7.51v-245a75.16 75.16 0 1 0 0-150.31v-64.92a143.29 143.29 0 0 1 142.5 128 145 145 0 0 1 .81 15.31Z" transform="translate(-1011.4 -1191.67)"/><path fill="url(#f)" d="M3390 2447.54v314.61a88.76 88.76 0 0 1-88.75 88.75H3022a314.21 314.21 0 0 1 37.18-271.79c56.23-84.08 152-139.43 260.77-139.43a314 314 0 0 1 70.05 7.86Z" transform="translate(-1011.4 -1191.67)"/><path fill="url(#d)" d="M3725.53 2806.81c0 173.14-140.35 313.49-313.49 313.49-173.16 0-313.49-140.35-313.49-313.49s140.34-313.49 313.49-313.51c173.13.01 313.49 140.36 313.49 313.51Z" transform="translate(-1011.4 -1191.67)"/><path fill="url(#u)" d="M3110.16 2813.61a313.78 313.78 0 0 0 150 267.52 313.82 313.82 0 0 1-161.66-274.31c0-173.16 140.35-313.51 313.51-313.51a311.94 311.94 0 0 1 163.56 46 311.85 311.85 0 0 0-151.92-39.22c-173.15.01-313.49 140.36-313.49 313.52Z" opacity=".5" transform="translate(-1011.4 -1191.67)"/><circle cx="2400.63" cy="1615.14" r="221.48" fill="#fff"/><path fill="url(#e)" d="M3212.26 2819.84a221.23 221.23 0 0 0 96.91 183.16 221.43 221.43 0 0 1-118.62-196.19c0-122.32 99.16-221.48 221.48-221.48a220.37 220.37 0 0 1 124.47 38.28 220.43 220.43 0 0 0-102.76-25.25c-122.32 0-221.48 99.16-221.48 221.48Z" opacity=".29" transform="translate(-1011.4 -1191.67)"/><path fill="url(#v)" d="m2471.93 1615.14-53.18-221.48h-.9l-53.19 221.48h107.27z" opacity=".29"/><path fill="url(#w)" d="m2454.71 1615.14-53.18-221.48h-.9l-53.18 221.48h107.26z"/><path fill="url(#x)" d="m2471.93 1615.14-53.18 221.48h-.9l-53.19-221.48h107.27z" opacity=".29"/><path fill="url(#y)" d="m2454.71 1615.14-53.18 221.48h-.9l-53.18-221.48h107.26z"/><path fill="#735cd2" d="m1011.4 2449.49 12.52-10.5a.11.11 0 0 1 .14.17ZM1046.44 2420.09l12.52-10.5a.41.41 0 0 1 .53.63l-12.65 10.33a.3.3 0 0 1-.39-.47ZM1081.48 2390.69l12.52-10.5a.71.71 0 0 1 .92 1.09l-12.65 10.33a.6.6 0 0 1-.77-.93ZM1116.54 2361.31l12.53-10.48a1 1 0 1 1 1.25 1.49l-12.64 10.35a.88.88 0 0 1-1.13-1.36ZM1151.62 2332l12.53-10.48a1.22 1.22 0 0 1 1.57 1.88l-12.64 10.35a1.13 1.13 0 0 1-1.45-1.75ZM1186.69 2302.6l12.53-10.48a1.47 1.47 0 1 1 1.89 2.26l-12.64 10.35a1.38 1.38 0 0 1-1.76-2.13ZM1221.78 2273.25l12.54-10.47a1.69 1.69 0 1 1 2.17 2.6l-12.63 10.36a1.62 1.62 0 0 1-2.07-2.5ZM1256.88 2243.93l12.54-10.47a1.9 1.9 0 1 1 2.44 2.92l-12.63 10.36a1.83 1.83 0 0 1-2.33-2.81ZM1292 2214.6l12.54-10.47a2.11 2.11 0 0 1 2.7 3.24l-12.63 10.36a2 2 0 0 1-2.59-3.13ZM1327.09 2185.28l12.54-10.47a2.31 2.31 0 1 1 3 3.55l-12.63 10.36a2.24 2.24 0 0 1-2.86-3.45ZM1362.19 2156l12.55-10.46a2.51 2.51 0 0 1 3.21 3.85l-12.62 10.37a2.45 2.45 0 0 1-3.12-3.77ZM1397.32 2126.67l12.55-10.46a2.67 2.67 0 1 1 3.42 4.1l-12.62 10.37a2.61 2.61 0 0 1-3.33-4ZM1432.45 2097.38l12.55-10.46a2.83 2.83 0 1 1 3.63 4.35l-12.63 10.38a2.77 2.77 0 0 1-3.54-4.27ZM1467.59 2068.09l12.55-10.46a3 3 0 0 1 3.83 4.6l-12.62 10.37a2.94 2.94 0 0 1-3.74-4.52ZM1502.72 2038.8l12.55-10.46a3.16 3.16 0 0 1 4 4.85l-12.62 10.37a3.1 3.1 0 0 1-4-4.77ZM1537.85 2009.51l12.55-10.51a3.32 3.32 0 1 1 4.25 5.1l-12.65 10.43a3.26 3.26 0 0 1-4.16-5ZM1574.9 1981.77a140.05 140.05 0 0 1 15.08-7.26 3.44 3.44 0 1 1 2.62 6.37 133.22 133.22 0 0 0-14.38 6.84 3.4 3.4 0 0 1-3.3-6ZM1618.89 1966.14a140.76 140.76 0 0 1 16.64-1.92 3.56 3.56 0 0 1 .4 7.11 133.67 133.67 0 0 0-15.81 1.74 3.52 3.52 0 0 1-1.2-6.94ZM1665.6 1965.78a140.32 140.32 0 0 1 16.36 3.64 3.68 3.68 0 0 1-2 7.07 133 133 0 0 0-15.49-3.53 3.64 3.64 0 0 1 1.17-7.18ZM1709.89 1980.78l14.38 7.75a3.8 3.8 0 0 1-3.6 6.68l-14.34-7.82a3.75 3.75 0 0 1 3.58-6.6ZM1750.16 2002.48l14.38 7.75a3.91 3.91 0 0 1-3.71 6.89l-14.34-7.82a3.87 3.87 0 0 1 3.69-6.81ZM1790.43 2024.17l14.38 7.75a4 4 0 1 1-3.82 7.1l-14.34-7.82a4 4 0 0 1 3.8-7ZM1830.69 2045.87l14.38 7.75a4.14 4.14 0 0 1-3.93 7.29l-14.34-7.82a4.11 4.11 0 0 1 3.91-7.22ZM1870.94 2067.6l14.37 7.76a4.21 4.21 0 1 1-4 7.41l-14.35-7.81a4.19 4.19 0 0 1 4-7.36ZM1911.18 2089.34l14.37 7.76a4.28 4.28 0 0 1-4.07 7.54l-14.35-7.81a4.26 4.26 0 0 1 4.06-7.49ZM1951.43 2111.07l14.37 7.76a4.35 4.35 0 0 1-4.14 7.66l-14.35-7.81a4.33 4.33 0 0 1 4.13-7.61ZM1991.67 2132.81l14.37 7.76a4.43 4.43 0 1 1-4.21 7.79l-14.35-7.81a4.4 4.4 0 0 1 4.19-7.74ZM2031.92 2154.55l14.37 7.76a4.5 4.5 0 1 1-4.27 7.91l-14.35-7.81a4.47 4.47 0 0 1 4.26-7.86ZM2072.16 2176.28l14.37 7.76a4.57 4.57 0 0 1-4.34 8l-14.35-7.81a4.54 4.54 0 0 1 4.33-8ZM2112.4 2198l14.37 7.76a4.64 4.64 0 1 1-4.41 8.16l-14.35-7.81a4.61 4.61 0 0 1 4.4-8.11ZM2152.65 2219.76l14.37 7.77a4.7 4.7 0 1 1-4.47 8.26l-14.35-7.8a4.68 4.68 0 0 1 4.46-8.23ZM2193.21 2238.43a132.29 132.29 0 0 0 15.36 3.55 4.72 4.72 0 1 1-1.57 9.31 141.68 141.68 0 0 1-16.45-3.82 4.71 4.71 0 0 1 2.67-9ZM2236.85 2243.67a132.16 132.16 0 0 0 15.67-1.68 4.74 4.74 0 0 1 1.57 9.35 141.68 141.68 0 0 1-16.8 1.79 4.73 4.73 0 0 1-.44-9.46ZM2281.24 2236.34l16-3.19a4.77 4.77 0 0 1 1.86 9.35l-16 3.17a4.76 4.76 0 0 1-1.85-9.33ZM2326.1 2227.41l16-3.19a4.79 4.79 0 1 1 1.87 9.4l-16 3.17a4.78 4.78 0 0 1-1.86-9.38ZM2371 2218.49l16-3.19a4.81 4.81 0 0 1 1.88 9.44l-16 3.17a4.81 4.81 0 0 1-1.87-9.43ZM2415.82 2209.56l16-3.19a4.84 4.84 0 0 1 1.89 9.49l-16 3.17a4.83 4.83 0 0 1-1.88-9.47ZM2460.68 2200.63l16-3.19a4.86 4.86 0 1 1 1.9 9.53l-16 3.17a4.85 4.85 0 0 1-1.89-9.52ZM2505.54 2191.71l16-3.19a4.88 4.88 0 1 1 1.91 9.58l-16 3.17a4.88 4.88 0 0 1-1.9-9.56ZM2550.4 2182.78l16-3.17a4.89 4.89 0 0 1 1.91 9.6l-16 3.19a4.9 4.9 0 1 1-1.91-9.61ZM2595.27 2173.9l16-3.17a4.87 4.87 0 0 1 1.9 9.55l-16 3.19a4.88 4.88 0 0 1-1.9-9.57ZM2640.13 2165l16-3.17a4.85 4.85 0 0 1 1.89 9.51l-16 3.19a4.85 4.85 0 1 1-1.9-9.52ZM2685 2156.14l16-3.17a4.82 4.82 0 0 1 1.88 9.46l-16 3.19a4.83 4.83 0 0 1-1.89-9.48ZM2729.87 2147.26l16-3.17a4.8 4.8 0 0 1 1.87 9.42l-16 3.19a4.81 4.81 0 1 1-1.88-9.43ZM2775.12 2138.63a141.78 141.78 0 0 1 16.86-1.15 4.78 4.78 0 0 1 .09 9.55 132.18 132.18 0 0 0-15.72 1.09 4.78 4.78 0 0 1-1.23-9.49ZM2822.2 2140.48a141.69 141.69 0 0 1 16.3 4.44 4.75 4.75 0 0 1-3 9 132.23 132.23 0 0 0-15.21-4.13 4.76 4.76 0 1 1 1.94-9.32ZM2866 2156.64l14.86 6.78a4.73 4.73 0 0 1-3.92 8.61l-14.87-6.76a4.74 4.74 0 0 1 3.92-8.62ZM2907.6 2175.61l14.86 6.78a4.7 4.7 0 0 1-3.9 8.56l-14.87-6.76a4.71 4.71 0 1 1 3.9-8.58ZM2949.21 2194.59l14.86 6.79a4.66 4.66 0 0 1-3.86 8.49l-14.88-6.75a4.69 4.69 0 0 1 3.87-8.54ZM2990.81 2213.61l14.86 6.79a4.59 4.59 0 0 1-3.81 8.36L2987 2222a4.62 4.62 0 1 1 3.81-8.41ZM3032.41 2232.63l14.86 6.79a4.52 4.52 0 0 1-3.75 8.23l-14.88-6.75a4.55 4.55 0 1 1 3.76-8.28ZM3074 2251.65l14.86 6.79a4.45 4.45 0 0 1-3.69 8.1l-14.88-6.75a4.47 4.47 0 0 1 3.7-8.15ZM3115.6 2270.67l14.86 6.79a4.38 4.38 0 0 1-3.63 8l-14.88-6.75a4.4 4.4 0 1 1 3.64-8ZM3157.2 2289.69l14.86 6.79a4.31 4.31 0 0 1-3.57 7.84l-14.88-6.75a4.33 4.33 0 0 1 3.58-7.89ZM3198.8 2308.71l14.86 6.79a4.24 4.24 0 0 1-3.51 7.71l-14.88-6.75a4.26 4.26 0 0 1 3.52-7.76ZM3240.4 2327.73l14.86 6.79a4.16 4.16 0 0 1-3.45 7.58l-14.88-6.75a4.19 4.19 0 0 1 3.46-7.63ZM3282 2346.76l14.85 6.81a4.07 4.07 0 0 1-3.37 7.4l-14.88-6.73a4.11 4.11 0 1 1 3.39-7.49ZM3323.57 2365.82l7.42 3.4c1.23.56 2.49 1.16 3.7 1.68l3.63 1.59.13.06a3.95 3.95 0 0 1-3.14 7.24l-3.86-1.66c-1.3-.55-2.5-1.12-3.75-1.68l-7.44-3.37a4 4 0 0 1 3.29-7.27ZM3365.67 2380.56a132.94 132.94 0 0 0 15.76 1.89 3.83 3.83 0 0 1-.44 7.65 140.61 140.61 0 0 1-16.68-1.91 3.87 3.87 0 0 1 1.34-7.63ZM3409.93 2381.08a133.38 133.38 0 0 0 15.52-3.38 3.71 3.71 0 0 1 2 7.14 140.88 140.88 0 0 1-16.37 3.65 3.75 3.75 0 1 1-1.2-7.41ZM3452 2367.07a133.13 133.13 0 0 0 13.56-8.29 3.59 3.59 0 0 1 4.13 5.89 140.37 140.37 0 0 1-14.25 8.81 3.64 3.64 0 1 1-3.45-6.4ZM3487.93 2340.36l12.35-10.69a3.48 3.48 0 0 1 4.57 5.25l-12.29 10.76a3.52 3.52 0 1 1-4.63-5.3ZM3522.51 2310.42l12.35-10.69a3.36 3.36 0 0 1 4.41 5.07l-12.27 10.75a3.4 3.4 0 1 1-4.48-5.12ZM3557.1 2280.5l12.36-10.68a3.2 3.2 0 0 1 4.2 4.83l-12.28 10.77a3.26 3.26 0 0 1-4.3-4.9ZM3591.71 2250.59l12.36-10.68a3 3 0 0 1 4 4.58l-12.28 10.77a3.09 3.09 0 0 1-4.08-4.65ZM3626.32 2220.68l12.36-10.68a2.87 2.87 0 0 1 3.77 4.33l-12.28 10.77a2.93 2.93 0 1 1-3.86-4.41ZM3660.93 2190.78l12.36-10.68a2.71 2.71 0 0 1 3.56 4.09l-12.29 10.81a2.77 2.77 0 0 1-3.65-4.16ZM3695.53 2160.87l12.36-10.68a2.54 2.54 0 0 1 3.34 3.84L3699 2164.8a2.6 2.6 0 0 1-3.43-3.92ZM3730.15 2131l12.37-10.67a2.36 2.36 0 0 1 3.1 3.56l-12.27 10.78a2.44 2.44 0 1 1-3.22-3.66ZM3764.78 2101.1l12.37-10.67a2.15 2.15 0 0 1 2.83 3.25l-12.27 10.78a2.23 2.23 0 0 1-2.94-3.35ZM3799.42 2071.22l12.37-10.67a1.95 1.95 0 0 1 2.55 2.94l-12.27 10.78a2 2 0 0 1-2.67-3ZM3834.06 2041.35l12.37-10.67a1.74 1.74 0 0 1 2.28 2.62l-12.27 10.78a1.81 1.81 0 1 1-2.39-2.72ZM3868.7 2011.48l12.37-10.67a1.52 1.52 0 0 1 2 2.3l-12.27 10.78a1.6 1.6 0 1 1-2.12-2.41ZM3903.36 1981.63l12.38-10.66a1.27 1.27 0 0 1 1.67 1.92l-12.26 10.79a1.36 1.36 0 0 1-1.8-2ZM3938 1951.79l12.38-10.66a1 1 0 0 1 1.34 1.54l-12.26 10.79a1.11 1.11 0 0 1-1.47-1.67ZM3972.69 1922l12.38-10.66a.77.77 0 0 1 1 1.16l-12.26 10.79a.86.86 0 0 1-1.13-1.29ZM4007.38 1892.14l12.39-10.64a.46.46 0 0 1 .61.7l-12.25 10.8a.57.57 0 0 1-.76-.86ZM4042.08 1862.34l12.39-10.64a.16.16 0 0 1 .21.24l-12.25 10.81a.27.27 0 0 1-.36-.4Z" transform="translate(-1011.4 -1191.67)"/><path fill="#735cd2" d="M1012.46 2474.05q170.13-143.63 341-286.38l170.83-142.79 21.35-17.85 5.34-4.46 2.67-2.23 2.83-2.2 5.69-4.39c2-1.35 4-2.64 6-4l3-2 3.14-1.75 6.29-3.48 6.53-3c1.09-.49 2.17-1 3.28-1.48l3.37-1.26c2.25-.82 4.48-1.73 6.76-2.46l6.91-2c2.28-.74 4.65-1.16 7-1.68l3.52-.75 1.76-.37c.59-.12 1.19-.18 1.78-.27l7.13-1c.59-.08 1.19-.17 1.78-.23l1.8-.12 3.59-.23c4.79-.46 9.59-.23 14.39-.22 2.4.08 4.79.36 7.18.53l3.59.3c1.19.12 2.37.35 3.56.53l7.12 1.12 7 1.64c1.17.28 2.34.54 3.5.84l3.44 1.08c2.29.73 4.59 1.41 6.86 2.2l6.7 2.67c1.11.46 2.25.86 3.33 1.38l3.24 1.58c2.15 1.06 4.34 2.11 6.45 3.19l6.13 3.3 12.26 6.59 196 105.56 195.95 105.71 48.91 26.35a131.53 131.53 0 0 0 24.63 9.79 133.89 133.89 0 0 0 26.11 4.58 128.18 128.18 0 0 0 26.49-.78c1.1-.15 2.2-.27 3.29-.45l3.27-.58c2.13-.35 4.48-.86 6.74-1.3l13.65-2.72 54.59-10.87 218.35-43.49 218.46-43.12a143.51 143.51 0 0 1 85.46 9.75l25.39 11.55 101.26 46.24 202.43 92.69 101.21 46.36 50.58 23.24c2.13 1 4.17 1.82 6.23 2.69l3.09 1.29a29.86 29.86 0 0 0 3.12 1.19l6.35 2.12c.53.17 1.05.37 1.59.52l1.62.41 3.24.83c4.29 1.25 8.73 1.82 13.11 2.67 2.21.27 4.44.48 6.66.73 1.11.1 2.22.27 3.33.33l3.35.12 3.35.12c1.12 0 2.23.11 3.35 0l6.7-.24c.56 0 1.12 0 1.67-.07l1.67-.18 3.33-.35 3.33-.35c1.11-.09 2.2-.37 3.31-.54l6.6-1.17 6.5-1.64c1.08-.3 2.18-.49 3.24-.87l3.19-1 3.19-1 1.59-.52c.53-.19 1-.42 1.56-.62l6.21-2.54a33.25 33.25 0 0 0 3-1.41l3-1.49 3-1.49c1-.5 1.94-1.12 2.91-1.67l5.79-3.4 5.53-3.81c.91-.65 1.87-1.24 2.74-1.94l2.62-2.1c1.75-1.42 3.49-2.75 5.24-4.25l5.26-4.55 84.25-72.76 168.64-145.36q168.83-145.15 338-289.92-166.51 147.72-333.79 294.67l-167.23 147-83.68 73.41-5.23 4.59c-1.76 1.53-3.69 3-5.53 4.55l-2.79 2.27c-.93.75-2 1.4-2.92 2.1l-5.9 4.13-6.18 3.7c-1 .6-2 1.27-3.11 1.81l-3.22 1.62-3.22 1.62c-1.07.54-2.13 1.11-3.26 1.54l-6.65 2.77c-.56.22-1.1.48-1.67.68l-1.71.58-3.42 1.15-3.42 1.15c-1.13.41-2.32.64-3.47 1l-7 1.81-7.09 1.32c-1.19.19-2.36.49-3.55.6l-3.58.41-3.58.4-1.79.2c-.6.06-1.2.06-1.8.09l-7.21.3c-1.2.09-2.4 0-3.61 0l-3.61-.1-3.61-.11c-1.2-.05-2.4-.22-3.59-.32-2.39-.25-4.79-.46-7.18-.74-4.73-.86-9.52-1.47-14.16-2.77l-3.51-.87-1.75-.44c-.58-.15-1.15-.36-1.72-.54l-6.87-2.24a34.26 34.26 0 0 1-3.38-1.26l-3.34-1.36c-2.22-.91-4.5-1.81-6.56-2.78l-50.74-22.89-101.41-45.91-202.82-91.85-101.36-46-25.29-11.47a130.8 130.8 0 0 0-77.89-8.78l-218.33 43.47-218.41 43.19-54.6 10.8-13.65 2.7c-2.3.44-4.49.92-6.93 1.32l-3.58.63c-1.2.19-2.4.33-3.61.49a140.79 140.79 0 0 1-29 .81 146.45 146.45 0 0 1-28.61-5.07 144 144 0 0 1-27-10.77c-2.21-1.11-4.18-2.22-6.23-3.33l-6.11-3.32-12.22-6.66-24.44-13.31L1921.12 2130l-195.43-106.67-12.21-6.67-6.11-3.34c-2-1.05-4-2-6-3l-3-1.5c-1-.49-2.06-.86-3.09-1.3l-6.21-2.53c-2.11-.74-4.25-1.38-6.37-2.08l-3.19-1c-1.08-.29-2.17-.53-3.26-.8l-6.52-1.57-6.62-1.09c-1.11-.17-2.2-.4-3.31-.52l-3.34-.3c-2.23-.17-4.45-.46-6.69-.55-4.47 0-9-.29-13.42.12l-3.35.19-1.68.09c-.56.05-1.11.14-1.67.21l-6.66.87c-.55.08-1.11.13-1.66.24l-1.64.34-3.29.68a66.41 66.41 0 0 0-6.54 1.52l-6.47 1.84c-2.14.67-4.22 1.52-6.33 2.26l-3.16 1.15c-1 .41-2 .91-3.07 1.36l-6.13 2.77-5.91 3.22-3 1.62-2.82 1.83c-1.88 1.23-3.78 2.42-5.64 3.67l-5.36 4.07-2.69 2-2.69 2.21-5.38 4.41-21.52 17.64-172.2 141.14q-172.33 140.99-345.03 281.52Z" opacity=".21" transform="translate(-1011.4 -1191.67)"/><path fill="url(#z)" d="M2587.71 2111.57A116.51 116.51 0 0 0 2417 1954.94a118.48 118.48 0 0 0-8.88 8.7 116 116 0 0 0-22.69 36.4l-2.6 7.38-65.74 214.11a10.07 10.07 0 0 0 13.64 12.52l207.67-83.91 7.13-3.23a116 116 0 0 0 34.31-25.74 118.48 118.48 0 0 0 7.87-9.6Zm-133.29-26.07a61.1 61.1 0 1 1 86.33-3.72 61.11 61.11 0 0 1-86.33 3.71Z" opacity=".76" transform="translate(-1011.4 -1191.67)"/><path fill="url(#g)" d="M2325.34 1914.18v-52.78a116.49 116.49 0 0 0-115.83 104.09 117.9 117.9 0 0 0-.66 12.42 115.69 115.69 0 0 0 7.88 42.15l3.07 7.2 96.29 202.2a9.93 9.93 0 0 0 9.25 6.11v-199.19a61.1 61.1 0 0 1 0-122.2Z" transform="translate(-1011.4 -1191.67)"/><path fill="url(#A)" d="M2441.85 1977.91a116 116 0 0 1-7.88 42.15l-3.07 7.2-96.29 202.2a10 10 0 0 1-9.26 6.11v-199.19a61.1 61.1 0 1 0 0-122.2v-52.78a116.49 116.49 0 0 1 115.85 104.09 117.9 117.9 0 0 1 .65 12.42Z" transform="translate(-1011.4 -1191.67)"/><path fill="url(#B)" d="M3399.38 1787a96.8 96.8 0 0 0-141.84-130.13 98.43 98.43 0 0 0-7.38 7.23 96.37 96.37 0 0 0-18.85 30.24l-2.16 6.13-54.62 177.89a8.37 8.37 0 0 0 11.33 10.4l172.53-69.71 5.92-2.68a96.37 96.37 0 0 0 28.5-21.38 98.43 98.43 0 0 0 6.57-7.99Zm-110.74-21.66a50.76 50.76 0 1 1 71.72-3.09 50.77 50.77 0 0 1-71.72 3.13Z" opacity=".76" transform="translate(-1011.4 -1191.67)"/><path fill="url(#h)" d="M3181.41 1623v-43.8a96.78 96.78 0 0 0-96.23 86.48 98 98 0 0 0-.55 10.32 96.11 96.11 0 0 0 6.55 35l2.55 6 80 168a8.25 8.25 0 0 0 7.69 5.08v-165.51a50.76 50.76 0 0 1 0-101.52Z" transform="translate(-1011.4 -1191.67)"/><path fill="url(#C)" d="M3278.2 1676a96.37 96.37 0 0 1-6.55 35l-2.55 6-80 168a8.27 8.27 0 0 1-7.7 5.08v-165.51a50.76 50.76 0 1 0 0-101.52v-43.85a96.78 96.78 0 0 1 96.25 86.48 98 98 0 0 1 .55 10.32Z" transform="translate(-1011.4 -1191.67)"/><g opacity=".52"><path fill="url(#D)" d="M435.37 292.41h43.56v1093.64h-43.56z" opacity=".59"/><path fill="url(#i)" d="M361.32 292.41h43.56v1093.64h-43.56z" opacity=".59"/></g><g opacity=".52"><path fill="url(#E)" d="M3512.42 1344.54h43.56v1093.64h-43.56z" opacity=".43" transform="rotate(-180 3028.505 1295.53)"/><path fill="url(#F)" d="M3586.48 1344.54h43.56v1093.64h-43.56z" opacity=".43" transform="rotate(-180 3102.56 1295.53)"/></g></svg>