<svg xmlns="http://www.w3.org/2000/svg" enable-background="new 0 0 3000 2500" viewBox="0 0 3000 2500"><rect width="2918.6" height="2432.2" x="40.7" y="33.9" fill="none"/><linearGradient id="a" x1="-10797.435" x2="-11797.774" y1="1812.081" y2="1216.758" gradientTransform="matrix(-1 0 0 1 -9670.8 0)" gradientUnits="userSpaceOnUse"><stop offset="0" stop-color="#7f7f7f"/><stop offset="1" stop-color="#444"/></linearGradient><polygon fill="url(#a)" points="1593.8 1065.3 2394.8 1533.7 1760.1 1908.5 953.3 1438.9"/><linearGradient id="b" x1="-11430.905" x2="-10311.389" y1="1661.577" y2="1661.577" gradientTransform="matrix(-1 0 0 1 -9670.8 0)" gradientUnits="userSpaceOnUse"><stop offset="0" stop-color="#7f7f7f"/><stop offset="1" stop-color="#444"/></linearGradient><polygon fill="url(#b)" points="1760.1 1908.5 1453.3 1887.4 640.6 1414.7 953.3 1438.9"/><linearGradient id="c" x1="-10697.22" x2="-10604.252" y1="1672.304" y2="1907.171" gradientTransform="matrix(-1 0 0 1 -9670.8 0)" gradientUnits="userSpaceOnUse"><stop offset="0" stop-color="#7f7f7f"/><stop offset="1" stop-color="#444"/></linearGradient><polygon fill="url(#c)" points="1453.3 1887.4 1322.1 2205.9 492.9 1726.6 640.6 1414.7"/><polygon fill="#8cdb79" points="2335.9 1533.8 1593.7 1099.8 977.2 1452.7 1731.4 1890.8"/><polygon fill="#85ba74" points="981.7 1455.7 666.5 1429.7 1428.8 1873.2 1731.4 1890.8"/><polygon fill="#8cdb79" points="1428.8 1873.2 666.5 1429.7 531.6 1714.6 1307.5 2163"/><path fill="#d6a86b" d="M2335.9,1533.8l-347.2-56.3c0,0-15.5,20.6-53.3,56.3s-80.4,69.6-80.4,69.6l192.7,103.6L2335.9,1533.8z"/><polygon fill="#d6a86b" points="1212.1 1318.2 1613 1495.3 1475.1 1597.4 1301.8 1439 1143.4 1551.8 1038.5 1555.3 977.2 1452.7 989.1 1445.8"/><polygon fill="#ead5bb" points="1905.5 1286.2 1623.8 1495.3 1398.1 1389.1 1716 1174.8"/><polygon fill="#d6a86b" points="1428.8 1873.2 1116.3 1694 973.1 1974.9 1307.5 2163"/><path fill="#efefef" d="M757.1,1691.4l-64.7,116.5l26.1,14.5l64.6-116.3l59.9,33.8c34.8,19.6,78.8,9,100.8-24.2l90.8-137l70.7,116.8
				L960,1962.6l26.2,14.2l134.2-246.7l166.3,420.8l20.8,12l8.2-19.7l-171.6-434.2l236.9-9.5l3.7-2.9c21-16,43.1-32.9,65.9-50.3
				l324.2,219.2l28.3-17.3l-327.6-221.1c47.7-36.4,97.6-74.4,145.9-111.1l409,197.7l31.1-18.1l-188.2-91l84.5-60.5
				c18.1-12.9,31.5-30.6,39.2-50.7l318.6,52.1l20.1-11.8l-35.3-20.9l-296.5-48.4c0.5-5.1,0.7-10.3,0.5-15.6
				c-1.4-37.7-21.5-71.9-53.8-91.5l-66.1-40.2c16.1-11.9,32.8-24.9,35.5-26.5c-2.4,1.4-27.6-16.2-27.6-16.2
				c-4.6,3.1-10.4,7.4-18.2,13.2c-14.8,10.9-35.7,26.5-60.8,45.3c-12.4,9.3-26.2,19.8-41.3,31.1l-174.4-97.2l130.8-88.2l-28.6-16.7
				l-131.5,88.6l-118.2-65.9l-33.1,15.7l123.6,68.9l-150.8,101.7l-143.8-69.2l-34.4,16.2l149.5,72.3L1146,1535.8h-102.4l-54.5-90
				l-12,6.8l-20-0.6l60.4,98.3l-95.8,144.5c-15,22.6-44.9,29.8-68.5,16.5l-251.7-142.1l-10.2,28.5L757.1,1691.4z M1746.5,1383.9
				c-33.3,25.2-71.7,54.3-115.3,87.5c-4.4,3.3-8.7,6.6-13.1,9.9l-196.8-95.1l149-100.4L1746.5,1383.9z M1648.3,1495.9
				c84.2-64,161.4-122.4,210.8-159.4l76.4,46.4c27,16.4,42.5,46.9,39,79.2c-2.5,23.9-16.2,45.2-35.8,59.2l-95.8,68.6L1648.3,1495.9z
				 M1591.5,1501.6c-40.1,30.5-78.9,60.1-112.7,85.9L1337,1443.1l55.7-37.6L1591.5,1501.6z M1370.4,1670.1l-239.7,9.6l-69.1-114.1
				h93.5l156.7-105.7l143,145.6C1412.2,1638.2,1380.8,1662.2,1370.4,1670.1z"/><linearGradient id="d" x1="-12065.609" x2="-10992.935" y1="1887.009" y2="1887.009" gradientTransform="matrix(-1 0 0 1 -9670.8 0)" gradientUnits="userSpaceOnUse"><stop offset="0" stop-color="#7f7f7f"/><stop offset="1" stop-color="#444"/></linearGradient><polygon fill="url(#d)" points="2394.8 1533.7 1760.1 1908.5 1453.3 1887.4 1322.1 2205.9 1322.1 2240.3 1461.4 1908.5 1769.5 1928.5 2394.8 1556.6"/><linearGradient id="e" x1="-10992.935" x2="-10163.711" y1="1983.46" y2="1983.46" gradientTransform="matrix(-1 0 0 1 -9670.8 0)" gradientUnits="userSpaceOnUse"><stop offset="0" stop-color="#7f7f7f"/><stop offset="1" stop-color="#444"/></linearGradient><polygon fill="url(#e)" points="1322.1 2205.9 492.9 1726.6 492.9 1761.6 1322.1 2240.3"/><linearGradient id="f" x1="-12006.745" x2="-10202.421" y1="1411.294" y2="1411.294" gradientTransform="matrix(-1 0 0 1 -9670.8 0)" gradientUnits="userSpaceOnUse"><stop offset="0" stop-color="#7f7f7f"/><stop offset="1" stop-color="#444"/></linearGradient><polygon fill="url(#f)" points="2335.9 1533.8 1593.7 1099.8 977.2 1452.7 666.5 1429.7 531.6 1714.6 545.9 1722.8 680.8 1437.1 999.2 1463.1 1597.2 1112.9 2324.9 1542.3"/><g opacity=".17"><ellipse cx="2432.4" cy="991.8" fill="#4c0000" opacity="0" rx="131.4" ry="57.7"/><ellipse cx="2432.4" cy="991.8" fill="#4a0101" opacity=".038" rx="128.2" ry="56.3"/><ellipse cx="2432.4" cy="991.8" fill="#480202" opacity=".077" rx="125" ry="54.9"/><ellipse cx="2432.4" cy="991.8" fill="#460303" opacity=".115" rx="121.8" ry="53.5"/><ellipse cx="2432.4" cy="991.8" fill="#440404" opacity=".154" rx="118.7" ry="52.1"/><ellipse cx="2432.4" cy="991.8" fill="#420505" opacity=".192" rx="115.5" ry="50.7"/><ellipse cx="2432.4" cy="991.8" fill="#400606" opacity=".231" rx="112.3" ry="49.3"/><ellipse cx="2432.4" cy="991.8" fill="#3e0606" opacity=".269" rx="109.1" ry="47.9"/><ellipse cx="2432.4" cy="991.8" fill="#3c0707" opacity=".308" rx="105.9" ry="46.5"/><ellipse cx="2432.4" cy="991.8" fill="#3a0808" opacity=".346" rx="102.8" ry="45.1"/><ellipse cx="2432.4" cy="991.8" fill="#380909" opacity=".385" rx="99.6" ry="43.7"/><ellipse cx="2432.4" cy="991.8" fill="#360a0a" opacity=".423" rx="96.4" ry="42.3"/><ellipse cx="2432.4" cy="991.8" fill="#340b0b" opacity=".462" rx="93.2" ry="41"/><ellipse cx="2432.4" cy="991.8" fill="#330c0c" opacity=".5" rx="90" ry="39.6"/><ellipse cx="2432.4" cy="991.8" fill="#310d0d" opacity=".538" rx="86.9" ry="38.2"/><ellipse cx="2432.4" cy="991.8" fill="#2f0e0e" opacity=".577" rx="83.7" ry="36.8"/><ellipse cx="2432.4" cy="991.8" fill="#2d0f0f" opacity=".615" rx="80.5" ry="35.4"/><ellipse cx="2432.4" cy="991.8" fill="#2b1010" opacity=".654" rx="77.3" ry="34"/><ellipse cx="2432.4" cy="991.8" fill="#291111" opacity=".692" rx="74.1" ry="32.6"/><ellipse cx="2432.4" cy="991.8" fill="#271212" opacity=".731" rx="71" ry="31.2"/><ellipse cx="2432.4" cy="991.8" fill="#251212" opacity=".769" rx="67.8" ry="29.8"/><ellipse cx="2432.4" cy="991.8" fill="#231313" opacity=".808" rx="64.6" ry="28.4"/><ellipse cx="2432.4" cy="991.8" fill="#211414" opacity=".846" rx="61.4" ry="27"/><ellipse cx="2432.4" cy="991.8" fill="#1f1515" opacity=".885" rx="58.2" ry="25.6"/><ellipse cx="2432.4" cy="991.8" fill="#1d1616" opacity=".923" rx="55.1" ry="24.2"/><ellipse cx="2432.4" cy="991.8" fill="#1b1717" opacity=".962" rx="51.9" ry="22.8"/><ellipse cx="2432.4" cy="991.8" fill="#191818" rx="48.7" ry="21.4"/></g><g opacity=".17"><ellipse cx="1765.2" cy="1516.3" fill="#4c0000" opacity="0" rx="152.5" ry="67"/><ellipse cx="1765.2" cy="1516.3" fill="#4a0101" opacity=".038" rx="148.8" ry="65.4"/><ellipse cx="1765.2" cy="1516.3" fill="#480202" opacity=".077" rx="145.1" ry="63.8"/><ellipse cx="1765.2" cy="1516.3" fill="#460303" opacity=".115" rx="141.4" ry="62.1"/><ellipse cx="1765.2" cy="1516.3" fill="#440404" opacity=".154" rx="137.8" ry="60.5"/><ellipse cx="1765.2" cy="1516.3" fill="#420505" opacity=".192" rx="134.1" ry="58.9"/><ellipse cx="1765.2" cy="1516.3" fill="#400606" opacity=".231" rx="130.4" ry="57.3"/><ellipse cx="1765.2" cy="1516.3" fill="#3e0606" opacity=".269" rx="126.7" ry="55.6"/><ellipse cx="1765.2" cy="1516.3" fill="#3c0707" opacity=".308" rx="123" ry="54"/><ellipse cx="1765.2" cy="1516.3" fill="#3a0808" opacity=".346" rx="119.3" ry="52.4"/><ellipse cx="1765.2" cy="1516.3" fill="#380909" opacity=".385" rx="115.6" ry="50.8"/><ellipse cx="1765.2" cy="1516.3" fill="#360a0a" opacity=".423" rx="111.9" ry="49.2"/><ellipse cx="1765.2" cy="1516.3" fill="#340b0b" opacity=".462" rx="108.2" ry="47.5"/><ellipse cx="1765.2" cy="1516.3" fill="#330c0c" opacity=".5" rx="104.5" ry="45.9"/><ellipse cx="1765.2" cy="1516.3" fill="#310d0d" opacity=".538" rx="100.8" ry="44.3"/><ellipse cx="1765.2" cy="1516.3" fill="#2f0e0e" opacity=".577" rx="97.2" ry="42.7"/><ellipse cx="1765.2" cy="1516.3" fill="#2d0f0f" opacity=".615" rx="93.5" ry="41.1"/><ellipse cx="1765.2" cy="1516.3" fill="#2b1010" opacity=".654" rx="89.8" ry="39.4"/><ellipse cx="1765.2" cy="1516.3" fill="#291111" opacity=".692" rx="86.1" ry="37.8"/><ellipse cx="1765.2" cy="1516.3" fill="#271212" opacity=".731" rx="82.4" ry="36.2"/><ellipse cx="1765.2" cy="1516.3" fill="#251212" opacity=".769" rx="78.7" ry="34.6"/><ellipse cx="1765.2" cy="1516.3" fill="#231313" opacity=".808" rx="75" ry="32.9"/><ellipse cx="1765.2" cy="1516.3" fill="#211414" opacity=".846" rx="71.3" ry="31.3"/><ellipse cx="1765.2" cy="1516.3" fill="#1f1515" opacity=".885" rx="67.6" ry="29.7"/><ellipse cx="1765.2" cy="1516.3" fill="#1d1616" opacity=".923" rx="63.9" ry="28.1"/><ellipse cx="1765.2" cy="1516.3" fill="#1b1717" opacity=".962" rx="60.2" ry="26.5"/><ellipse cx="1765.2" cy="1516.3" fill="#191818" rx="56.5" ry="24.8"/></g><g opacity=".17"><ellipse cx="1342.8" cy="1675.7" fill="#4c0000" opacity="0" rx="152.5" ry="67"/><ellipse cx="1342.8" cy="1675.7" fill="#4a0101" opacity=".038" rx="148.8" ry="65.4"/><ellipse cx="1342.8" cy="1675.7" fill="#480202" opacity=".077" rx="145.1" ry="63.8"/><ellipse cx="1342.8" cy="1675.7" fill="#460303" opacity=".115" rx="141.4" ry="62.1"/><ellipse cx="1342.8" cy="1675.7" fill="#440404" opacity=".154" rx="137.8" ry="60.5"/><ellipse cx="1342.8" cy="1675.7" fill="#420505" opacity=".192" rx="134.1" ry="58.9"/><ellipse cx="1342.8" cy="1675.7" fill="#400606" opacity=".231" rx="130.4" ry="57.3"/><ellipse cx="1342.8" cy="1675.7" fill="#3e0606" opacity=".269" rx="126.7" ry="55.6"/><ellipse cx="1342.8" cy="1675.7" fill="#3c0707" opacity=".308" rx="123" ry="54"/><ellipse cx="1342.8" cy="1675.7" fill="#3a0808" opacity=".346" rx="119.3" ry="52.4"/><ellipse cx="1342.8" cy="1675.7" fill="#380909" opacity=".385" rx="115.6" ry="50.8"/><ellipse cx="1342.8" cy="1675.7" fill="#360a0a" opacity=".423" rx="111.9" ry="49.2"/><ellipse cx="1342.8" cy="1675.7" fill="#340b0b" opacity=".462" rx="108.2" ry="47.5"/><ellipse cx="1342.8" cy="1675.7" fill="#330c0c" opacity=".5" rx="104.5" ry="45.9"/><ellipse cx="1342.8" cy="1675.7" fill="#310d0d" opacity=".538" rx="100.8" ry="44.3"/><ellipse cx="1342.8" cy="1675.7" fill="#2f0e0e" opacity=".577" rx="97.2" ry="42.7"/><ellipse cx="1342.8" cy="1675.7" fill="#2d0f0f" opacity=".615" rx="93.5" ry="41.1"/><ellipse cx="1342.8" cy="1675.7" fill="#2b1010" opacity=".654" rx="89.8" ry="39.4"/><ellipse cx="1342.8" cy="1675.7" fill="#291111" opacity=".692" rx="86.1" ry="37.8"/><ellipse cx="1342.8" cy="1675.7" fill="#271212" opacity=".731" rx="82.4" ry="36.2"/><ellipse cx="1342.8" cy="1675.7" fill="#251212" opacity=".769" rx="78.7" ry="34.6"/><ellipse cx="1342.8" cy="1675.7" fill="#231313" opacity=".808" rx="75" ry="32.9"/><ellipse cx="1342.8" cy="1675.7" fill="#211414" opacity=".846" rx="71.3" ry="31.3"/><ellipse cx="1342.8" cy="1675.7" fill="#1f1515" opacity=".885" rx="67.6" ry="29.7"/><ellipse cx="1342.8" cy="1675.7" fill="#1d1616" opacity=".923" rx="63.9" ry="28.1"/><ellipse cx="1342.8" cy="1675.7" fill="#1b1717" opacity=".962" rx="60.2" ry="26.5"/><ellipse cx="1342.8" cy="1675.7" fill="#191818" rx="56.5" ry="24.8"/></g><g opacity=".17"><ellipse cx="912.8" cy="1516.3" fill="#4c0000" opacity="0" rx="152.5" ry="67"/><ellipse cx="912.8" cy="1516.3" fill="#4a0101" opacity=".038" rx="148.8" ry="65.4"/><ellipse cx="912.8" cy="1516.3" fill="#480202" opacity=".077" rx="145.1" ry="63.8"/><ellipse cx="912.8" cy="1516.3" fill="#460303" opacity=".115" rx="141.4" ry="62.1"/><ellipse cx="912.8" cy="1516.3" fill="#440404" opacity=".154" rx="137.8" ry="60.5"/><ellipse cx="912.8" cy="1516.3" fill="#420505" opacity=".192" rx="134.1" ry="58.9"/><ellipse cx="912.8" cy="1516.3" fill="#400606" opacity=".231" rx="130.4" ry="57.3"/><ellipse cx="912.8" cy="1516.3" fill="#3e0606" opacity=".269" rx="126.7" ry="55.6"/><ellipse cx="912.8" cy="1516.3" fill="#3c0707" opacity=".308" rx="123" ry="54"/><ellipse cx="912.8" cy="1516.3" fill="#3a0808" opacity=".346" rx="119.3" ry="52.4"/><ellipse cx="912.8" cy="1516.3" fill="#380909" opacity=".385" rx="115.6" ry="50.8"/><ellipse cx="912.8" cy="1516.3" fill="#360a0a" opacity=".423" rx="111.9" ry="49.2"/><ellipse cx="912.8" cy="1516.3" fill="#340b0b" opacity=".462" rx="108.2" ry="47.5"/><ellipse cx="912.8" cy="1516.3" fill="#330c0c" opacity=".5" rx="104.5" ry="45.9"/><ellipse cx="912.8" cy="1516.3" fill="#310d0d" opacity=".538" rx="100.8" ry="44.3"/><ellipse cx="912.8" cy="1516.3" fill="#2f0e0e" opacity=".577" rx="97.2" ry="42.7"/><ellipse cx="912.8" cy="1516.3" fill="#2d0f0f" opacity=".615" rx="93.5" ry="41.1"/><ellipse cx="912.8" cy="1516.3" fill="#2b1010" opacity=".654" rx="89.8" ry="39.4"/><ellipse cx="912.8" cy="1516.3" fill="#291111" opacity=".692" rx="86.1" ry="37.8"/><ellipse cx="912.8" cy="1516.3" fill="#271212" opacity=".731" rx="82.4" ry="36.2"/><ellipse cx="912.8" cy="1516.3" fill="#251212" opacity=".769" rx="78.7" ry="34.6"/><ellipse cx="912.8" cy="1516.3" fill="#231313" opacity=".808" rx="75" ry="32.9"/><ellipse cx="912.8" cy="1516.3" fill="#211414" opacity=".846" rx="71.3" ry="31.3"/><ellipse cx="912.8" cy="1516.3" fill="#1f1515" opacity=".885" rx="67.6" ry="29.7"/><ellipse cx="912.8" cy="1516.3" fill="#1d1616" opacity=".923" rx="63.9" ry="28.1"/><ellipse cx="912.8" cy="1516.3" fill="#1b1717" opacity=".962" rx="60.2" ry="26.5"/><ellipse cx="912.8" cy="1516.3" fill="#191818" rx="56.5" ry="24.8"/></g><g opacity=".17"><ellipse cx="1563.3" cy="1165" fill="#4c0000" opacity="0" rx="152.5" ry="67"/><ellipse cx="1563.3" cy="1165" fill="#4a0101" opacity=".038" rx="148.8" ry="65.4"/><ellipse cx="1563.3" cy="1165" fill="#480202" opacity=".077" rx="145.1" ry="63.8"/><ellipse cx="1563.3" cy="1165" fill="#460303" opacity=".115" rx="141.4" ry="62.1"/><ellipse cx="1563.3" cy="1165" fill="#440404" opacity=".154" rx="137.8" ry="60.5"/><ellipse cx="1563.3" cy="1165" fill="#420505" opacity=".192" rx="134.1" ry="58.9"/><ellipse cx="1563.3" cy="1165" fill="#400606" opacity=".231" rx="130.4" ry="57.3"/><ellipse cx="1563.3" cy="1165" fill="#3e0606" opacity=".269" rx="126.7" ry="55.6"/><ellipse cx="1563.3" cy="1165" fill="#3c0707" opacity=".308" rx="123" ry="54"/><ellipse cx="1563.3" cy="1165" fill="#3a0808" opacity=".346" rx="119.3" ry="52.4"/><ellipse cx="1563.3" cy="1165" fill="#380909" opacity=".385" rx="115.6" ry="50.8"/><ellipse cx="1563.3" cy="1165" fill="#360a0a" opacity=".423" rx="111.9" ry="49.2"/><ellipse cx="1563.3" cy="1165" fill="#340b0b" opacity=".462" rx="108.2" ry="47.5"/><ellipse cx="1563.3" cy="1165" fill="#330c0c" opacity=".5" rx="104.5" ry="45.9"/><ellipse cx="1563.3" cy="1165" fill="#310d0d" opacity=".538" rx="100.8" ry="44.3"/><ellipse cx="1563.3" cy="1165" fill="#2f0e0e" opacity=".577" rx="97.2" ry="42.7"/><ellipse cx="1563.3" cy="1165" fill="#2d0f0f" opacity=".615" rx="93.5" ry="41.1"/><ellipse cx="1563.3" cy="1165" fill="#2b1010" opacity=".654" rx="89.8" ry="39.4"/><ellipse cx="1563.3" cy="1165" fill="#291111" opacity=".692" rx="86.1" ry="37.8"/><ellipse cx="1563.3" cy="1165" fill="#271212" opacity=".731" rx="82.4" ry="36.2"/><ellipse cx="1563.3" cy="1165" fill="#251212" opacity=".769" rx="78.7" ry="34.6"/><ellipse cx="1563.3" cy="1165" fill="#231313" opacity=".808" rx="75" ry="32.9"/><ellipse cx="1563.3" cy="1165" fill="#211414" opacity=".846" rx="71.3" ry="31.3"/><ellipse cx="1563.3" cy="1165" fill="#1f1515" opacity=".885" rx="67.6" ry="29.7"/><ellipse cx="1563.3" cy="1165" fill="#1d1616" opacity=".923" rx="63.9" ry="28.1"/><ellipse cx="1563.3" cy="1165" fill="#1b1717" opacity=".962" rx="60.2" ry="26.5"/><ellipse cx="1563.3" cy="1165" fill="#191818" rx="56.5" ry="24.8"/></g><g opacity=".17"><ellipse cx="588.7" cy="1206.5" fill="#4c0000" opacity="0" rx="152.5" ry="67"/><ellipse cx="588.7" cy="1206.5" fill="#4a0101" opacity=".038" rx="148.8" ry="65.4"/><ellipse cx="588.7" cy="1206.5" fill="#480202" opacity=".077" rx="145.1" ry="63.8"/><ellipse cx="588.7" cy="1206.5" fill="#460303" opacity=".115" rx="141.4" ry="62.1"/><ellipse cx="588.7" cy="1206.5" fill="#440404" opacity=".154" rx="137.8" ry="60.5"/><ellipse cx="588.7" cy="1206.5" fill="#420505" opacity=".192" rx="134.1" ry="58.9"/><ellipse cx="588.7" cy="1206.5" fill="#400606" opacity=".231" rx="130.4" ry="57.3"/><ellipse cx="588.7" cy="1206.5" fill="#3e0606" opacity=".269" rx="126.7" ry="55.6"/><ellipse cx="588.7" cy="1206.5" fill="#3c0707" opacity=".308" rx="123" ry="54"/><ellipse cx="588.7" cy="1206.5" fill="#3a0808" opacity=".346" rx="119.3" ry="52.4"/><ellipse cx="588.7" cy="1206.5" fill="#380909" opacity=".385" rx="115.6" ry="50.8"/><ellipse cx="588.7" cy="1206.5" fill="#360a0a" opacity=".423" rx="111.9" ry="49.2"/><ellipse cx="588.7" cy="1206.5" fill="#340b0b" opacity=".462" rx="108.2" ry="47.5"/><ellipse cx="588.7" cy="1206.5" fill="#330c0c" opacity=".5" rx="104.5" ry="45.9"/><ellipse cx="588.7" cy="1206.5" fill="#310d0d" opacity=".538" rx="100.8" ry="44.3"/><ellipse cx="588.7" cy="1206.5" fill="#2f0e0e" opacity=".577" rx="97.2" ry="42.7"/><ellipse cx="588.7" cy="1206.5" fill="#2d0f0f" opacity=".615" rx="93.5" ry="41.1"/><ellipse cx="588.7" cy="1206.5" fill="#2b1010" opacity=".654" rx="89.8" ry="39.4"/><ellipse cx="588.7" cy="1206.5" fill="#291111" opacity=".692" rx="86.1" ry="37.8"/><ellipse cx="588.7" cy="1206.5" fill="#271212" opacity=".731" rx="82.4" ry="36.2"/><ellipse cx="588.7" cy="1206.5" fill="#251212" opacity=".769" rx="78.7" ry="34.6"/><ellipse cx="588.7" cy="1206.5" fill="#231313" opacity=".808" rx="75" ry="32.9"/><ellipse cx="588.7" cy="1206.5" fill="#211414" opacity=".846" rx="71.3" ry="31.3"/><ellipse cx="588.7" cy="1206.5" fill="#1f1515" opacity=".885" rx="67.6" ry="29.7"/><ellipse cx="588.7" cy="1206.5" fill="#1d1616" opacity=".923" rx="63.9" ry="28.1"/><ellipse cx="588.7" cy="1206.5" fill="#1b1717" opacity=".962" rx="60.2" ry="26.5"/><ellipse cx="588.7" cy="1206.5" fill="#191818" rx="56.5" ry="24.8"/></g><g opacity=".17"><ellipse cx="2279.9" cy="1240.1" fill="#4c0000" opacity="0" rx="152.5" ry="67"/><ellipse cx="2279.9" cy="1240.1" fill="#4a0101" opacity=".038" rx="148.8" ry="65.4"/><ellipse cx="2279.9" cy="1240.1" fill="#480202" opacity=".077" rx="145.1" ry="63.8"/><ellipse cx="2279.9" cy="1240.1" fill="#460303" opacity=".115" rx="141.4" ry="62.1"/><ellipse cx="2279.9" cy="1240.1" fill="#440404" opacity=".154" rx="137.8" ry="60.5"/><ellipse cx="2279.9" cy="1240.1" fill="#420505" opacity=".192" rx="134.1" ry="58.9"/><ellipse cx="2279.9" cy="1240.1" fill="#400606" opacity=".231" rx="130.4" ry="57.3"/><ellipse cx="2279.9" cy="1240.1" fill="#3e0606" opacity=".269" rx="126.7" ry="55.6"/><ellipse cx="2279.9" cy="1240.1" fill="#3c0707" opacity=".308" rx="123" ry="54"/><ellipse cx="2279.9" cy="1240.1" fill="#3a0808" opacity=".346" rx="119.3" ry="52.4"/><ellipse cx="2279.9" cy="1240.1" fill="#380909" opacity=".385" rx="115.6" ry="50.8"/><ellipse cx="2279.9" cy="1240.1" fill="#360a0a" opacity=".423" rx="111.9" ry="49.2"/><ellipse cx="2279.9" cy="1240.1" fill="#340b0b" opacity=".462" rx="108.2" ry="47.5"/><ellipse cx="2279.9" cy="1240.1" fill="#330c0c" opacity=".5" rx="104.5" ry="45.9"/><ellipse cx="2279.9" cy="1240.1" fill="#310d0d" opacity=".538" rx="100.8" ry="44.3"/><ellipse cx="2279.9" cy="1240.1" fill="#2f0e0e" opacity=".577" rx="97.2" ry="42.7"/><ellipse cx="2279.9" cy="1240.1" fill="#2d0f0f" opacity=".615" rx="93.5" ry="41.1"/><ellipse cx="2279.9" cy="1240.1" fill="#2b1010" opacity=".654" rx="89.8" ry="39.4"/><ellipse cx="2279.9" cy="1240.1" fill="#291111" opacity=".692" rx="86.1" ry="37.8"/><ellipse cx="2279.9" cy="1240.1" fill="#271212" opacity=".731" rx="82.4" ry="36.2"/><ellipse cx="2279.9" cy="1240.1" fill="#251212" opacity=".769" rx="78.7" ry="34.6"/><ellipse cx="2279.9" cy="1240.1" fill="#231313" opacity=".808" rx="75" ry="32.9"/><ellipse cx="2279.9" cy="1240.1" fill="#211414" opacity=".846" rx="71.3" ry="31.3"/><ellipse cx="2279.9" cy="1240.1" fill="#1f1515" opacity=".885" rx="67.6" ry="29.7"/><ellipse cx="2279.9" cy="1240.1" fill="#1d1616" opacity=".923" rx="63.9" ry="28.1"/><ellipse cx="2279.9" cy="1240.1" fill="#1b1717" opacity=".962" rx="60.2" ry="26.5"/><ellipse cx="2279.9" cy="1240.1" fill="#191818" rx="56.5" ry="24.8"/></g><g opacity=".17"><ellipse cx="859.7" cy="978.9" fill="#4c0000" opacity="0" rx="152.5" ry="67"/><ellipse cx="859.7" cy="978.9" fill="#4a0101" opacity=".038" rx="148.8" ry="65.4"/><ellipse cx="859.7" cy="978.9" fill="#480202" opacity=".077" rx="145.1" ry="63.8"/><ellipse cx="859.7" cy="978.9" fill="#460303" opacity=".115" rx="141.4" ry="62.1"/><ellipse cx="859.7" cy="978.9" fill="#440404" opacity=".154" rx="137.8" ry="60.5"/><ellipse cx="859.7" cy="978.9" fill="#420505" opacity=".192" rx="134.1" ry="58.9"/><ellipse cx="859.7" cy="978.9" fill="#400606" opacity=".231" rx="130.4" ry="57.3"/><ellipse cx="859.7" cy="978.9" fill="#3e0606" opacity=".269" rx="126.7" ry="55.6"/><ellipse cx="859.7" cy="978.9" fill="#3c0707" opacity=".308" rx="123" ry="54"/><ellipse cx="859.7" cy="978.9" fill="#3a0808" opacity=".346" rx="119.3" ry="52.4"/><ellipse cx="859.7" cy="978.9" fill="#380909" opacity=".385" rx="115.6" ry="50.8"/><ellipse cx="859.7" cy="978.9" fill="#360a0a" opacity=".423" rx="111.9" ry="49.2"/><ellipse cx="859.7" cy="978.9" fill="#340b0b" opacity=".462" rx="108.2" ry="47.5"/><ellipse cx="859.7" cy="978.9" fill="#330c0c" opacity=".5" rx="104.5" ry="45.9"/><ellipse cx="859.7" cy="978.9" fill="#310d0d" opacity=".538" rx="100.8" ry="44.3"/><ellipse cx="859.7" cy="978.9" fill="#2f0e0e" opacity=".577" rx="97.2" ry="42.7"/><ellipse cx="859.7" cy="978.9" fill="#2d0f0f" opacity=".615" rx="93.5" ry="41.1"/><ellipse cx="859.7" cy="978.9" fill="#2b1010" opacity=".654" rx="89.8" ry="39.4"/><ellipse cx="859.7" cy="978.9" fill="#291111" opacity=".692" rx="86.1" ry="37.8"/><ellipse cx="859.7" cy="978.9" fill="#271212" opacity=".731" rx="82.4" ry="36.2"/><ellipse cx="859.7" cy="978.9" fill="#251212" opacity=".769" rx="78.7" ry="34.6"/><ellipse cx="859.7" cy="978.9" fill="#231313" opacity=".808" rx="75" ry="32.9"/><ellipse cx="859.7" cy="978.9" fill="#211414" opacity=".846" rx="71.3" ry="31.3"/><ellipse cx="859.7" cy="978.9" fill="#1f1515" opacity=".885" rx="67.6" ry="29.7"/><ellipse cx="859.7" cy="978.9" fill="#1d1616" opacity=".923" rx="63.9" ry="28.1"/><ellipse cx="859.7" cy="978.9" fill="#1b1717" opacity=".962" rx="60.2" ry="26.5"/><ellipse cx="859.7" cy="978.9" fill="#191818" rx="56.5" ry="24.8"/></g><g opacity=".17"><ellipse cx="817.4" cy="659.7" fill="#4c0000" opacity="0" rx="131.4" ry="57.7"/><ellipse cx="817.4" cy="659.7" fill="#4a0101" opacity=".038" rx="128.2" ry="56.3"/><ellipse cx="817.4" cy="659.7" fill="#480202" opacity=".077" rx="125" ry="54.9"/><ellipse cx="817.4" cy="659.7" fill="#460303" opacity=".115" rx="121.8" ry="53.5"/><ellipse cx="817.4" cy="659.7" fill="#440404" opacity=".154" rx="118.7" ry="52.1"/><ellipse cx="817.4" cy="659.7" fill="#420505" opacity=".192" rx="115.5" ry="50.7"/><ellipse cx="817.4" cy="659.7" fill="#400606" opacity=".231" rx="112.3" ry="49.3"/><ellipse cx="817.4" cy="659.7" fill="#3e0606" opacity=".269" rx="109.1" ry="47.9"/><ellipse cx="817.4" cy="659.7" fill="#3c0707" opacity=".308" rx="105.9" ry="46.5"/><ellipse cx="817.4" cy="659.7" fill="#3a0808" opacity=".346" rx="102.8" ry="45.1"/><ellipse cx="817.4" cy="659.7" fill="#380909" opacity=".385" rx="99.6" ry="43.7"/><ellipse cx="817.4" cy="659.7" fill="#360a0a" opacity=".423" rx="96.4" ry="42.3"/><ellipse cx="817.4" cy="659.7" fill="#340b0b" opacity=".462" rx="93.2" ry="41"/><ellipse cx="817.4" cy="659.7" fill="#330c0c" opacity=".5" rx="90" ry="39.6"/><ellipse cx="817.4" cy="659.7" fill="#310d0d" opacity=".538" rx="86.9" ry="38.2"/><ellipse cx="817.4" cy="659.7" fill="#2f0e0e" opacity=".577" rx="83.7" ry="36.8"/><ellipse cx="817.4" cy="659.7" fill="#2d0f0f" opacity=".615" rx="80.5" ry="35.4"/><ellipse cx="817.4" cy="659.7" fill="#2b1010" opacity=".654" rx="77.3" ry="34"/><ellipse cx="817.4" cy="659.7" fill="#291111" opacity=".692" rx="74.1" ry="32.6"/><ellipse cx="817.4" cy="659.7" fill="#271212" opacity=".731" rx="71" ry="31.2"/><ellipse cx="817.4" cy="659.7" fill="#251212" opacity=".769" rx="67.8" ry="29.8"/><ellipse cx="817.4" cy="659.7" fill="#231313" opacity=".808" rx="64.6" ry="28.4"/><ellipse cx="817.4" cy="659.7" fill="#211414" opacity=".846" rx="61.4" ry="27"/><ellipse cx="817.4" cy="659.7" fill="#1f1515" opacity=".885" rx="58.2" ry="25.6"/><ellipse cx="817.4" cy="659.7" fill="#1d1616" opacity=".923" rx="55.1" ry="24.2"/><ellipse cx="817.4" cy="659.7" fill="#1b1717" opacity=".962" rx="51.9" ry="22.8"/><ellipse cx="817.4" cy="659.7" fill="#191818" rx="48.7" ry="21.4"/></g><g opacity=".17"><ellipse cx="1150" cy="446.6" fill="#4c0000" opacity="0" rx="131.4" ry="57.7"/><ellipse cx="1150" cy="446.6" fill="#4a0101" opacity=".038" rx="128.2" ry="56.3"/><ellipse cx="1150" cy="446.6" fill="#480202" opacity=".077" rx="125" ry="54.9"/><ellipse cx="1150" cy="446.6" fill="#460303" opacity=".115" rx="121.8" ry="53.5"/><ellipse cx="1150" cy="446.6" fill="#440404" opacity=".154" rx="118.7" ry="52.1"/><ellipse cx="1150" cy="446.6" fill="#420505" opacity=".192" rx="115.5" ry="50.7"/><ellipse cx="1150" cy="446.6" fill="#400606" opacity=".231" rx="112.3" ry="49.3"/><ellipse cx="1150" cy="446.6" fill="#3e0606" opacity=".269" rx="109.1" ry="47.9"/><ellipse cx="1150" cy="446.6" fill="#3c0707" opacity=".308" rx="105.9" ry="46.5"/><ellipse cx="1150" cy="446.6" fill="#3a0808" opacity=".346" rx="102.8" ry="45.1"/><ellipse cx="1150" cy="446.6" fill="#380909" opacity=".385" rx="99.6" ry="43.7"/><ellipse cx="1150" cy="446.6" fill="#360a0a" opacity=".423" rx="96.4" ry="42.3"/><ellipse cx="1150" cy="446.6" fill="#340b0b" opacity=".462" rx="93.2" ry="41"/><ellipse cx="1150" cy="446.6" fill="#330c0c" opacity=".5" rx="90" ry="39.6"/><ellipse cx="1150" cy="446.6" fill="#310d0d" opacity=".538" rx="86.9" ry="38.2"/><ellipse cx="1150" cy="446.6" fill="#2f0e0e" opacity=".577" rx="83.7" ry="36.8"/><ellipse cx="1150" cy="446.6" fill="#2d0f0f" opacity=".615" rx="80.5" ry="35.4"/><ellipse cx="1150" cy="446.6" fill="#2b1010" opacity=".654" rx="77.3" ry="34"/><ellipse cx="1150" cy="446.6" fill="#291111" opacity=".692" rx="74.1" ry="32.6"/><ellipse cx="1150" cy="446.6" fill="#271212" opacity=".731" rx="71" ry="31.2"/><ellipse cx="1150" cy="446.6" fill="#251212" opacity=".769" rx="67.8" ry="29.8"/><ellipse cx="1150" cy="446.6" fill="#231313" opacity=".808" rx="64.6" ry="28.4"/><ellipse cx="1150" cy="446.6" fill="#211414" opacity=".846" rx="61.4" ry="27"/><ellipse cx="1150" cy="446.6" fill="#1f1515" opacity=".885" rx="58.2" ry="25.6"/><ellipse cx="1150" cy="446.6" fill="#1d1616" opacity=".923" rx="55.1" ry="24.2"/><ellipse cx="1150" cy="446.6" fill="#1b1717" opacity=".962" rx="51.9" ry="22.8"/><ellipse cx="1150" cy="446.6" fill="#191818" rx="48.7" ry="21.4"/></g><g opacity=".17"><ellipse cx="1539.1" cy="506.7" fill="#4c0000" opacity="0" rx="131.4" ry="57.7"/><ellipse cx="1539.1" cy="506.7" fill="#4a0101" opacity=".038" rx="128.2" ry="56.3"/><ellipse cx="1539.1" cy="506.7" fill="#480202" opacity=".077" rx="125" ry="54.9"/><ellipse cx="1539.1" cy="506.7" fill="#460303" opacity=".115" rx="121.8" ry="53.5"/><ellipse cx="1539.1" cy="506.7" fill="#440404" opacity=".154" rx="118.7" ry="52.1"/><ellipse cx="1539.1" cy="506.7" fill="#420505" opacity=".192" rx="115.5" ry="50.7"/><ellipse cx="1539.1" cy="506.7" fill="#400606" opacity=".231" rx="112.3" ry="49.3"/><ellipse cx="1539.1" cy="506.7" fill="#3e0606" opacity=".269" rx="109.1" ry="47.9"/><ellipse cx="1539.1" cy="506.7" fill="#3c0707" opacity=".308" rx="105.9" ry="46.5"/><ellipse cx="1539.1" cy="506.7" fill="#3a0808" opacity=".346" rx="102.8" ry="45.1"/><ellipse cx="1539.1" cy="506.7" fill="#380909" opacity=".385" rx="99.6" ry="43.7"/><ellipse cx="1539.1" cy="506.7" fill="#360a0a" opacity=".423" rx="96.4" ry="42.3"/><ellipse cx="1539.1" cy="506.7" fill="#340b0b" opacity=".462" rx="93.2" ry="41"/><ellipse cx="1539.1" cy="506.7" fill="#330c0c" opacity=".5" rx="90" ry="39.6"/><ellipse cx="1539.1" cy="506.7" fill="#310d0d" opacity=".538" rx="86.9" ry="38.2"/><ellipse cx="1539.1" cy="506.7" fill="#2f0e0e" opacity=".577" rx="83.7" ry="36.8"/><ellipse cx="1539.1" cy="506.7" fill="#2d0f0f" opacity=".615" rx="80.5" ry="35.4"/><ellipse cx="1539.1" cy="506.7" fill="#2b1010" opacity=".654" rx="77.3" ry="34"/><ellipse cx="1539.1" cy="506.7" fill="#291111" opacity=".692" rx="74.1" ry="32.6"/><ellipse cx="1539.1" cy="506.7" fill="#271212" opacity=".731" rx="71" ry="31.2"/><ellipse cx="1539.1" cy="506.7" fill="#251212" opacity=".769" rx="67.8" ry="29.8"/><ellipse cx="1539.1" cy="506.7" fill="#231313" opacity=".808" rx="64.6" ry="28.4"/><ellipse cx="1539.1" cy="506.7" fill="#211414" opacity=".846" rx="61.4" ry="27"/><ellipse cx="1539.1" cy="506.7" fill="#1f1515" opacity=".885" rx="58.2" ry="25.6"/><ellipse cx="1539.1" cy="506.7" fill="#1d1616" opacity=".923" rx="55.1" ry="24.2"/><ellipse cx="1539.1" cy="506.7" fill="#1b1717" opacity=".962" rx="51.9" ry="22.8"/><ellipse cx="1539.1" cy="506.7" fill="#191818" rx="48.7" ry="21.4"/></g><g opacity=".17"><ellipse cx="2127.4" cy="673.5" fill="#4c0000" opacity="0" rx="131.4" ry="57.7"/><ellipse cx="2127.4" cy="673.5" fill="#4a0101" opacity=".038" rx="128.2" ry="56.3"/><ellipse cx="2127.4" cy="673.5" fill="#480202" opacity=".077" rx="125" ry="54.9"/><ellipse cx="2127.4" cy="673.5" fill="#460303" opacity=".115" rx="121.8" ry="53.5"/><ellipse cx="2127.4" cy="673.5" fill="#440404" opacity=".154" rx="118.7" ry="52.1"/><ellipse cx="2127.4" cy="673.5" fill="#420505" opacity=".192" rx="115.5" ry="50.7"/><ellipse cx="2127.4" cy="673.5" fill="#400606" opacity=".231" rx="112.3" ry="49.3"/><ellipse cx="2127.4" cy="673.5" fill="#3e0606" opacity=".269" rx="109.1" ry="47.9"/><ellipse cx="2127.4" cy="673.5" fill="#3c0707" opacity=".308" rx="105.9" ry="46.5"/><ellipse cx="2127.4" cy="673.5" fill="#3a0808" opacity=".346" rx="102.8" ry="45.1"/><ellipse cx="2127.4" cy="673.5" fill="#380909" opacity=".385" rx="99.6" ry="43.7"/><ellipse cx="2127.4" cy="673.5" fill="#360a0a" opacity=".423" rx="96.4" ry="42.3"/><ellipse cx="2127.4" cy="673.5" fill="#340b0b" opacity=".462" rx="93.2" ry="41"/><ellipse cx="2127.4" cy="673.5" fill="#330c0c" opacity=".5" rx="90" ry="39.6"/><ellipse cx="2127.4" cy="673.5" fill="#310d0d" opacity=".538" rx="86.9" ry="38.2"/><ellipse cx="2127.4" cy="673.5" fill="#2f0e0e" opacity=".577" rx="83.7" ry="36.8"/><ellipse cx="2127.4" cy="673.5" fill="#2d0f0f" opacity=".615" rx="80.5" ry="35.4"/><ellipse cx="2127.4" cy="673.5" fill="#2b1010" opacity=".654" rx="77.3" ry="34"/><ellipse cx="2127.4" cy="673.5" fill="#291111" opacity=".692" rx="74.1" ry="32.6"/><ellipse cx="2127.4" cy="673.5" fill="#271212" opacity=".731" rx="71" ry="31.2"/><ellipse cx="2127.4" cy="673.5" fill="#251212" opacity=".769" rx="67.8" ry="29.8"/><ellipse cx="2127.4" cy="673.5" fill="#231313" opacity=".808" rx="64.6" ry="28.4"/><ellipse cx="2127.4" cy="673.5" fill="#211414" opacity=".846" rx="61.4" ry="27"/><ellipse cx="2127.4" cy="673.5" fill="#1f1515" opacity=".885" rx="58.2" ry="25.6"/><ellipse cx="2127.4" cy="673.5" fill="#1d1616" opacity=".923" rx="55.1" ry="24.2"/><ellipse cx="2127.4" cy="673.5" fill="#1b1717" opacity=".962" rx="51.9" ry="22.8"/><ellipse cx="2127.4" cy="673.5" fill="#191818" rx="48.7" ry="21.4"/></g><g opacity=".17"><ellipse cx="1781" cy="843.6" fill="#4c0000" opacity="0" rx="131.4" ry="57.7"/><ellipse cx="1781" cy="843.6" fill="#4a0101" opacity=".038" rx="128.2" ry="56.3"/><ellipse cx="1781" cy="843.6" fill="#480202" opacity=".077" rx="125" ry="54.9"/><ellipse cx="1781" cy="843.6" fill="#460303" opacity=".115" rx="121.8" ry="53.5"/><ellipse cx="1781" cy="843.6" fill="#440404" opacity=".154" rx="118.7" ry="52.1"/><ellipse cx="1781" cy="843.6" fill="#420505" opacity=".192" rx="115.5" ry="50.7"/><ellipse cx="1781" cy="843.6" fill="#400606" opacity=".231" rx="112.3" ry="49.3"/><ellipse cx="1781" cy="843.6" fill="#3e0606" opacity=".269" rx="109.1" ry="47.9"/><ellipse cx="1781" cy="843.6" fill="#3c0707" opacity=".308" rx="105.9" ry="46.5"/><ellipse cx="1781" cy="843.6" fill="#3a0808" opacity=".346" rx="102.8" ry="45.1"/><ellipse cx="1781" cy="843.6" fill="#380909" opacity=".385" rx="99.6" ry="43.7"/><ellipse cx="1781" cy="843.6" fill="#360a0a" opacity=".423" rx="96.4" ry="42.3"/><ellipse cx="1781" cy="843.6" fill="#340b0b" opacity=".462" rx="93.2" ry="41"/><ellipse cx="1781" cy="843.6" fill="#330c0c" opacity=".5" rx="90" ry="39.6"/><ellipse cx="1781" cy="843.6" fill="#310d0d" opacity=".538" rx="86.9" ry="38.2"/><ellipse cx="1781" cy="843.6" fill="#2f0e0e" opacity=".577" rx="83.7" ry="36.8"/><ellipse cx="1781" cy="843.6" fill="#2d0f0f" opacity=".615" rx="80.5" ry="35.4"/><ellipse cx="1781" cy="843.6" fill="#2b1010" opacity=".654" rx="77.3" ry="34"/><ellipse cx="1781" cy="843.6" fill="#291111" opacity=".692" rx="74.1" ry="32.6"/><ellipse cx="1781" cy="843.6" fill="#271212" opacity=".731" rx="71" ry="31.2"/><ellipse cx="1781" cy="843.6" fill="#251212" opacity=".769" rx="67.8" ry="29.8"/><ellipse cx="1781" cy="843.6" fill="#231313" opacity=".808" rx="64.6" ry="28.4"/><ellipse cx="1781" cy="843.6" fill="#211414" opacity=".846" rx="61.4" ry="27"/><ellipse cx="1781" cy="843.6" fill="#1f1515" opacity=".885" rx="58.2" ry="25.6"/><ellipse cx="1781" cy="843.6" fill="#1d1616" opacity=".923" rx="55.1" ry="24.2"/><ellipse cx="1781" cy="843.6" fill="#1b1717" opacity=".962" rx="51.9" ry="22.8"/><ellipse cx="1781" cy="843.6" fill="#191818" rx="48.7" ry="21.4"/></g><g opacity=".17"><ellipse cx="1930.2" cy="1152.8" fill="#4c0000" opacity="0" rx="152.5" ry="67"/><ellipse cx="1930.2" cy="1152.8" fill="#4a0101" opacity=".038" rx="148.8" ry="65.4"/><ellipse cx="1930.2" cy="1152.8" fill="#480202" opacity=".077" rx="145.1" ry="63.8"/><ellipse cx="1930.2" cy="1152.8" fill="#460303" opacity=".115" rx="141.4" ry="62.1"/><ellipse cx="1930.2" cy="1152.8" fill="#440404" opacity=".154" rx="137.8" ry="60.5"/><ellipse cx="1930.2" cy="1152.8" fill="#420505" opacity=".192" rx="134.1" ry="58.9"/><ellipse cx="1930.2" cy="1152.8" fill="#400606" opacity=".231" rx="130.4" ry="57.3"/><ellipse cx="1930.2" cy="1152.8" fill="#3e0606" opacity=".269" rx="126.7" ry="55.6"/><ellipse cx="1930.2" cy="1152.8" fill="#3c0707" opacity=".308" rx="123" ry="54"/><ellipse cx="1930.2" cy="1152.8" fill="#3a0808" opacity=".346" rx="119.3" ry="52.4"/><ellipse cx="1930.2" cy="1152.8" fill="#380909" opacity=".385" rx="115.6" ry="50.8"/><ellipse cx="1930.2" cy="1152.8" fill="#360a0a" opacity=".423" rx="111.9" ry="49.2"/><ellipse cx="1930.2" cy="1152.8" fill="#340b0b" opacity=".462" rx="108.2" ry="47.5"/><ellipse cx="1930.2" cy="1152.8" fill="#330c0c" opacity=".5" rx="104.5" ry="45.9"/><ellipse cx="1930.2" cy="1152.8" fill="#310d0d" opacity=".538" rx="100.8" ry="44.3"/><ellipse cx="1930.2" cy="1152.8" fill="#2f0e0e" opacity=".577" rx="97.2" ry="42.7"/><ellipse cx="1930.2" cy="1152.8" fill="#2d0f0f" opacity=".615" rx="93.5" ry="41.1"/><ellipse cx="1930.2" cy="1152.8" fill="#2b1010" opacity=".654" rx="89.8" ry="39.4"/><ellipse cx="1930.2" cy="1152.8" fill="#291111" opacity=".692" rx="86.1" ry="37.8"/><ellipse cx="1930.2" cy="1152.8" fill="#271212" opacity=".731" rx="82.4" ry="36.2"/><ellipse cx="1930.2" cy="1152.8" fill="#251212" opacity=".769" rx="78.7" ry="34.6"/><ellipse cx="1930.2" cy="1152.8" fill="#231313" opacity=".808" rx="75" ry="32.9"/><ellipse cx="1930.2" cy="1152.8" fill="#211414" opacity=".846" rx="71.3" ry="31.3"/><ellipse cx="1930.2" cy="1152.8" fill="#1f1515" opacity=".885" rx="67.6" ry="29.7"/><ellipse cx="1930.2" cy="1152.8" fill="#1d1616" opacity=".923" rx="63.9" ry="28.1"/><ellipse cx="1930.2" cy="1152.8" fill="#1b1717" opacity=".962" rx="60.2" ry="26.5"/><ellipse cx="1930.2" cy="1152.8" fill="#191818" rx="56.5" ry="24.8"/></g><polyline fill="none" stroke="#afaaaa" stroke-dasharray="11.909 7.939" stroke-miterlimit="10" stroke-width="3.008" points="1759.6 1359.1 1754.3 754 2422.3 802 2252.1 1174.8 2140.5 551.3 1780.1 1418 1269.6 1093.9 1699.1 770.9 1330.2 748.8 1536.9 387.1 1588.9 1073.9 1325.3 1534.2 900.8 1359.1 1210.4 1114.1 2316.6 1127.2 1170 377.9 1588.7 374.7 2093.7 555.4 1786.6 717.9"/><polyline fill="none" stroke="#afaaaa" stroke-dasharray="11.909 7.939" stroke-miterlimit="10" stroke-width="3.008" points="1218.9 1038.5 795.7 573.8 1300.6 747.2 1096 358.8 886.4 883 878.8 1322.1 520.2 1106.1 872.3 912.1 1210.4 1088 588.7 1122.9"/><path fill="none" stroke="#afaaaa" stroke-dasharray="11.909 7.939" stroke-miterlimit="10" stroke-width="3.008" d="M935.4,863.7c8.5-0.1,403-128.7,403-128.7l-68.7,358.9"/><line x1="1246.2" x2="1322.3" y1="1082.7" y2="1554.9" fill="none" stroke="#afaaaa" stroke-dasharray="11.909 7.939" stroke-miterlimit="10" stroke-width="3.008"/><linearGradient id="g" x1="728.328" x2="899.92" y1="587.665" y2="587.665" gradientUnits="userSpaceOnUse"><stop offset="0" stop-color="#3abaf9"/><stop offset="1" stop-color="#267ebd"/></linearGradient><path fill="url(#g)" d="M899.9,587.7c0,21.6-7.9,41.2-21.1,56.3c-15.7,18.1-38.9,29.5-64.7,29.5c-20.9,0-40.1-7.5-55-19.9
					c-18.9-15.7-30.8-39.4-30.8-65.9c0-47.4,38.4-85.8,85.8-85.8C861.5,501.9,899.9,540.3,899.9,587.7z"/><linearGradient id="h" x1="759.144" x2="878.844" y1="638.851" y2="638.851" gradientUnits="userSpaceOnUse"><stop offset="0" stop-color="#fafafa"/><stop offset="1" stop-color="#eaeaea"/></linearGradient><path fill="url(#h)" d="M878.8,644c-15.7,18.1-38.9,29.5-64.7,29.5c-20.9,0-40.1-7.5-55-19.9c0,0,2.9-29.5,14.5-37.8
					c11.6-8.3,49.9-13.7,64.7-10.6c14.8,3.1,25.1,7.1,31.2,17.9C873,629.3,876.6,637.9,878.8,644z"/><linearGradient id="i" x1="805.598" x2="821.296" y1="596.164" y2="598.836" gradientUnits="userSpaceOnUse"><stop offset="0" stop-color="#ffd4ae"/><stop offset="1" stop-color="#e5a26a"/></linearGradient><path fill="url(#i)" d="M830.9,586.6l-0.7,22c0,0-6.9,5-16.2,2.8c-9.3-2.2-10.2-4.6-10.2-4.6l1.7-10.5L830.9,586.6z"/><linearGradient id="j" x1="1662.616" x2="1708.76" y1="-317.265" y2="-317.265" gradientTransform="matrix(.9862 .1614 -.1614 .9877 -900.259 619.018)" gradientUnits="userSpaceOnUse"><stop offset="0" stop-color="#ffd4ae"/><stop offset="1" stop-color="#e5a26a"/></linearGradient><path fill="url(#j)" d="M794.1,557.5c0,0-2.9,7.3-1.7,10.7s3.3,5.6,3.3,5.6s-4.1,2.7-3.7,7.2c0.5,4.5,2.4,20,4.4,21.8
					s16.8,3.1,18.6,1.5c1.7-1.6,16.7-17.8,20.5-25.4s4.2-16.8-5-25C821.3,545.5,794.1,557.5,794.1,557.5z"/><linearGradient id="k" x1="1655.672" x2="1716.749" y1="-337.364" y2="-337.364" gradientTransform="matrix(.9862 .1614 -.1614 .9877 -900.259 619.018)" gradientUnits="userSpaceOnUse"><stop offset="0" stop-color="#161616"/><stop offset="1" stop-color="#444"/></linearGradient><path fill="url(#k)" d="M788,548.5c-0.4,6.1,0.4,13.1,12.9,16.6c12.5,3.5,17.8,0.2,17.8,0.2s-1,6.6,2.5,9.9c3.5,3.3-0.6,6,1.7,8.7
					c2.3,2.7,3.1-11.3,6.2-8.5s1.7,11.2,1.7,11.2s10.2-3.2,14.7-15.3c4.5-12.1-4.1-21.8-4.1-21.8s6.3-5.7-8.7-14.5
					c-15-8.8-31,13.5-37.9,7.9C787.9,537.5,788,548.5,788,548.5z"/><linearGradient id="l" x1="-9706.313" x2="-9528.177" y1="348.774" y2="348.774" gradientTransform="matrix(-1 0 0 1 -8489.231 0)" gradientUnits="userSpaceOnUse"><stop offset="0" stop-color="#ffd600"/><stop offset="1" stop-color="#ffb000"/></linearGradient><path fill="url(#l)" d="M1038.9,348.8c0,22.4,8.2,42.8,21.9,58.4c16.3,18.7,40.4,30.6,67.2,30.6c21.7,0,41.6-7.8,57.1-20.7
					c19.6-16.3,32-40.9,32-68.4c0-49.2-39.9-89.1-89.1-89.1C1078.8,259.7,1038.9,299.6,1038.9,348.8z"/><linearGradient id="m" x1="-9674.321" x2="-9550.057" y1="401.913" y2="401.913" gradientTransform="matrix(-1 0 0 1 -8489.231 0)" gradientUnits="userSpaceOnUse"><stop offset="0" stop-color="#3abaf9"/><stop offset="1" stop-color="#267ebd"/></linearGradient><path fill="url(#m)" d="M1060.8,407.2c16.3,18.7,40.4,30.6,67.2,30.6c21.7,0,41.6-7.8,57.1-20.7c0,0-3-30.6-15.1-39.2
					c-12.1-8.6-51.8-14.3-67.1-11c-15.3,3.2-26.1,7.3-32.4,18.6C1066.9,392,1063.2,401,1060.8,407.2z"/><linearGradient id="n" x1="-9626.096" x2="-9609.799" y1="357.598" y2="360.372" gradientTransform="matrix(-1 0 0 1 -8489.231 0)" gradientUnits="userSpaceOnUse"><stop offset="0" stop-color="#ffd4ae"/><stop offset="1" stop-color="#e5a26a"/></linearGradient><path fill="url(#n)" d="M1110.6,347.7l0.7,22.9c0,0,7.2,5.2,16.9,2.9c9.7-2.2,10.6-4.8,10.6-4.8l-1.8-11L1110.6,347.7z"/><linearGradient id="o" x1="-8678.288" x2="-8630.385" y1="1130.445" y2="1130.445" gradientTransform="matrix(-.9862 .1614 .1614 .9877 -7588.973 619.018)" gradientUnits="userSpaceOnUse"><stop offset="0" stop-color="#ffd4ae"/><stop offset="1" stop-color="#e5a26a"/></linearGradient><path fill="url(#o)" d="M1148.8,317.4c0,0,3,7.6,1.8,11.1s-3.4,5.8-3.4,5.8s4.3,2.8,3.8,7.5s-2.5,20.8-4.6,22.6
					c-2.1,1.9-17.5,3.2-19.3,1.5c-1.8-1.7-17.4-18.5-21.3-26.4c-3.9-7.9-4.4-17.4,5.1-26C1120.5,305,1148.8,317.4,1148.8,317.4z"/><linearGradient id="p" x1="1095.957" x2="1156.299" y1="321.852" y2="321.852" gradientUnits="userSpaceOnUse"><stop offset="0" stop-color="#161616"/><stop offset="1" stop-color="#444"/></linearGradient><path fill="url(#p)" d="M1122.2,325.1c0,0,9.2,5.5,21,5.9c11.8,0.4,12.8-3,12.8-3s1.2-4.6-1.3-12.6c-2.5-8-19.6-17.3-29.3-21.4
					s-18.8,3-23.3,8.6c-4.4,5.6-3.4,7.9-3.4,7.9s-4.4,11.1-2.1,20.5c2.4,9.4,10.6,19.2,14,16.7c3.4-2.5,0.9-13.3,3.7-11.7
					c2.8,1.6,0.9,13.9,4.9,14.8c4,0.9-1-14.5,2.5-16.2S1122.2,325.1,1122.2,325.1z"/><linearGradient id="q" x1="1957.1" x2="2135.235" y1="803.133" y2="803.133" gradientTransform="translate(386.752)" gradientUnits="userSpaceOnUse"><stop offset="0" stop-color="#3abaf9"/><stop offset="1" stop-color="#267ebd"/></linearGradient><path fill="url(#q)" d="M2522,803.1c0,22.4-8.2,42.8-21.9,58.4c-16.3,18.7-40.4,30.6-67.2,30.6c-21.7,0-41.6-7.8-57.1-20.7
					c-19.6-16.3-32-40.9-32-68.4c0-49.2,39.9-89.1,89.1-89.1C2482.1,714.1,2522,753.9,2522,803.1z"/><linearGradient id="r" x1="1989.091" x2="2113.355" y1="856.271" y2="856.271" gradientTransform="translate(386.752)" gradientUnits="userSpaceOnUse"><stop offset="0" stop-color="#161616"/><stop offset="1" stop-color="#444"/></linearGradient><path fill="url(#r)" d="M2500.1,861.6c-16.3,18.7-40.4,30.6-67.2,30.6c-21.7,0-41.6-7.8-57.1-20.7c0,0,3-30.6,15.1-39.2
					c12.1-8.6,51.8-14.3,67.1-11c15.3,3.2,26.1,7.3,32.4,18.6C2494.1,846.4,2497.7,855.3,2500.1,861.6z"/><linearGradient id="s" x1="2037.317" x2="2053.613" y1="811.956" y2="814.73" gradientTransform="translate(386.752)" gradientUnits="userSpaceOnUse"><stop offset="0" stop-color="#ffd4ae"/><stop offset="1" stop-color="#e5a26a"/></linearGradient><path fill="url(#s)" d="M2450.4,802l-0.7,22.9c0,0-7.2,5.2-16.9,2.9c-9.7-2.2-10.6-4.8-10.6-4.8l1.8-11L2450.4,802z"/><linearGradient id="t" x1="2913.106" x2="2961.009" y1="-304.019" y2="-304.019" gradientTransform="matrix(.9862 .1614 -.1614 .9877 -513.507 619.018)" gradientUnits="userSpaceOnUse"><stop offset="0" stop-color="#ffd4ae"/><stop offset="1" stop-color="#e5a26a"/></linearGradient><path fill="url(#t)" d="M2412.2,771.8c0,0-3,7.6-1.8,11.1c1.2,3.5,3.4,5.8,3.4,5.8s-4.3,2.8-3.8,7.5c0.5,4.7,2.5,20.8,4.6,22.6
					s17.5,3.2,19.3,1.5c1.8-1.7,17.4-18.5,21.3-26.4c3.9-7.9,4.4-17.4-5.1-26C2440.4,759.4,2412.2,771.8,2412.2,771.8z"/><linearGradient id="u" x1="-10567.455" x2="-10507.113" y1="776.21" y2="776.21" gradientTransform="matrix(-1 0 0 1 -8102.479 0)" gradientUnits="userSpaceOnUse"><stop offset="0" stop-color="#161616"/><stop offset="1" stop-color="#444"/></linearGradient><path fill="url(#u)" d="M2438.7,779.5c0,0-9.2,5.5-21,5.9c-11.8,0.4-12.8-3-12.8-3s-1.2-4.6,1.3-12.6c2.5-8,19.6-17.3,29.3-21.4
					c9.7-4.1,18.8,3,23.3,8.6c4.4,5.6,3.4,7.9,3.4,7.9s4.4,11.1,2.1,20.5c-2.4,9.4-10.6,19.2-14,16.7s-0.9-13.3-3.7-11.7
					s-0.9,13.9-4.9,14.8c-4,0.9,1-14.5-2.5-16.2C2435.6,787.2,2438.7,779.5,2438.7,779.5z"/><linearGradient id="v" x1="-9144.037" x2="-8965.901" y1="1126.176" y2="1126.176" gradientTransform="matrix(-1 0 0 1 -8489.231 0)" gradientUnits="userSpaceOnUse"><stop offset="0" stop-color="#ffd600"/><stop offset="1" stop-color="#ffb000"/></linearGradient><path fill="url(#v)" d="M476.7,1126.2c0,22.4,8.2,42.8,21.9,58.4c16.3,18.7,40.4,30.6,67.2,30.6c21.7,0,41.6-7.8,57.1-20.7
					c19.6-16.3,32-40.9,32-68.4c0-49.2-39.9-89.1-89.1-89.1C516.5,1037.1,476.7,1077,476.7,1126.2z"/><linearGradient id="w" x1="-9112.046" x2="-8987.782" y1="1179.315" y2="1179.315" gradientTransform="matrix(-1 0 0 1 -8489.231 0)" gradientUnits="userSpaceOnUse"><stop offset="0" stop-color="#82fb7c"/><stop offset="1" stop-color="#0ba2b3"/></linearGradient><path fill="url(#w)" d="M498.6,1184.6c16.3,18.7,40.4,30.6,67.2,30.6c21.7,0,41.6-7.8,57.1-20.7c0,0-3-30.6-15.1-39.2
					c-12.1-8.6-51.8-14.3-67.1-11c-15.3,3.2-26.1,7.3-32.4,18.6C504.6,1169.4,500.9,1178.4,498.6,1184.6z"/><linearGradient id="x" x1="-9063.82" x2="-9047.523" y1="1134.999" y2="1137.773" gradientTransform="matrix(-1 0 0 1 -8489.231 0)" gradientUnits="userSpaceOnUse"><stop offset="0" stop-color="#ffd4ae"/><stop offset="1" stop-color="#e5a26a"/></linearGradient><path fill="url(#x)" d="M548.3,1125.1l0.7,22.9c0,0,7.2,5.2,16.9,2.9c9.7-2.2,10.6-4.8,10.6-4.8l-1.8-11L548.3,1125.1z"/><linearGradient id="y" x1="-7997.592" x2="-7949.688" y1="1806.269" y2="1806.269" gradientTransform="matrix(-.9862 .1614 .1614 .9877 -7588.973 619.018)" gradientUnits="userSpaceOnUse"><stop offset="0" stop-color="#ffd4ae"/><stop offset="1" stop-color="#e5a26a"/></linearGradient><path fill="url(#y)" d="M586.5,1094.8c0,0,3,7.6,1.8,11.1c-1.2,3.5-3.4,5.8-3.4,5.8s4.3,2.8,3.8,7.5c-0.5,4.7-2.5,20.8-4.6,22.6
					s-17.5,3.2-19.3,1.5c-1.8-1.7-17.4-18.5-21.3-26.4s-4.4-17.4,5.1-26C558.2,1082.4,586.5,1094.8,586.5,1094.8z"/><linearGradient id="z" x1="520.166" x2="599.935" y1="1112.298" y2="1112.298" gradientUnits="userSpaceOnUse"><stop offset="0" stop-color="#161616"/><stop offset="1" stop-color="#444"/></linearGradient><path fill="url(#z)" d="M586.5,1094.8c0,0-7.3,17.3-18.9,19.3c-11.6,2-5.1,15.5-14.6,15.9c-9.5,0.4,2.8,14.2-5.5,16.8
					c-8.3,2.6-26.5,3.8-26.5,3.8s-5-20.1,10.7-27.9c15.6-7.8-5.3-35.4,13.2-44.6c18.5-9.1,43.1-3.5,52.4,15
					c9.3,18.5-8.5,29.7-8.5,29.7s0.7-6.6-1.5-8.9c-2.3-2.3-2.3-2.3-2.3-2.3S589.2,1096.9,586.5,1094.8z"/><g><linearGradient id="A" x1="1502.515" x2="1680.651" y1="765.961" y2="765.961" gradientTransform="translate(164.58)" gradientUnits="userSpaceOnUse"><stop offset="0" stop-color="#82fb7c"/><stop offset="1" stop-color="#0ba2b3"/></linearGradient><path fill="url(#A)" d="M1845.2,766c0,22.4-8.2,42.8-21.9,58.4c-16.3,18.7-40.4,30.6-67.2,30.6c-21.7,0-41.6-7.8-57.1-20.7
					c-19.6-16.3-32-40.9-32-68.4c0-49.2,39.9-89.1,89.1-89.1C1805.4,676.9,1845.2,716.8,1845.2,766z"/><linearGradient id="B" x1="1534.507" x2="1658.77" y1="819.099" y2="819.099" gradientTransform="translate(164.58)" gradientUnits="userSpaceOnUse"><stop offset="0" stop-color="#3abaf9"/><stop offset="1" stop-color="#267ebd"/></linearGradient><path fill="url(#B)" d="M1823.3,824.4c-16.3,18.7-40.4,30.6-67.2,30.6c-21.7,0-41.6-7.8-57.1-20.7c0,0,3-30.6,15.1-39.2
					c12.1-8.6,51.8-14.3,67.1-11c15.3,3.2,26.1,7.3,32.4,18.6C1817.3,809.2,1821,818.1,1823.3,824.4z"/><linearGradient id="C" x1="1582.732" x2="1599.029" y1="774.784" y2="777.558" gradientTransform="translate(164.58)" gradientUnits="userSpaceOnUse"><stop offset="0" stop-color="#ffd4ae"/><stop offset="1" stop-color="#e5a26a"/></linearGradient><path fill="url(#C)" d="M1773.6,764.9l-0.7,22.9c0,0-7.2,5.2-16.9,2.9c-9.7-2.2-10.6-4.8-10.6-4.8l1.8-11L1773.6,764.9z"/><linearGradient id="D" x1="2458.188" x2="2506.092" y1="-267.303" y2="-267.303" gradientTransform="matrix(.9862 .1614 -.1614 .9877 -735.68 619.018)" gradientUnits="userSpaceOnUse"><stop offset="0" stop-color="#ffd4ae"/><stop offset="1" stop-color="#e5a26a"/></linearGradient><path fill="url(#D)" d="M1735.4,734.6c0,0-3,7.6-1.8,11.1c1.2,3.5,3.4,5.8,3.4,5.8s-4.3,2.8-3.8,7.5c0.5,4.7,2.5,20.8,4.6,22.6
					c2.1,1.9,17.5,3.2,19.3,1.5c1.8-1.7,17.4-18.5,21.3-26.4s4.4-17.4-5.1-26C1763.7,722.2,1735.4,734.6,1735.4,734.6z"/><linearGradient id="E" x1="-10126.387" x2="-10046.617" y1="752.083" y2="752.083" gradientTransform="matrix(-1 0 0 1 -8324.652 0)" gradientUnits="userSpaceOnUse"><stop offset="0" stop-color="#161616"/><stop offset="1" stop-color="#444"/></linearGradient><path fill="url(#E)" d="M1735.4,734.6c0,0,7.3,17.3,18.9,19.3c11.6,2,5.1,15.5,14.6,15.9c9.5,0.4-2.8,14.2,5.5,16.8
					c8.3,2.6,26.5,3.8,26.5,3.8s5-20.1-10.7-27.9s5.3-35.4-13.2-44.6c-18.5-9.1-43.1-3.5-52.4,15c-9.3,18.5,8.5,29.7,8.5,29.7
					s-0.7-6.6,1.5-8.9c2.3-2.3,2.3-2.3,2.3-2.3S1732.7,736.6,1735.4,734.6z"/></g><g><linearGradient id="F" x1="1508.203" x2="1686.338" y1="1397.337" y2="1397.337" gradientTransform="translate(164.58)" gradientUnits="userSpaceOnUse"><stop offset="0" stop-color="#82fb7c"/><stop offset="1" stop-color="#0ba2b3"/></linearGradient><path fill="url(#F)" d="M1850.9,1397.3c0,22.4-8.2,42.8-21.9,58.4c-16.3,18.7-40.4,30.6-67.2,30.6c-21.7,0-41.6-7.8-57.1-20.7
					c-19.6-16.3-32-40.9-32-68.4c0-49.2,39.9-89.1,89.1-89.1C1811,1308.3,1850.9,1348.1,1850.9,1397.3z"/><linearGradient id="G" x1="1540.194" x2="1664.458" y1="1450.475" y2="1450.475" gradientTransform="translate(164.58)" gradientUnits="userSpaceOnUse"><stop offset="0" stop-color="#3abaf9"/><stop offset="1" stop-color="#267ebd"/></linearGradient><path fill="url(#G)" d="M1829,1455.8c-16.3,18.7-40.4,30.6-67.2,30.6c-21.7,0-41.6-7.8-57.1-20.7c0,0,3-30.6,15.1-39.2
					c12.1-8.6,51.8-14.3,67.1-11c15.3,3.2,26.1,7.3,32.4,18.6C1823,1440.6,1826.7,1449.5,1829,1455.8z"/><linearGradient id="H" x1="1588.42" x2="1604.716" y1="1406.16" y2="1408.934" gradientTransform="translate(164.58)" gradientUnits="userSpaceOnUse"><stop offset="0" stop-color="#ffd4ae"/><stop offset="1" stop-color="#e5a26a"/></linearGradient><path fill="url(#H)" d="M1779.3,1396.2l-0.7,22.9c0,0-7.2,5.2-16.9,2.9c-9.7-2.2-10.6-4.8-10.6-4.8l1.8-11L1779.3,1396.2z"/><linearGradient id="I" x1="2565.671" x2="2613.575" y1="354.363" y2="354.363" gradientTransform="matrix(.9862 .1614 -.1614 .9877 -735.68 619.018)" gradientUnits="userSpaceOnUse"><stop offset="0" stop-color="#ffd4ae"/><stop offset="1" stop-color="#e5a26a"/></linearGradient><path fill="url(#I)" d="M1741.1,1366c0,0-3,7.6-1.8,11.1c1.2,3.5,3.4,5.8,3.4,5.8s-4.3,2.8-3.8,7.5c0.5,4.7,2.5,20.8,4.6,22.6
					c2.1,1.9,17.5,3.2,19.3,1.5c1.8-1.7,17.4-18.5,21.3-26.4s4.4-17.4-5.1-26C1769.3,1353.6,1741.1,1366,1741.1,1366z"/><linearGradient id="J" x1="-10132.074" x2="-10052.305" y1="1383.459" y2="1383.459" gradientTransform="matrix(-1 0 0 1 -8324.652 0)" gradientUnits="userSpaceOnUse"><stop offset="0" stop-color="#161616"/><stop offset="1" stop-color="#444"/></linearGradient><path fill="url(#J)" d="M1741.1,1366c0,0,7.3,17.3,18.9,19.3c11.6,2,5.1,15.5,14.6,15.9c9.5,0.4-2.8,14.2,5.5,16.8
					c8.3,2.6,26.5,3.8,26.5,3.8s5-20.1-10.7-27.9s5.3-35.4-13.2-44.6c-18.5-9.1-43.1-3.5-52.4,15c-9.3,18.5,8.5,29.7,8.5,29.7
					s-0.7-6.6,1.5-8.9c2.3-2.3,2.3-2.3,2.3-2.3S1738.4,1368,1741.1,1366z"/></g><g><linearGradient id="K" x1="-9457.063" x2="-9276.28" y1="873.931" y2="873.931" gradientTransform="matrix(-1 0 0 1 -8489.231 0)" gradientUnits="userSpaceOnUse"><stop offset="0" stop-color="#82fb7c"/><stop offset="1" stop-color="#0ba2b3"/></linearGradient><path fill="url(#K)" d="M787,873.9c0,22.7,8.4,43.4,22.2,59.3c16.5,19,41,31.1,68.2,31.1c22,0,42.3-7.9,57.9-21
					c19.9-16.6,32.5-41.5,32.5-69.4c0-49.9-40.5-90.4-90.4-90.4C827.5,783.5,787,824,787,873.9z"/><linearGradient id="L" x1="-9424.596" x2="-9298.486" y1="927.859" y2="927.859" gradientTransform="matrix(-1 0 0 1 -8489.231 0)" gradientUnits="userSpaceOnUse"><stop offset="0" stop-color="#161616"/><stop offset="1" stop-color="#444"/></linearGradient><path fill="url(#L)" d="M809.3,933.2c16.5,19,41,31.1,68.2,31.1c22,0,42.3-7.9,57.9-21c0,0-3.1-31-15.3-39.8
					c-12.3-8.8-52.6-14.5-68.1-11.2c-15.6,3.3-26.5,7.5-32.8,18.8C815.4,917.8,811.7,926.9,809.3,933.2z"/><linearGradient id="M" x1="-9375.654" x2="-9359.115" y1="882.885" y2="885.7" gradientTransform="matrix(-1 0 0 1 -8489.231 0)" gradientUnits="userSpaceOnUse"><stop offset="0" stop-color="#ffd4ae"/><stop offset="1" stop-color="#e5a26a"/></linearGradient><path fill="url(#M)" d="M859.7,872.8l0.7,23.2c0,0,7.3,5.2,17.1,3s10.7-4.9,10.7-4.9l-1.8-11.1L859.7,872.8z"/><linearGradient id="N" x1="-8346.499" x2="-8297.883" y1="1607.697" y2="1607.697" gradientTransform="matrix(-.9862 .1614 .1614 .9877 -7588.973 619.018)" gradientUnits="userSpaceOnUse"><stop offset="0" stop-color="#ffd4ae"/><stop offset="1" stop-color="#e5a26a"/></linearGradient><path fill="url(#N)" d="M898.5,842.1c0,0,3,7.7,1.8,11.2c-1.2,3.5-3.5,5.9-3.5,5.9s4.4,2.8,3.9,7.6c-0.5,4.7-2.5,21.1-4.6,23
					c-2.1,1.9-17.7,3.3-19.6,1.6c-1.8-1.7-17.6-18.8-21.6-26.8c-4-8-4.4-17.7,5.2-26.4C869.8,829.5,898.5,842.1,898.5,842.1z"/><linearGradient id="O" x1="839.833" x2="908.983" y1="843.476" y2="843.476" gradientUnits="userSpaceOnUse"><stop offset="0" stop-color="#161616"/><stop offset="1" stop-color="#444"/></linearGradient><path fill="url(#O)" d="M872.3,852.4c0,0-0.7,3.1,4.2,3.8c4.9,0.7,6.7-1.9,6.7-1.9s-3.6,3.1,5,4.1c8.6,0.9,9-3,9-3
					s-1.3,2.1,4.6,1.5c5.8-0.5,8.7-4.6,6.2-8.8c-2.5-4.1-2.7-5.1-2.7-5.1s0.4-7.5-6.2-12.8c-6.6-5.3-8.5-3.6-8.5-3.6
					s-5.4-8.1-12.3-11.6s-8.4,2.2-8.4,2.2s-9.1-2.2-14.4,0.9c-5.3,3.1-3.3,7.7-3.3,7.7s-5.8,6.2-7.3,10.3c-1.5,4.1,0,5.5,0,5.5
					s-6.6,4.6-4.8,9.1c1.8,4.6,5.5,5.1,5.5,5.1s-4.9,2.4-0.7,7.7s8.2,3.6,8.2,3.6s-2,7,2.9,5.5s5.1-13.6,8.4-11.2s0,9.5,3.7,8.9
					c3.7-0.5-1.3-7.5,1.1-11.1S872.3,852.4,872.3,852.4z"/></g><g><linearGradient id="P" x1="-9490.536" x2="-9289.441" y1="1383.71" y2="1383.71" gradientTransform="matrix(-1 0 0 1 -8489.231 0)" gradientUnits="userSpaceOnUse"><stop offset="0" stop-color="#3abaf9"/><stop offset="1" stop-color="#267ebd"/></linearGradient><path fill="url(#P)" d="M800.2,1383.7c0,25.3,9.3,48.3,24.7,66c18.4,21.2,45.6,34.6,75.8,34.6c24.5,0,47-8.8,64.4-23.4
					c22.1-18.4,36.1-46.2,36.1-77.2c0-55.5-45-100.5-100.5-100.5C845.2,1283.2,800.2,1328.2,800.2,1383.7z"/><linearGradient id="Q" x1="-9454.422" x2="-9314.143" y1="1443.697" y2="1443.697" gradientTransform="matrix(-1 0 0 1 -8489.231 0)" gradientUnits="userSpaceOnUse"><stop offset="0" stop-color="#fafafa"/><stop offset="1" stop-color="#eaeaea"/></linearGradient><path fill="url(#Q)" d="M824.9,1449.7c18.4,21.2,45.6,34.6,75.8,34.6c24.5,0,47-8.8,64.4-23.4c0,0-3.4-34.5-17-44.3
					c-13.7-9.7-58.5-16.1-75.8-12.4c-17.3,3.7-29.5,8.3-36.5,21C831.7,1432.5,827.6,1442.6,824.9,1449.7z"/><linearGradient id="R" x1="-9399.98" x2="-9381.584" y1="1393.67" y2="1396.802" gradientTransform="matrix(-1 0 0 1 -8489.231 0)" gradientUnits="userSpaceOnUse"><stop offset="0" stop-color="#ffd4ae"/><stop offset="1" stop-color="#e5a26a"/></linearGradient><path fill="url(#R)" d="M881,1382.5l0.8,25.8c0,0,8.1,5.8,19,3.3c10.9-2.5,11.9-5.4,11.9-5.4l-2-12.4L881,1382.5z"/><linearGradient id="S" x1="-8290.278" x2="-8236.2" y1="2112.999" y2="2112.999" gradientTransform="matrix(-.9862 .1614 .1614 .9877 -7588.973 619.018)" gradientUnits="userSpaceOnUse"><stop offset="0" stop-color="#ffd4ae"/><stop offset="1" stop-color="#e5a26a"/></linearGradient><path fill="url(#S)" d="M924.2,1348.3c0,0,3.4,8.6,2,12.5c-1.3,3.9-3.9,6.6-3.9,6.6s4.8,3.2,4.3,8.4c-0.6,5.3-2.8,23.4-5.1,25.5
					c-2.4,2.1-19.7,3.6-21.8,1.7c-2-1.9-19.6-20.9-24-29.8c-4.4-8.9-4.9-19.7,5.8-29.4C892.3,1334.3,924.2,1348.3,924.2,1348.3z"/><linearGradient id="T" x1="862.162" x2="938.476" y1="1350.839" y2="1350.839" gradientUnits="userSpaceOnUse"><stop offset="0" stop-color="#161616"/><stop offset="1" stop-color="#444"/></linearGradient><path fill="url(#T)" d="M925.4,1354c0,0-6.5,17.3-18.7,18.3c-12.2,1-14.9,11.4-14.9,11.4s0-12.5-6.2-14.8
					c-6.2-2.4-1.4,10.1-5.6,11.1c-4.2,0.9-16.4-16.4-17.6-30.1s6-14.3,6-14.3s8.7-25.4,36.9-15.1c28.2,10.3,36.7,25.2,32,36
					c-4.6,10.8-13.9,11.8-13.9,11.8S928.1,1358.1,925.4,1354z"/></g><g><linearGradient id="U" x1="-10848.471" x2="-10668.224" y1="1152.779" y2="1152.779" gradientTransform="matrix(-1 0 0 1 -8489.231 0)" gradientUnits="userSpaceOnUse"><stop offset="0" stop-color="#3abaf9"/><stop offset="1" stop-color="#267ebd"/></linearGradient><path fill="url(#U)" d="M2179,1152.8c0,22.7,8.3,43.3,22.1,59.1c16.5,19,40.9,31,68,31c22,0,42.1-7.9,57.8-20.9
					c19.8-16.5,32.4-41.4,32.4-69.2c0-49.8-40.3-90.1-90.1-90.1C2219.3,1062.7,2179,1103,2179,1152.8z"/><linearGradient id="V" x1="-10816.101" x2="-10690.363" y1="1206.548" y2="1206.548" gradientTransform="matrix(-1 0 0 1 -8489.231 0)" gradientUnits="userSpaceOnUse"><stop offset="0" stop-color="#fafafa"/><stop offset="1" stop-color="#eaeaea"/></linearGradient><path fill="url(#V)" d="M2201.1,1211.9c16.5,19,40.9,31,68,31c22,0,42.1-7.9,57.8-20.9c0,0-3.1-31-15.3-39.7
					c-12.2-8.7-52.4-14.4-67.9-11.1c-15.5,3.3-26.4,7.4-32.7,18.8C2207.3,1196.6,2203.5,1205.6,2201.1,1211.9z"/><linearGradient id="W" x1="-10767.304" x2="-10750.814" y1="1161.707" y2="1164.514" gradientTransform="matrix(-1 0 0 1 -8489.231 0)" gradientUnits="userSpaceOnUse"><stop offset="0" stop-color="#ffd4ae"/><stop offset="1" stop-color="#e5a26a"/></linearGradient><path fill="url(#W)" d="M2251.4,1151.7l0.7,23.1c0,0,7.3,5.2,17.1,3c9.8-2.3,10.7-4.9,10.7-4.9l-1.8-11.1L2251.4,1151.7z"/><linearGradient id="X" x1="-9675.766" x2="-9627.294" y1="2107.311" y2="2107.311" gradientTransform="matrix(-.9862 .1614 .1614 .9877 -7588.973 619.018)" gradientUnits="userSpaceOnUse"><stop offset="0" stop-color="#ffd4ae"/><stop offset="1" stop-color="#e5a26a"/></linearGradient><path fill="url(#X)" d="M2290.1,1121.1c0,0,3,7.7,1.8,11.2c-1.2,3.5-3.5,5.9-3.5,5.9s4.3,2.8,3.8,7.6c-0.5,4.7-2.5,21-4.6,22.9
					s-17.7,3.3-19.5,1.6c-1.8-1.7-17.6-18.7-21.5-26.7c-4-8-4.4-17.7,5.2-26.3C2261.5,1108.5,2290.1,1121.1,2290.1,1121.1z"/><linearGradient id="Y" x1="2234.522" x2="2302.924" y1="1123.316" y2="1123.316" gradientUnits="userSpaceOnUse"><stop offset="0" stop-color="#161616"/><stop offset="1" stop-color="#444"/></linearGradient><path fill="url(#Y)" d="M2291.2,1126.2c0,0-5.8,15.5-16.8,16.4c-10.9,0.9-13.4,10.2-13.4,10.2s0-11.2-5.6-13.3
					c-5.6-2.1-1.3,9.1-5,9.9s-14.7-14.7-15.8-27c-1.1-12.3,5.4-12.8,5.4-12.8s7.8-22.8,33.1-13.6c25.3,9.2,32.9,22.6,28.7,32.3
					c-4.1,9.7-12.5,10.5-12.5,10.5S2293.6,1129.8,2291.2,1126.2z"/></g><g><linearGradient id="Z" x1="-10514.708" x2="-10334.462" y1="1087.96" y2="1087.96" gradientTransform="matrix(-1 0 0 1 -8489.231 0)" gradientUnits="userSpaceOnUse"><stop offset="0" stop-color="#dd2f2f"/><stop offset="1" stop-color="#ff6757"/></linearGradient><path fill="url(#Z)" d="M1845.2,1088c0,22.7,8.3,43.3,22.1,59.1c16.5,19,40.9,31,68,31c22,0,42.1-7.9,57.8-20.9
					c19.8-16.5,32.4-41.4,32.4-69.2c0-49.8-40.3-90.1-90.1-90.1C1885.6,997.8,1845.2,1038.2,1845.2,1088z"/><linearGradient id="aa" x1="-10482.338" x2="-10356.602" y1="1141.728" y2="1141.728" gradientTransform="matrix(-1 0 0 1 -8489.231 0)" gradientUnits="userSpaceOnUse"><stop offset="0" stop-color="#fafafa"/><stop offset="1" stop-color="#eaeaea"/></linearGradient><path fill="url(#aa)" d="M1867.4,1147.1c16.5,19,40.9,31,68,31c22,0,42.1-7.9,57.8-20.9c0,0-3.1-31-15.3-39.7
					c-12.2-8.7-52.4-14.4-67.9-11.1c-15.5,3.3-26.4,7.4-32.7,18.8C1873.5,1131.7,1869.8,1140.8,1867.4,1147.1z"/><linearGradient id="ab" x1="-10433.541" x2="-10417.051" y1="1096.888" y2="1099.694" gradientTransform="matrix(-1 0 0 1 -8489.231 0)" gradientUnits="userSpaceOnUse"><stop offset="0" stop-color="#ffd4ae"/><stop offset="1" stop-color="#e5a26a"/></linearGradient><path fill="url(#ab)" d="M1917.7,1086.8l0.7,23.1c0,0,7.3,5.2,17.1,3s10.7-4.9,10.7-4.9l-1.8-11.1L1917.7,1086.8z"/><linearGradient id="ac" x1="-9356.62" x2="-9308.148" y1="1989.524" y2="1989.524" gradientTransform="matrix(-.9862 .1614 .1614 .9877 -7588.973 619.018)" gradientUnits="userSpaceOnUse"><stop offset="0" stop-color="#ffd4ae"/><stop offset="1" stop-color="#e5a26a"/></linearGradient><path fill="url(#ac)" d="M1956.4,1056.3c0,0,3,7.7,1.8,11.2c-1.2,3.5-3.5,5.9-3.5,5.9s4.3,2.8,3.8,7.6c-0.5,4.7-2.5,21-4.6,22.9
					c-2.1,1.9-17.7,3.3-19.5,1.6c-1.8-1.7-17.6-18.7-21.5-26.7c-4-8-4.4-17.7,5.2-26.3C1927.8,1043.7,1956.4,1056.3,1956.4,1056.3z"/><linearGradient id="ad" x1="1900.759" x2="1969.161" y1="1058.496" y2="1058.496" gradientUnits="userSpaceOnUse"><stop offset="0" stop-color="#161616"/><stop offset="1" stop-color="#444"/></linearGradient><path fill="url(#ad)" d="M1957.4,1061.4c0,0-5.8,15.5-16.8,16.4c-10.9,0.9-13.4,10.2-13.4,10.2s0-11.2-5.6-13.3s-1.3,9.1-5,9.9
					s-14.7-14.7-15.8-27c-1.1-12.3,5.4-12.8,5.4-12.8s7.8-22.8,33.1-13.6c25.3,9.2,32.9,22.6,28.7,32.3s-12.5,10.5-12.5,10.5
					S1959.8,1065,1957.4,1061.4z"/></g><g><linearGradient id="ae" x1="-10143.527" x2="-9963.28" y1="1062.656" y2="1062.656" gradientTransform="matrix(-1 0 0 1 -8489.231 0)" gradientUnits="userSpaceOnUse"><stop offset="0" stop-color="#3abaf9"/><stop offset="1" stop-color="#267ebd"/></linearGradient><path fill="url(#ae)" d="M1474,1062.7c0,22.6,8.3,43.3,22.1,59.1c16.5,19,40.9,31,68,31c22,0,42.1-7.9,57.8-20.9
					c19.8-16.5,32.4-41.4,32.4-69.2c0-49.8-40.3-90.1-90.1-90.1C1514.4,972.5,1474,1012.9,1474,1062.7z"/><linearGradient id="af" x1="-10111.157" x2="-9985.42" y1="1116.425" y2="1116.425" gradientTransform="matrix(-1 0 0 1 -8489.231 0)" gradientUnits="userSpaceOnUse"><stop offset="0" stop-color="#fafafa"/><stop offset="1" stop-color="#eaeaea"/></linearGradient><path fill="url(#af)" d="M1496.2,1121.8c16.5,19,40.9,31,68,31c22,0,42.1-7.9,57.8-20.9c0,0-3.1-31-15.3-39.7
					c-12.2-8.7-52.4-14.4-67.9-11.1c-15.5,3.3-26.4,7.4-32.7,18.8C1502.3,1106.4,1498.6,1115.5,1496.2,1121.8z"/><linearGradient id="ag" x1="-10062.36" x2="-10045.87" y1="1071.584" y2="1074.391" gradientTransform="matrix(-1 0 0 1 -8489.231 0)" gradientUnits="userSpaceOnUse"><stop offset="0" stop-color="#ffd4ae"/><stop offset="1" stop-color="#e5a26a"/></linearGradient><path fill="url(#ag)" d="M1546.5,1061.5l0.7,23.1c0,0,7.3,5.2,17.1,3s10.7-4.9,10.7-4.9l-1.8-11.1L1546.5,1061.5z"/><linearGradient id="ah" x1="-8994.147" x2="-8945.675" y1="1904.664" y2="1904.664" gradientTransform="matrix(-.9862 .1614 .1614 .9877 -7588.973 619.018)" gradientUnits="userSpaceOnUse"><stop offset="0" stop-color="#ffd4ae"/><stop offset="1" stop-color="#e5a26a"/></linearGradient><path fill="url(#ah)" d="M1585.2,1031c0,0,3,7.7,1.8,11.2c-1.2,3.5-3.5,5.9-3.5,5.9s4.3,2.8,3.8,7.6c-0.5,4.7-2.5,21-4.6,22.9
					s-17.7,3.3-19.5,1.6c-1.8-1.7-17.6-18.7-21.5-26.7s-4.4-17.7,5.2-26.3C1556.6,1018.4,1585.2,1031,1585.2,1031z"/><linearGradient id="ai" x1="1529.579" x2="1597.98" y1="1033.193" y2="1033.193" gradientUnits="userSpaceOnUse"><stop offset="0" stop-color="#161616"/><stop offset="1" stop-color="#444"/></linearGradient><path fill="url(#ai)" d="M1586.2,1036c0,0-5.8,15.5-16.8,16.4c-10.9,0.9-13.4,10.2-13.4,10.2s0-11.2-5.6-13.3s-1.3,9.1-5,9.9
					c-3.7,0.8-14.7-14.7-15.8-27c-1.1-12.3,5.4-12.8,5.4-12.8s7.8-22.8,33.1-13.6c25.3,9.2,32.9,22.6,28.7,32.3
					c-4.1,9.7-12.5,10.5-12.5,10.5S1588.7,1039.7,1586.2,1036z"/></g><g><linearGradient id="aj" x1="-9909.724" x2="-9729.478" y1="1554.919" y2="1554.919" gradientTransform="matrix(-1 0 0 1 -8489.231 0)" gradientUnits="userSpaceOnUse"><stop offset="0" stop-color="#82fb7c"/><stop offset="1" stop-color="#0ba2b3"/></linearGradient><path fill="url(#aj)" d="M1240.2,1554.9c0,22.6,8.3,43.3,22.1,59.1c16.5,19,40.9,31,68,31c22,0,42.1-7.9,57.8-20.9
					c19.8-16.5,32.4-41.4,32.4-69.2c0-49.8-40.3-90.1-90.1-90.1C1280.6,1464.8,1240.2,1505.1,1240.2,1554.9z"/><linearGradient id="ak" x1="-9877.353" x2="-9751.617" y1="1608.688" y2="1608.688" gradientTransform="matrix(-1 0 0 1 -8489.231 0)" gradientUnits="userSpaceOnUse"><stop offset="0" stop-color="#fafafa"/><stop offset="1" stop-color="#eaeaea"/></linearGradient><path fill="url(#ak)" d="M1262.4,1614.1c16.5,19,40.9,31,68,31c22,0,42.1-7.9,57.8-20.9c0,0-3.1-31-15.3-39.7
					c-12.2-8.7-52.4-14.4-67.9-11.1c-15.5,3.3-26.4,7.4-32.7,18.8C1268.5,1598.7,1264.8,1607.7,1262.4,1614.1z"/><linearGradient id="al" x1="-9828.557" x2="-9812.066" y1="1563.847" y2="1566.654" gradientTransform="matrix(-1 0 0 1 -8489.231 0)" gradientUnits="userSpaceOnUse"><stop offset="0" stop-color="#ffd4ae"/><stop offset="1" stop-color="#e5a26a"/></linearGradient><path fill="url(#al)" d="M1312.7,1553.8l0.7,23.1c0,0,7.3,5.2,17.1,3s10.7-4.9,10.7-4.9l-1.8-11.1L1312.7,1553.8z"/><linearGradient id="am" x1="-8683.834" x2="-8635.362" y1="2352.336" y2="2352.336" gradientTransform="matrix(-.9862 .1614 .1614 .9877 -7588.973 619.018)" gradientUnits="userSpaceOnUse"><stop offset="0" stop-color="#ffd4ae"/><stop offset="1" stop-color="#e5a26a"/></linearGradient><path fill="url(#am)" d="M1351.4,1523.2c0,0,3,7.7,1.8,11.2s-3.5,5.9-3.5,5.9s4.3,2.8,3.8,7.6c-0.5,4.7-2.5,21-4.6,22.9
					s-17.7,3.3-19.5,1.6c-1.8-1.7-17.6-18.7-21.5-26.7s-4.4-17.7,5.2-26.3C1322.8,1510.6,1351.4,1523.2,1351.4,1523.2z"/><linearGradient id="an" x1="1295.775" x2="1364.177" y1="1525.456" y2="1525.456" gradientUnits="userSpaceOnUse"><stop offset="0" stop-color="#161616"/><stop offset="1" stop-color="#444"/></linearGradient><path fill="url(#an)" d="M1352.4,1528.3c0,0-5.8,15.5-16.8,16.4c-10.9,0.9-13.4,10.2-13.4,10.2s0-11.2-5.6-13.3
					c-5.6-2.1-1.3,9.1-5,9.9c-3.7,0.8-14.7-14.7-15.8-27s5.4-12.8,5.4-12.8s7.8-22.8,33.1-13.6s32.9,22.6,28.7,32.3
					c-4.1,9.7-12.5,10.5-12.5,10.5S1354.9,1532,1352.4,1528.3z"/></g><g><linearGradient id="ao" x1="-10141.918" x2="-9940.823" y1="401.913" y2="401.913" gradientTransform="matrix(-1 0 0 1 -8489.231 0)" gradientUnits="userSpaceOnUse"><stop offset="0" stop-color="#dd2f2f"/><stop offset="1" stop-color="#ff6757"/></linearGradient><path fill="url(#ao)" d="M1451.6,401.9c0,25.3,9.3,48.3,24.7,66c18.4,21.2,45.6,34.6,75.8,34.6c24.5,0,47-8.8,64.4-23.4
					c22.1-18.4,36.1-46.2,36.1-77.2c0-55.5-45-100.5-100.5-100.5C1496.6,301.4,1451.6,346.4,1451.6,401.9z"/><linearGradient id="ap" x1="-10105.804" x2="-9965.523" y1="461.901" y2="461.901" gradientTransform="matrix(-1 0 0 1 -8489.231 0)" gradientUnits="userSpaceOnUse"><stop offset="0" stop-color="#fafafa"/><stop offset="1" stop-color="#eaeaea"/></linearGradient><path fill="url(#ap)" d="M1476.3,467.9c18.4,21.2,45.6,34.6,75.8,34.6c24.5,0,47-8.8,64.4-23.4c0,0-3.4-34.5-17-44.3
					c-13.7-9.7-58.5-16.1-75.8-12.4c-17.3,3.7-29.5,8.3-36.5,21C1483.1,450.7,1479,460.8,1476.3,467.9z"/><linearGradient id="aq" x1="-10051.362" x2="-10032.965" y1="411.874" y2="415.005" gradientTransform="matrix(-1 0 0 1 -8489.231 0)" gradientUnits="userSpaceOnUse"><stop offset="0" stop-color="#ffd4ae"/><stop offset="1" stop-color="#e5a26a"/></linearGradient><path fill="url(#aq)" d="M1532.4,400.7l0.8,25.8c0,0,8.1,5.8,19,3.3c10.9-2.5,11.9-5.4,11.9-5.4l-2-12.4L1532.4,400.7z"/><linearGradient id="ar" x1="-9091.947" x2="-9037.869" y1="1250.008" y2="1250.008" gradientTransform="matrix(-.9862 .1614 .1614 .9877 -7588.973 619.018)" gradientUnits="userSpaceOnUse"><stop offset="0" stop-color="#ffd4ae"/><stop offset="1" stop-color="#e5a26a"/></linearGradient><path fill="url(#ar)" d="M1575.6,366.5c0,0,3.4,8.6,2,12.5c-1.3,3.9-3.9,6.6-3.9,6.6s4.8,3.2,4.3,8.4c-0.6,5.3-2.8,23.4-5.1,25.5
					c-2.4,2.1-19.7,3.6-21.8,1.7c-2-1.9-19.6-20.9-24-29.8c-4.4-8.9-4.9-19.7,5.8-29.4C1543.7,352.5,1575.6,366.5,1575.6,366.5z"/><linearGradient id="as" x1="1513.544" x2="1589.857" y1="369.042" y2="369.042" gradientUnits="userSpaceOnUse"><stop offset="0" stop-color="#161616"/><stop offset="1" stop-color="#444"/></linearGradient><path fill="url(#as)" d="M1576.7,372.2c0,0-6.5,17.3-18.7,18.3c-12.2,1-14.9,11.4-14.9,11.4s0-12.5-6.2-14.8
					c-6.2-2.4-1.4,10.1-5.6,11.1c-4.2,0.9-16.4-16.4-17.6-30.1c-1.2-13.7,6-14.3,6-14.3s8.7-25.4,36.9-15.1
					c28.2,10.3,36.7,25.2,32,36s-13.9,11.8-13.9,11.8S1579.5,376.3,1576.7,372.2z"/></g><g><linearGradient id="at" x1="-10704.339" x2="-10503.244" y1="559.162" y2="559.162" gradientTransform="matrix(-1 0 0 1 -8489.231 0)" gradientUnits="userSpaceOnUse"><stop offset="0" stop-color="#ffd600"/><stop offset="1" stop-color="#ffb000"/></linearGradient><path fill="url(#at)" d="M2014,559.2c0,25.3,9.3,48.3,24.7,66c18.4,21.2,45.6,34.6,75.8,34.6c24.5,0,47-8.8,64.4-23.4
					c22.1-18.4,36.1-46.2,36.1-77.2c0-55.5-45-100.5-100.5-100.5C2059,458.6,2014,503.6,2014,559.2z"/><linearGradient id="au" x1="-10668.224" x2="-10527.944" y1="619.149" y2="619.149" gradientTransform="matrix(-1 0 0 1 -8489.231 0)" gradientUnits="userSpaceOnUse"><stop offset="0" stop-color="#fafafa"/><stop offset="1" stop-color="#eaeaea"/></linearGradient><path fill="url(#au)" d="M2038.7,625.1c18.4,21.2,45.6,34.6,75.8,34.6c24.5,0,47-8.8,64.4-23.4c0,0-3.4-34.5-17-44.3
					c-13.7-9.7-58.5-16.1-75.8-12.4c-17.3,3.7-29.5,8.3-36.5,21C2045.5,608,2041.4,618.1,2038.7,625.1z"/><linearGradient id="av" x1="-10613.783" x2="-10595.386" y1="569.122" y2="572.254" gradientTransform="matrix(-1 0 0 1 -8489.231 0)" gradientUnits="userSpaceOnUse"><stop offset="0" stop-color="#ffd4ae"/><stop offset="1" stop-color="#e5a26a"/></linearGradient><path fill="url(#av)" d="M2094.8,557.9l0.8,25.8c0,0,8.1,5.8,19,3.3s11.9-5.4,11.9-5.4l-2-12.4L2094.8,557.9z"/><linearGradient id="aw" x1="-9621.99" x2="-9567.912" y1="1495.843" y2="1495.843" gradientTransform="matrix(-.9862 .1614 .1614 .9877 -7588.973 619.018)" gradientUnits="userSpaceOnUse"><stop offset="0" stop-color="#ffd4ae"/><stop offset="1" stop-color="#e5a26a"/></linearGradient><path fill="url(#aw)" d="M2138,523.8c0,0,3.4,8.6,2,12.5c-1.3,3.9-3.9,6.6-3.9,6.6s4.8,3.2,4.3,8.4c-0.6,5.3-2.8,23.4-5.1,25.5
					c-2.4,2.1-19.7,3.6-21.8,1.7c-2-1.9-19.6-20.9-24-29.8c-4.4-8.9-4.9-19.7,5.8-29.4C2106.1,509.7,2138,523.8,2138,523.8z"/><linearGradient id="ax" x1="2075.964" x2="2152.278" y1="526.291" y2="526.291" gradientUnits="userSpaceOnUse"><stop offset="0" stop-color="#161616"/><stop offset="1" stop-color="#444"/></linearGradient><path fill="url(#ax)" d="M2139.2,529.5c0,0-6.5,17.3-18.7,18.3s-14.9,11.4-14.9,11.4s0-12.5-6.2-14.8c-6.2-2.4-1.4,10.1-5.6,11.1
					c-4.2,0.9-16.4-16.4-17.6-30.1c-1.2-13.7,6-14.3,6-14.3s8.7-25.4,36.9-15.1c28.2,10.3,36.7,25.2,32,36
					c-4.6,10.8-13.9,11.8-13.9,11.8S2141.9,533.5,2139.2,529.5z"/></g><g><linearGradient id="ay" x1="-10913.55" x2="-10924.709" y1="1031.022" y2="659.749" gradientTransform="matrix(-1 0 0 1 -9670.8 0)" gradientUnits="userSpaceOnUse"><stop offset="0" stop-color="#dd2f2f"/><stop offset="1" stop-color="#ff6757"/></linearGradient><path fill="url(#ay)" d="M1057.5,823.4c-0.2,3.5-0.2,7.1-0.1,10.8c5.5,145.5,131.5,329.2,164.1,364.3c3.7,3.9,27-11.3,27.4-10.9
					v0.1c0,0,0,0,0-0.1c0,0,0,0.1,0,0.1v-0.1c4.1-4.3,185.5-191.5,191.6-353.3c0.2-4.3,0.1-8.3-0.1-12.2c0.1-1.9,0.1-3.9,0.1-5.8
					c0-105.9-85.8-191.7-191.7-191.7c-105.9,0-191.7,85.8-191.7,191.7C1057.3,818.7,1057.4,821.1,1057.5,823.4z M1153.7,816.3
					c0-52.6,42.6-95.3,95.3-95.3c52.6,0,95.3,42.6,95.3,95.3c0,52.6-42.6,95.3-95.3,95.3C1196.4,911.5,1153.7,868.9,1153.7,816.3z"/><linearGradient id="az" x1="-10922.851" x2="-10857.929" y1="650.951" y2="1039.468" gradientTransform="matrix(-1 0 0 1 -9670.8 0)" gradientUnits="userSpaceOnUse"><stop offset="0" stop-color="#dd2f2f"/><stop offset="1" stop-color="#ff6757"/></linearGradient><path fill="url(#az)" d="M1030,834.3c-0.2,3.5-0.2,7.1-0.1,10.8c6.1,161.8,187.4,349.1,191.6,353.3v0.1c0,0,0,0,0-0.1
					c0,0,0,0.1,0,0.1v-0.1c4.1-4.3,185.5-191.5,191.6-353.3c0.2-4.3,0.1-8.3-0.1-12.2c0.1-1.9,0.1-3.9,0.1-5.8
					c0-105.9-85.8-191.7-191.7-191.7c-105.9,0-191.7,85.8-191.7,191.7C1029.8,829.5,1029.9,831.9,1030,834.3z M1126.2,827.1
					c0-52.6,42.6-95.3,95.3-95.3c52.6,0,95.3,42.6,95.3,95.3c0,52.6-42.6,95.3-95.3,95.3C1168.8,922.4,1126.2,879.7,1126.2,827.1z"/></g></svg>